<?xml version="1.0" encoding="UTF-8"?>
<svg width="3725px" height="1583px" viewBox="0 0 3725 1583" version="1.1" xmlns="http://www.w3.org/2000/svg" xmlns:xlink="http://www.w3.org/1999/xlink">
    <title>elixir-ecosystem-v2</title>
    <defs>
        <linearGradient x1="50%" y1="40.9701761%" x2="12.6229385%" y2="60.2154311%" id="linearGradient-1">
            <stop stop-color="#130542" offset="0%"></stop>
            <stop stop-color="#401471" offset="100%"></stop>
        </linearGradient>
    </defs>
    <g id="elixir-ecosystem-v2" stroke="none" stroke-width="1" fill="none" fill-rule="evenodd">
        <rect id="Rectangle" fill="url(#linearGradient-1)" x="0" y="0" width="3725" height="1583"></rect>
        <g id="ecosystem" transform="translate(440.000000, 269.000000)">
            <g id="trino" transform="translate(614.000000, 97.000000)" fill-rule="nonzero">
                <path d="M41.9430254,163.189737 C44.6528276,161.391684 37.5543241,162.069639 36.9652365,160.86111 C34.1549294,160.626446 31.3735284,160.123053 28.6591037,159.35782 C23.5634973,158.060863 11.487205,149.89593 10.2206671,142.232094 C8.95412911,134.568258 10.2206671,119.68273 15.6108171,110.957748 C19.0534808,105.611352 23.4817408,100.969722 28.6591037,97.2807479 C28.6591037,97.2807479 18.1438931,72.2553757 17.2308075,53.3610724 C16.3177218,34.466769 17.6726231,0.627985289 30.1612766,0.00898324808 C42.6499302,-0.610018793 40.4408524,30.9001376 38.4674095,51.3861608 C37.2012349,64.9970166 36.9944311,78.68579 37.8488676,92.3287308 C43.1000809,90.6479935 48.5662323,89.7346357 54.0782265,89.616912 C58.9253935,89.5066195 63.7689034,89.9616548 68.5108688,90.9728215 C68.5108688,90.9728215 72.3988458,61.9091971 85.4176781,43.8107537 C98.4365105,25.7123101 111.926613,7.08329331 120.762924,12.3595497 C129.599236,17.6358062 118.377121,36.5006333 110.571712,46.3162384 C102.766303,56.1318435 89.217292,70.86999 84.7107732,78.7401602 C81.7613929,83.979695 79.1541352,89.4048577 76.9053647,94.9815973 C84.9452206,99.1153383 91.524696,105.617406 95.7561626,113.610614 C101.853217,126.226467 102.442305,141.878379 99.1434152,148.481067 C95.6635206,154.676528 89.6064956,158.998476 82.6195129,160.271585 C78.7315358,160.566348 62.266542,164.634076 62.266542,164.634076 L41.9430254,163.189737 Z" id="Path" fill="#FFFFFF"></path>
                <path d="M70.6904922,91.2086317 C70.6904922,91.2086317 80.4987979,65.5642574 89.3056551,51.1208742 C98.1125124,36.6774908 109.923715,25.8007391 113.634966,28.0114609 C117.346217,30.2221827 106.035738,43.7812772 96.1979781,56.9571801 C88.1194846,68.6283533 80.7996826,80.8075652 74.2839256,93.4193538 L70.6904922,91.2086317 Z M31.3394515,95.6300756 L34.1376169,93.4193538 C34.1376169,93.4193538 33.7547101,67.7749794 34.1376169,52.1525444 C34.5205237,36.5301094 35.3452461,17.0462803 30.1318223,17.2526143 C24.9183985,17.4589483 21.2955107,32.4329049 23.3278625,53.7442642 C24.830604,67.9047492 27.5104147,81.9152085 31.3394515,95.6300756 L31.3394515,95.6300756 Z" id="Shape" fill="#DD00A1"></path>
                <path d="M16.8184462,144.943913 C16.8180844,146.987142 17.9071157,148.875319 19.6752279,149.897038 C21.4433401,150.918758 23.6218487,150.918758 25.3899609,149.897038 C27.1580731,148.875319 28.2471044,146.987142 28.2467426,144.943913 C28.2471044,142.900684 27.1580731,141.012506 25.3899609,139.990787 C23.6218487,138.969069 21.4433401,138.969069 19.6752279,139.990787 C17.9071157,141.012506 16.8180844,142.900684 16.8184462,144.943913 L16.8184462,144.943913 Z" id="Path" fill="#F9D8D2"></path>
                <path d="M84.3278662,144.943913 C84.3278662,146.9869 85.4169766,148.874699 87.1849402,149.896193 C88.9529038,150.917687 91.1311249,150.917687 92.8990885,149.896193 C94.6670523,148.874699 95.7561626,146.9869 95.7561626,144.943913 C95.7561626,142.900925 94.6670523,141.013126 92.8990885,139.991632 C91.1311249,138.970138 88.9529038,138.970138 87.1849402,139.991632 C85.4169766,141.013126 84.3278662,142.900925 84.3278662,144.943913 L84.3278662,144.943913 Z" id="Path" fill="#F9D8D2"></path>
                <path d="M65.7716122,144.442816 C65.5607261,144.258455 65.2461388,144.258455 65.0352529,144.442816 C65.0352529,144.442816 63.3563537,147.390445 60.8821864,147.567302 C59.1901098,147.510469 57.5944387,146.765267 56.4640306,145.503963 L56.4640306,141.495187 C58.0545667,140.640374 60.617097,137.987508 60.617097,137.073743 C60.16568,135.040396 58.2708588,133.662468 56.1989413,133.860827 C53.2535041,133.860827 51.1916981,135.776786 51.1916981,137.368506 C51.1916981,138.960225 54.431679,140.99409 55.3447646,141.613092 L55.3447646,145.887154 C54.4296788,147.100278 53.0314517,147.85373 51.5156962,147.950494 C49.1593464,147.950494 47.3920841,144.767055 47.3920841,144.737578 C47.2490523,144.474664 46.9247065,144.370796 46.6557248,144.501768 C46.4131701,144.632224 46.3107883,144.926791 46.42009,145.179723 C46.42009,145.356581 48.5113503,148.982165 51.5156962,148.982165 C53.2202029,148.924261 54.8225586,148.154557 55.9338519,146.859871 C57.1787106,148.127204 58.8452772,148.892927 60.617097,149.011641 L61.0294584,149.011641 C63.1760877,148.602754 65.0253804,147.249926 66.0661557,145.327105 C66.2644099,145.121531 66.2644099,144.79577 66.0661557,144.590198 C65.9809374,144.518551 65.880018,144.468053 65.7716122,144.442816 L65.7716122,144.442816 Z" id="Path" fill="#10110E"></path>
                <path d="M28.6591037,97.2807479 C28.6591037,97.2807479 20.6180604,76.6473434 18.9097067,65.7116389 C17.2013532,54.7759344 15.9642696,36.883825 18.0260756,24.886974 C18.8542552,19.3275654 20.0248416,13.8246685 21.5311458,8.40972653 C21.5311458,8.40972653 17.6726231,36.3827279 19.1158873,48.6153894 C20.5591514,60.8480508 28.6591037,97.2807479 28.6591037,97.2807479 Z M68.5108688,90.9433452 C68.5108688,90.9433452 74.4017431,59.7279517 82.9729653,47.4363377 C91.5441874,35.1447237 102.295033,20.347625 107.567366,16.5746596 L112.928061,12.801694 C112.928061,12.801694 91.3085523,35.3805341 82.9729653,54.0685034 C74.6373782,72.7564727 68.5108688,90.9433452 68.5108688,90.9433452 Z" id="Shape" fill="#E5E5E5"></path>
                <path d="M34.1670712,126.314896 C32.3562676,126.314896 30.7237673,127.40651 30.0308029,129.080719 C29.3378383,130.754929 29.720877,132.682027 31.0013086,133.963411 C32.28174,135.244796 34.2074054,135.628119 35.8803697,134.934639 C37.5533341,134.241158 38.6441357,132.607443 38.6441357,130.795293 C38.6443478,128.343679 36.6755586,126.347154 34.22598,126.314896 L34.1670712,126.314896 Z M35.3452461,130.471053 C34.6620237,130.471053 34.1081625,129.91678 34.1081625,129.233049 C34.1081625,128.549317 34.6620237,127.995044 35.3452461,127.995044 C36.0284684,127.995044 36.5823297,128.549317 36.5823297,129.233049 C36.5902352,129.561414 36.467423,129.879464 36.2409289,130.117184 C36.0144348,130.354904 35.7028262,130.492805 35.3747004,130.500529 L35.3452461,130.471053 Z M78.2013569,126.314896 C75.7288208,126.298671 73.7112811,128.291377 73.6950322,130.765754 C73.6787834,133.240128 75.6699787,135.259199 78.1425143,135.275496 C80.6150499,135.291793 82.6326471,133.299145 82.6489672,130.824769 C82.6568046,129.636486 82.1926154,128.493759 81.3585212,127.647989 C80.5244269,126.802218 79.3887563,126.322688 78.2013569,126.314896 L78.2013569,126.314896 Z M79.5268038,130.471053 C79.1986825,130.478965 78.8808688,130.356061 78.6433262,130.129398 C78.4057835,129.902735 78.2679851,129.590895 78.2602642,129.262525 C78.2595328,128.584905 78.7915118,128.026562 79.4678949,127.995044 C79.7960162,127.987133 80.1138299,128.110037 80.3513725,128.3367 C80.5889151,128.563362 80.7267135,128.875202 80.734433,129.203573 C80.7423407,129.524122 80.6226325,129.834675 80.4016617,130.066867 C80.1806909,130.299058 79.8765728,130.433854 79.5562581,130.441577 L79.5268038,130.471053 Z" id="Shape" fill="#10110E"></path>
                <path d="M15.4929995,132.504917 C15.4929995,149.044693 34.0869112,162.45283 57.0236637,162.45283 C79.9604162,162.45283 98.5543279,149.044693 98.5543279,132.504917 C98.5543279,115.965142 79.9604162,102.557004 57.0236637,102.557004 C34.0869112,102.557004 15.4929995,115.965142 15.4929995,132.504917 Z" id="Path" fill="#8ACCCE" opacity="0.2"></path>
                <path d="M107.302276,115.850812 L107.302276,96.0427438 C110.481837,95.3161902 112.784515,92.5533326 112.928061,89.2926728 C112.504153,85.3225118 109.156626,82.3113839 105.166834,82.3113839 C101.177042,82.3113839 97.8295159,85.3225118 97.4056073,89.2926728 C97.5758237,92.5629429 99.8985143,95.3209325 103.090301,96.0427438 L103.090301,115.349715 L102.501214,115.349715 C96.6103393,94.8931685 79.2028057,82.1004575 56.4640306,82.1004575 C33.7252555,82.1004575 16.2293588,94.7752633 10.456302,115.349715 L8.48285911,115.349715 C4.05686167,115.147796 0.284355226,118.529848 0,122.954598 L0,138.105413 C0.253465276,142.549372 4.04029798,145.957426 8.48285911,145.739773 L11.1632069,145.739773 C13.4125912,151.54581 17.0420156,156.715771 21.7373263,160.802158 L17.9377124,164.250884 C17.4726243,164.64549 17.1833608,165.20893 17.1336387,165.817097 C17.0839167,166.425262 17.277815,167.028264 17.6726231,167.493276 C26.3027542,177.898407 40.4113982,184 56.3462132,184 C72.2810283,184 86.4191269,178.104741 95.0492576,167.493276 C95.8746589,166.515159 95.7562483,165.053675 94.7841682,164.221408 L90.9550999,160.713729 C95.6387362,156.652305 99.2673152,151.513892 101.529219,145.739773 L104.474657,145.739773 C108.922746,145.956775 112.705799,142.52707 112.928061,138.075936 L112.928061,122.954598 C112.821835,119.604789 110.536835,116.719475 107.302276,115.850812 L107.302276,115.850812 Z M56.4640306,104.060295 C77.494452,104.060295 94.5779877,117.914152 94.5779877,134.921973 C94.5779877,153.344656 75.4031917,161.450637 56.4640306,161.450637 C37.5248695,161.450637 18.3500736,153.285703 18.3500736,134.774592 C18.3500736,117.914152 35.3452461,103.912914 56.4640306,103.912914 L56.4640306,104.060295 Z" id="Shape" fill="#FFFFFF"></path>
                <path d="M108.716086,133.12392 L103.090301,133.12392 L103.090301,130.176291 C103.090312,126.42293 102.705388,122.679479 101.941581,119.004775 L104.356839,119.004775 C106.543859,118.852873 108.441139,120.501042 108.598269,122.689312 L108.716086,133.12392 Z M104.474657,142.025759 L101.529219,142.025759 C102.088562,139.914791 102.501902,137.767763 102.766303,135.599928 L108.657177,135.599928 L108.657177,138.105413 C108.64167,139.153008 108.210891,140.151519 107.459633,140.881223 C106.708375,141.610928 105.698196,142.012036 104.651383,141.996283 L104.474657,141.996283 L104.474657,142.025759 Z M56.4640306,180.109129 C42.3553865,180.109129 29.7783698,175.039207 21.8845983,166.019462 L25.7136666,162.45283 C34.7654901,168.498707 45.4674067,171.588096 56.3462132,171.295718 C67.2285049,171.615549 77.9385974,168.5238 86.9787598,162.45283 L90.9550999,166.019462 C83.1496915,175.039207 70.6904922,180.109129 56.4640306,180.109129 Z M8.48285911,119.152157 L10.9864806,119.152157 C10.2467869,122.830038 9.87187854,126.572038 9.86721459,130.323671 C9.80829996,131.30533 9.80829996,132.289643 9.86721459,133.271301 L4.38870135,133.271301 L4.38870135,122.954598 C4.35577142,120.898304 5.9865818,119.200473 8.04104345,119.152157 L8.48285911,119.152157 Z" id="Shape" fill="#515151"></path>
                <path d="M56.4640306,101.377953 C51.6901694,101.404785 46.9427236,102.089164 42.3553865,103.411817 L42.3553865,87.995716 C46.9463586,86.7067248 51.6959448,86.0716523 56.4640306,86.1092332 C61.2418012,86.071625 66.0011139,86.7066723 70.6021291,87.995716 L70.6021291,103.500246 C66.0256294,102.073352 61.2574567,101.357594 56.4640306,101.377953 L56.4640306,101.377953 Z" id="Path" fill="#000000"></path>
                <path d="M4.24142946,135.599928 L10.1323038,135.599928 C10.4209457,137.746652 10.8439569,139.873126 11.398842,141.966807 L8.45340477,141.966807 C6.26638455,142.118711 4.36910517,140.470541 4.21197513,138.282271 L4.21197513,135.599928 L4.24142946,135.599928 Z" id="Path" fill="#515151"></path>
                <path d="M101.647037,89.2926728 C101.647037,91.0508379 103.229497,92.4761122 105.181562,92.4761122 C107.133625,92.4761122 108.716086,91.0508379 108.716086,89.2926728 C108.716086,87.5345076 107.133625,86.1092332 105.181562,86.1092332 C103.229497,86.1092332 101.647037,87.5345076 101.647037,89.2926728 L101.647037,89.2926728 Z" id="Path" fill="#515151"></path>
            </g>
            <g id="delta-lake-logo-a1c0d80d23c17de5f5d7224cb40f15dc" transform="translate(0.000000, 617.000000)" fill="#00ADD4" fill-rule="nonzero">
                <path d="M163.400906,139.201327 L87.6497075,2.29576054 C85.9556349,-0.765253513 81.7704792,-0.765253513 80.0764066,2.29576054 L15.7005077,118.640734 C14.569231,120.687419 16.6112139,123.050181 18.6406902,122.044264 C19.474083,121.629639 20.4359526,121.212611 21.4921898,120.796784 L21.4705874,120.842453 C21.4705874,120.842453 23.229467,120.121366 26.2014845,119.126266 C29.4770706,118.062663 33.0664581,117.055545 36.3158942,116.204662 C45.4081757,113.986118 57.3223956,112.179795 68.0655451,114.065437 C77.9525625,115.799652 84.8380014,118.601074 89.8531389,121.354425 C92.1520753,122.61873 94.3236716,119.445948 92.4647397,117.536269 C85.2745946,110.149936 74.2108223,101.233696 57.3826542,97.4972634 C56.6459035,97.3338172 56.2763911,96.4552926 56.6572732,95.7678565 L82.0012826,49.9632126 C82.8346752,48.4585444 84.8914388,48.4585444 85.7248314,49.9632126 L134.127558,137.441874 C135.147413,139.284251 134.292417,141.637398 132.377774,142.31522 C128.58487,143.65524 124.054079,144.657551 118.982093,144.657551 C115.755397,144.657551 112.509372,144.254944 109.255388,143.455739 C109.253113,143.455739 99.8754548,141.890981 87.33818,133.984262 C74.800905,126.078746 50.6279658,115.993143 23.5034748,132.320955 C11.9462607,140.171188 4.24562025,150.908173 0.187804536,157.649134 C-0.447756961,158.704324 0.64941092,159.962622 1.69314161,159.373733 C11.0128153,154.111001 36.1408022,141.681866 58.783391,146.150201 C72.2416047,148.805003 87.6212833,159.544391 103.609237,165.702473 C130.057235,176.062089 155.986781,158.705527 156.042492,158.66827 C158.783705,156.753784 160.393644,155.298391 160.667652,155.046011 L160.998507,154.740751 C165.224593,150.842073 166.233078,144.318641 163.400906,139.201327" id="Glpyh"></path>
            </g>
            <g id="Snowflake" transform="translate(1651.000000, 10.000000)" fill="#29B5E8">
                <path d="M146.272077,65.6434463 L128.396242,75.9945285 L146.272077,86.3127819 C148.441091,87.563609 150.025555,89.6261178 150.675689,92.0464136 C151.326299,94.4667094 150.989826,97.0468675 149.739934,99.2188059 C148.490517,101.390268 146.430333,102.976521 144.012766,103.627389 C141.595199,104.278732 139.017949,103.94188 136.848935,102.690577 L104.838388,84.1289491 C102.782956,82.9418765 101.255046,81.0178199 100.563091,78.7459676 C100.253232,77.7539651 100.113035,76.7167634 100.148678,75.6776587 C100.164836,74.9387714 100.275093,74.2051178 100.475646,73.4943016 C101.136235,71.1106409 102.702165,69.0804852 104.838388,67.8382221 L136.848935,49.3417764 C139.017949,48.0909492 141.595199,47.7536208 144.012766,48.4049644 C146.430333,49.056308 148.490517,50.6420847 149.739934,52.814023 C150.989826,54.9859613 151.326299,57.5656436 150.675689,59.9859394 C150.025555,62.4062352 148.441091,64.468744 146.272077,65.720047 L146.272077,65.6434463 Z M129.345305,115.793098 L97.3456877,97.3185382 C95.6984913,96.3546068 93.7937126,95.9240254 91.8922606,96.0848392 C89.5207921,96.2584991 87.3028275,97.3247234 85.6841458,99.068935 C84.0654641,100.812671 83.1663021,103.105457 83.1672518,105.485788 L83.1672518,142.478679 C83.1672518,144.980809 84.1600377,147.380171 85.9274708,149.149599 C87.6944287,150.918551 90.0910851,151.912456 92.5903943,151.912456 C95.0897035,151.912456 97.4863599,150.918551 99.2537931,149.149599 C101.020751,147.380171 102.013536,144.980809 102.013536,142.478679 L102.013536,121.733219 L119.976341,132.171369 C121.050868,132.789883 122.236127,133.190966 123.465108,133.350829 C124.69409,133.511167 125.942556,133.427429 127.138746,133.104374 C128.335411,132.781319 129.456987,132.225608 130.438841,131.469117 C131.420696,130.71215 132.244294,129.769153 132.862587,128.693888 C133.480404,127.618149 133.881035,126.431552 134.040717,125.201183 C134.200874,123.970815 134.116756,122.721415 133.794541,121.523399 C133.47185,120.325384 132.916765,119.203017 132.160651,118.219579 C131.405013,117.236616 130.463079,116.412089 129.388552,115.793098 L129.345305,115.793098 Z M92.4159797,79.6085578 L79.1100929,92.8638047 C78.65671,93.2929588 78.0645557,93.5446467 77.4415106,93.5736693 L73.5369043,93.5736693 C72.9119582,93.5389373 72.3183782,93.2877252 71.8573914,92.8638047 L58.5624352,79.6085578 C58.1522995,79.1494295 57.909925,78.5642194 57.8752321,77.9490351 L57.8752321,74.029079 C57.9056478,73.4062822 58.1480223,72.8129838 58.5624352,72.3476704 L71.8573914,59.0158228 C72.3193287,58.594757 72.9129087,58.3478269 73.5369043,58.3169012 L77.4415106,58.3169012 C78.0626547,58.3440207 78.6543337,58.5919023 79.1100929,59.0158228 L92.4159797,72.3148415 C92.8299174,72.7801549 93.0722919,73.3739291 93.1031828,73.9962501 L93.1031828,77.9162063 C93.0756186,78.5428093 92.8332441,79.1408655 92.4159797,79.6085578 L92.4159797,79.6085578 Z M81.803777,75.9179279 C81.761005,75.2927522 81.5162542,74.698978 81.1061185,74.2255763 L77.2233735,70.3931638 C76.7680896,69.9754284 76.1821135,69.7284983 75.5652465,69.6942421 L75.4126931,69.6942421 C74.7963014,69.7284983 74.2103253,69.9754284 73.7550414,70.3931638 L69.9050883,74.2255763 C69.4892496,74.694696 69.2468751,75.2918006 69.2178852,75.9179279 L69.2178852,76.0601862 C69.2454493,76.6767979 69.4887743,77.2643869 69.9050883,77.7197089 L73.7550414,81.5740074 C74.2117511,81.9893638 74.7967767,82.2358181 75.4126931,82.272929 L75.5652465,82.272929 C76.1821135,82.2386728 76.7680896,81.9917427 77.2233735,81.5740074 L81.0842573,77.7197089 C81.5034227,77.2629595 81.7567278,76.6782252 81.803777,76.0601862 L81.803777,75.9179279 Z M21.6331579,36.1521872 L53.6436579,54.6481571 C55.0793706,55.4769669 56.7075572,55.9132581 58.3647336,55.9132581 C60.0223854,55.9132581 61.650572,55.4779185 63.0867599,54.6495845 C64.5224726,53.8212505 65.716286,52.6294201 66.5470128,51.1939901 C67.3782149,49.7585601 67.8178158,48.1294874 67.822093,46.4699648 L67.822093,9.4775491 C67.822093,6.97541905 66.8293079,4.57596244 65.0618747,2.80677236 C63.2949168,1.03758228 60.8977852,0.043676657 58.3989512,0.043676657 C55.899642,0.043676657 53.5029856,1.03758228 51.7355525,2.80677236 C49.9685946,4.57596244 48.9758095,6.97541905 48.9758095,9.4775491 L48.9758095,30.2230096 L31.0453215,19.8176884 C29.9712696,19.1986979 28.7860106,18.7980906 27.5570292,18.6377526 C26.3280477,18.4778903 25.0795812,18.5616277 23.8829164,18.8846827 C21.4663947,19.5365021 19.4075894,21.1232303 18.1594556,23.2951686 C16.9113217,25.467107 16.5760845,28.0463135 17.2275492,30.4656577 C17.8789664,32.885002 19.4637157,34.9460834 21.6331579,36.1954832 L21.6331579,36.1521872 Z M91.8922606,55.882332 C93.7932373,56.0374364 95.6961151,55.606855 97.3456877,54.6481571 L129.345305,36.1521872 C130.419356,35.5331967 131.36129,34.7086689 132.116929,33.7257062 C132.873042,32.7422678 133.428127,31.6199014 133.750818,30.4218859 C134.073509,29.2238704 134.157152,27.9744706 133.996995,26.744102 C133.837313,25.5137335 133.436682,24.3266609 132.818864,23.2513968 C132.200572,22.1761327 131.377449,21.2331356 130.395119,20.4761687 C129.413264,19.7196776 128.291688,19.1639659 127.095499,18.8409109 C125.898834,18.5178559 124.650367,18.4341185 123.421386,18.5939807 C122.192404,18.7543188 121.007145,19.1549261 119.933093,19.7739166 L102.013536,30.1792378 L102.013536,9.43377729 C102.013536,6.93164723 101.020751,4.53228578 99.2537931,2.7630957 C97.4863599,0.993905626 95.0897035,0 92.5903943,0 C90.0910851,0 87.6944287,0.993905626 85.9274708,2.7630957 C84.1600377,4.53228578 83.1672518,6.93164723 83.1672518,9.43377729 L83.1672518,46.4699648 C83.1663021,48.8517224 84.0649888,51.1459363 85.6836705,52.8915752 C87.301877,54.6372142 89.5198416,55.7058174 91.8922606,55.882332 L91.8922606,55.882332 Z M59.1075403,96.139554 C57.2065636,95.9782643 55.3017849,96.4093215 53.6545885,97.373253 L21.6331579,115.793098 C20.5589635,116.412089 19.6170295,117.236616 18.8611061,118.219579 C18.1051827,119.203017 17.5500975,120.325384 17.2275492,121.523399 C16.9049535,122.721415 16.821263,123.970815 16.9811351,125.201183 C17.1410548,126.431552 17.541448,127.618149 18.1594556,128.693888 C18.7774631,129.769153 19.6010138,130.71215 20.5830583,131.469117 C21.5651029,132.225608 22.6864416,132.781319 23.8829164,133.104374 C25.0795812,133.427429 26.3280477,133.511167 27.5570292,133.350829 C28.7860106,133.190966 29.9712696,132.789883 31.0453215,132.171369 L48.9758095,121.820286 L48.9758095,142.566223 C48.9758095,145.067877 49.9685946,147.467714 51.7355525,149.236666 C53.5029856,151.006094 55.899642,152 58.3989512,152 C60.8977852,152 63.2949168,151.006094 65.0618747,149.236666 C66.8293079,147.467714 67.822093,145.067877 67.822093,142.566223 L67.822093,105.485788 C67.8092614,103.1164 66.9053469,100.838839 65.2904672,99.1069974 C63.6755874,97.3746803 61.4680782,96.315117 59.1075403,96.139554 L59.1075403,96.139554 Z M50.3825323,78.8116253 C50.6961934,77.8200986 50.8397172,76.7828969 50.8078758,75.7433164 C50.7774602,75.0049049 50.6643521,74.2726786 50.4699772,73.5594835 C49.8212689,71.1701135 48.2524878,69.1361515 46.1072356,67.9038798 L14.1840379,49.3089475 C12.0146433,48.0581204 9.43767918,47.7212677 7.02006447,48.3721355 C4.60244976,49.0234791 2.54221868,50.6092558 1.29265914,52.7811941 C0.0430520733,54.9531325 -0.293563385,57.5328148 0.35685581,59.9531106 C1.00727501,62.3734064 2.59145398,64.436391 4.76089617,65.6872181 L22.636541,76.0383003 L4.71726876,86.3127819 C2.54782656,87.5693184 0.965976286,89.6375366 0.319644191,92.0621144 C-0.326687905,94.4862164 0.015440386,97.0687534 1.27084543,99.2406918 C2.52620295,101.412154 4.59194686,102.996028 7.01364867,103.643089 C9.43535048,104.290151 12.0146433,103.947589 14.1840379,102.690577 L46.1290968,84.1289491 C48.1930823,82.9523437 49.7304972,81.0306659 50.4262547,78.7569106 L50.3825323,78.8116253 Z" id="Shape"></path>
            </g>
            <g id="Databricks" transform="translate(2710.000000, 638.000000)" fill="#FF3621" fill-rule="nonzero">
                <polygon id="Path" points="143.052378 67.1045623 75.3866299 105.190282 3.40600276 64.6107393 0 66.4241148 0 95.8961285 75.3866299 138.516323 143.052378 100.429912 143.052378 116.072607 75.3866299 154.159018 3.40600276 113.578784 0 115.39285 0 120.379805 75.3866299 163 151 120.379805 151 90.9084825 147.594073 89.0944163 75.3866299 129.67465 7.9471399 91.5882393 7.9471399 76.1728211 75.3866299 114.031955 151 71.4117607 151 42.393609 147.139904 40.3536479 75.3866299 80.7066051 11.5800827 44.6608463 75.3866299 8.8416732 128.065472 38.3129961 132.834597 35.8191731 132.834597 32.1917315 75.3866299 0 0 42.393609 0 46.9280837 75.3866299 89.5482783 143.052378 51.4618677"></polygon>
            </g>
            <g id="Cube" transform="translate(1099.000000, 0.000000)" fill-rule="nonzero">
                <polygon id="Path" fill="#FF6492" points="136 39.1084724 68 0 68 27.0598205 136 66"></polygon>
                <polygon id="Path" fill="#141446" points="137 67.1430625 116.533316 79 68.7650398 51.5244076 41.4706016 67.1644903 21 56.1742534 68.7769622 28"></polygon>
                <polygon id="Path" fill="#A14474" points="42 67.0738636 21 56 21 79"></polygon>
                <polygon id="Path" fill="#141446" points="1 117.286948 69.0002857 78 137 117.286948 69.0002857 157"></polygon>
                <polygon id="Path" fill="#FF6492" points="136 89.5209726 68 49 68 77.4050996 136 117"></polygon>
                <polygon id="Path" fill="#7A77FF" points="20.3963271 78.1404891 20.3963271 55.3316702 68 27.17957 68 0 0 39.2815417 0 117 67.9881209 78.1404891 67.9881209 50.2633569"></polygon>
            </g>
            <g id="BigQuery" transform="translate(2080.000000, 159.000000)" fill-rule="nonzero">
                <path d="M34.1423278,128.103208 L1.31624082,71.4109655 C-0.438746941,68.3814738 -0.438746941,64.6433291 1.31624082,61.6138374 L34.1423278,4.89679241 C35.8937629,1.87084399 39.1301877,0.00708653026 42.6685841,0 L108.366942,0 C111.859154,0.0177163257 115.081369,1.87793052 116.822146,4.89679241 L149.683759,61.6173806 C151.438747,64.6468723 151.438747,68.3850171 149.683759,71.4145087 L116.78662,128.103208 C115.035185,131.129156 111.79876,132.992913 108.260364,133 L42.5726637,133 C39.0768986,132.98937 35.8511317,131.122069 34.0996965,128.103208 L34.1423278,128.103208 Z" id="Path" fill="#4386FA"></path>
                <path d="M96.4011312,48 C96.4011312,48 105.528192,69.8821023 93.0876885,82.2897727 C80.6471852,94.6974432 58,86.7535511 58,86.7535511 L104.072124,133 L108.749298,133 C112.250965,132.992898 115.486277,131.125 117.272624,128.09233 L139,90.4715909 L96.4011312,48 Z" id="Path" fill="#000000" opacity="0.1"></path>
                <path d="M107.506767,92.6113841 L97.4306555,82.5496829 C97.3224438,82.436858 97.1982663,82.3407611 97.0616712,82.2649513 C101.319183,76.7311936 103.314182,69.7776932 102.640786,62.8202777 C101.967035,55.8628622 98.675623,49.4247259 93.4360449,44.8163457 C88.1964669,40.2079655 81.4028969,37.7760021 74.4390265,38.0162444 C67.4748013,38.2561307 60.8639496,41.1493592 55.9518452,46.1076033 C45.7586519,56.4113264 45.3080652,72.9186381 54.9300423,83.7277597 C59.5689564,88.9443977 66.0137651,92.1938965 72.9549288,92.815679 C79.8960925,93.4378175 86.8127755,91.3859707 92.3003536,87.0769146 C92.3734409,87.2064674 92.4628486,87.3260547 92.5664481,87.432829 L102.64256,97.5407992 C102.788734,97.6874359 102.962228,97.803464 103.153461,97.882477 C103.344694,97.9611341 103.549765,98.0013524 103.756609,97.9999653 C104.17349,97.9985051 104.573341,97.8337167 104.870658,97.5407992 L107.542246,94.8607634 C107.688421,94.7141267 107.804083,94.5397286 107.882847,94.3478907 C107.961257,94.1560528 108.001348,93.9506902 107.999965,93.7431921 C107.99851,93.3249926 107.834241,92.923877 107.542246,92.6256207 L107.506767,92.6113841 Z M75.4086749,86.076795 C71.3328167,86.0757273 67.3492047,84.8627709 63.96058,82.590969 C60.5719552,80.3191671 57.9305238,77.0906672 56.3705005,73.3137032 C53.1773665,65.5903598 54.944234,56.6924988 60.8408881,50.784319 C63.7239333,47.8953615 67.3956825,45.9285783 71.3924219,45.1320418 C75.3891613,44.3355053 79.5317204,44.7455187 83.2964254,46.3097627 C87.0611303,47.8740067 90.2794546,50.522366 92.544451,53.9202812 C94.8094473,57.3185523 96.0196451,61.3140478 96.0221287,65.4017251 C96.0150328,76.8159013 86.7975194,86.0661176 75.4157707,86.0732359 L75.4086749,86.076795 Z M62.2387712,64.2983904 L62.2387712,72.8403369 C63.551504,75.1644582 65.4496448,77.0970737 67.7451533,78.4531077 L67.7451533,64.2805946 L62.2387712,64.2983904 Z M72.5277584,57.215693 L72.5277584,80.3038628 C74.3478448,80.6384224 76.2176021,80.6384224 78.0341406,80.3038628 L78.0341406,57.1801015 L72.5277584,57.215693 Z M88.4650449,72.8296595 L88.4650449,67.7756745 L82.9586628,67.7756745 L82.9586628,78.4317528 C85.2506234,77.0792779 87.1452162,75.15734 88.4650449,72.8367778 L88.4650449,72.8296595 Z" id="Shape" fill="#FFFFFF"></path>
            </g>
            <g id="Clickhouse" transform="translate(2418.000000, 378.000000)" fill-rule="nonzero">
                <polygon id="Path" fill="#E52421" points="0 138 21 138 21 159 0 159"></polygon>
                <path d="M135.207289,0 L135.207289,153 L115.924497,153 L115.924497,0 L135.207289,0 Z M96.641499,0 L96.641499,153 L77.358501,153 L77.358501,0 L96.641499,0 Z M174,62.1421674 L174,90.8576286 L154.717208,90.8576286 L154.717208,62.1421674 L174,62.1421674 Z M57.8487875,0 L57.8487875,153 L38.5657896,153 L38.5657896,0 L57.8487875,0 Z M19.282936,0 L19.282936,133.931024 L0,133.931024 L0,0 L19.282936,0 Z" id="Shape" fill="#FFCC03"></path>
            </g>
            <g id="Dbt" transform="translate(263.000000, 341.000000)" fill="#FF694A" fill-rule="nonzero">
                <path d="M137.880442,5.98913106 C141.265594,9.24413417 143.479085,13.5406096 144,18.2276521 C144,20.1806857 143.479085,21.4829728 142.307424,23.9565243 C141.135762,26.4304727 126.683552,51.4284296 122.386798,58.3289631 C119.913247,62.3652591 118.611357,67.1825303 118.611357,71.8695728 C118.611357,76.687241 119.913247,81.3742835 122.386798,85.4105794 C126.683552,92.3111129 141.135762,117.439299 142.307424,119.913247 C143.479085,122.387196 144,123.558857 144,125.511493 C143.479085,130.198933 141.395823,134.495289 138.01067,137.620381 C134.755747,141.005534 130.45939,143.218628 125.90218,143.609314 C123.949543,143.609314 122.647256,143.088399 120.303933,141.916738 C117.960213,140.745076 92.4413417,126.683552 85.5404111,122.386798 C85.0198933,122.126341 84.4989785,121.736052 83.8482319,121.475595 L49.7358534,101.294512 C50.5172257,107.804756 53.3814633,114.054146 58.0685057,118.611357 C58.9801067,119.522561 59.8913106,120.303933 60.9331403,121.084908 C60.1517681,121.475595 59.2405641,121.866281 58.4591919,122.386798 C51.5586583,126.683552 26.4303933,141.135762 23.9566434,142.307424 C21.4828537,143.479085 20.3110335,144 18.2278506,144 C13.540689,143.479085 9.24413417,141.395823 6.11935978,138.01067 C2.73417561,134.755747 0.520795732,130.45939 0,125.771951 C0.130198933,123.819314 0.65099665,121.866281 1.69259208,120.173704 C2.86438447,117.699756 17.3164879,92.5711733 21.6129633,85.6710369 C24.0867133,81.6347409 25.3888019,76.9473014 25.3888019,72.1300302 C25.3888019,67.312759 24.0867133,62.6257165 21.6129633,58.5894206 C17.3164879,51.4284296 2.73417561,26.300244 1.69259208,23.8262955 C0.65099665,22.1337193 0.130198933,20.1806857 0,18.2276521 C0.520795732,13.5406096 2.60398263,9.24413417 5.98913106,5.98913106 C9.24413417,2.60397866 13.540689,0.520795732 18.2278506,0 C20.1808048,0.130189007 22.133759,0.650984739 23.9566434,1.6925762 C26.0398263,2.60397866 44.3976674,13.2801522 54.1628355,19.0090244 L56.3763266,20.3109144 C57.1573018,20.8318293 57.8084453,21.2225154 58.3289631,21.4829728 L59.3707928,22.1337193 L94.1339179,42.7050912 C93.3525456,34.8933537 89.3166467,27.7323628 83.0668597,22.9150916 C83.8482319,22.5244055 84.7594359,22.1337193 85.5404111,21.6128045 C92.4413417,17.3164482 117.569527,2.73416767 120.043476,1.6925762 C121.736052,0.650984739 123.689086,0.130189007 125.771951,0 C130.329162,0.520795732 134.625518,2.60397866 137.880442,5.98913106 Z M73.8226064,81.2440548 L81.2440548,73.8226064 C82.2858844,72.7811737 82.2858844,71.2188263 81.2440548,70.1773936 L73.8226064,62.7559452 C72.7811737,61.7141156 71.2188263,61.7141156 70.1773936,62.7559452 L62.7559452,70.1773936 C61.7141156,71.2188263 61.7141156,72.7811737 62.7559452,73.8226064 L70.1773936,81.2440548 C71.0885975,82.1556557 72.7811737,82.1556557 73.8226064,81.2440548 Z" id="Shape"></path>
            </g>
        </g>
        <g id="Group" transform="translate(1556.000000, 860.000000)" font-family="Helvetica-Bold, Helvetica" font-size="180" font-weight="bold">
            <text id="ElixirNote">
                <tspan x="0" y="175" fill="#FFFFFF">ElixirNote</tspan>
                <tspan x="840.234375" y="175" fill="#000000"> </tspan>
            </text>
        </g>
        <g id="Group-7" transform="translate(468.000000, 1274.000000)">
            <g id="Group-2">
                <text id="Permissions" font-family="Helvetica" font-size="60" font-weight="normal" fill="#FFFFFF">
                    <tspan x="72" y="58">Permissions</tspan>
                </text>
                <g id="anquanchaxun" transform="translate(0.000000, 9.000000)" fill="#1296DB" fill-rule="nonzero">
                    <path d="M49.7425729,7.69245654 L27.6099079,0.23700984 C27.029586,0.0411365543 26.4175709,0 26.0062795,0 C25.5949881,0 24.982973,0.0411365543 24.4037716,0.236614296 L2.28967434,7.6858114 C0.962961366,8.1283458 0,9.45855957 0,10.848896 L0,41.8883248 C0,43.0274909 0.634824597,44.3233715 1.54376345,45.0395431 L23.9989629,62.3352491 L24.006566,62.3411032 C24.5639183,62.7659963 25.2718134,63 25.9997168,63 C26.7401054,63 27.4520021,62.7625946 28.0057529,62.3312146 L50.4423045,45.0499854 C51.3590867,44.3406963 51.999721,43.040623 51.999721,41.8883248 L51.999721,10.8647177 C52.0186416,9.48316239 51.0732875,8.15207843 49.7425729,7.69245654 L49.7425729,7.69245654 Z M48.1579924,41.8526468 C48.1420658,41.9177533 48.0872429,42.0291384 48.0449053,42.0826159 L25.9997968,59.0623616 L3.9615712,42.0879162 C3.91715268,42.0334103 3.85896843,41.9175159 3.84168123,41.849166 L3.84168123,11.1746659 L25.6385262,3.83226557 C25.6695792,3.82316807 25.8037951,3.79722039 26.0063595,3.79722039 C26.208924,3.79722039 26.3431399,3.82316807 26.369711,3.83084162 L48.1579924,11.1702358 L48.1579924,41.8526468 L48.1579924,41.8526468 Z M13.0682469,26.4598228 C13.0682469,32.4205886 17.9743718,37.2700346 24.0048053,37.2700346 C25.9565788,37.2700346 27.8688959,36.7500527 29.536631,35.7843721 L35.6526201,41.8297052 C36.0277365,42.200488 36.5192214,42.3857607 37.0108663,42.3857607 C37.5025112,42.3857607 37.993996,42.2004089 38.3691124,41.8297052 C39.119185,41.0882188 39.119185,39.8861612 38.3691124,39.1446749 L32.4664121,33.3101666 C34.0569951,31.3940734 34.9412837,28.9862401 34.9412837,26.4598228 C34.9412837,20.499057 30.0351588,15.6496901 24.0048053,15.6496901 C17.9743718,15.6496901 13.0682469,20.499057 13.0682469,26.4598228 L13.0682469,26.4598228 Z M31.0996825,26.4598228 C31.0996825,28.552645 30.1641725,30.5206336 28.5329326,31.8590747 C27.264724,32.8996713 25.6566938,33.4727351 24.0048053,33.4727351 C20.0926147,33.4727351 16.9098481,30.326738 16.9098481,26.4597437 C16.9098481,22.5928285 20.0926147,19.4468314 24.0048053,19.4468314 C27.9169159,19.4468314 31.0996825,22.5928285 31.0996825,26.4598228 Z" id="Shape"></path>
                </g>
            </g>
            <g id="Group-3" transform="translate(562.000000, 0.000000)">
                <text id="Scheduling" font-family="Helvetica" font-size="60" font-weight="normal" fill="#FFFFFF">
                    <tspan x="71" y="58">Scheduling</tspan>
                </text>
                <g id="richangguanli" transform="translate(0.000000, 9.000000)" fill="#1296DB" fill-rule="nonzero">
                    <path d="M19.2392416,51.0930308 L6.0574065,51.0930308 C2.71733674,51.0930308 0,48.4060265 0,45.1033241 L0,5.98963871 C0,2.68693629 2.71733674,0 6.0574065,0 L39.0860309,0 C42.4261007,0 45.1434374,2.68693629 45.1434374,5.98963871 L45.1434374,21.4699438 C45.1434374,22.3705264 44.4051315,23.1005724 43.4943596,23.1005724 C42.5835876,23.1005724 41.8452817,22.3705264 41.8452817,21.4699438 L41.8452817,5.98963871 C41.8452817,4.48517996 40.6074427,3.26125728 39.0860309,3.26125728 L6.0574065,3.26125728 C4.53592605,3.26125728 3.2981557,4.48524791 3.2981557,5.98963871 L3.2981557,45.1033241 C3.2981557,46.6078508 4.53599476,47.8317735 6.0574065,47.8317735 L19.2392416,47.8317735 C20.1500135,47.8317735 20.8883194,48.5618195 20.8883194,49.4624021 C20.8883194,50.3629847 20.1499448,51.0930308 19.2392416,51.0930308 Z M10.4441597,10.8707897 L35.7788053,10.8707897 L35.7788053,14.1320469 L10.4441597,14.1320469 L10.4441597,10.8707897 Z M10.4441597,23.9158867 L27.3999782,23.9158867 L27.3999782,27.177144 L10.4441597,27.177144 L10.4441597,23.9158867 Z M38.8380509,52 C32.1319384,52 26.6761017,46.605201 26.6761017,39.9741138 C26.6761017,33.3430265 32.1319384,27.9482275 38.8380509,27.9482275 C45.5441634,27.9482275 51,33.3430265 51,39.9741138 C51,46.605201 45.5441634,52 38.8380509,52 Z M38.8380509,30.9377134 C33.7989499,30.9377134 29.6994111,34.9913882 29.6994111,39.9741138 C29.6994111,44.9568393 33.7989499,49.0105142 38.8380509,49.0105142 C43.8771518,49.0105142 47.9766906,44.9568393 47.9766906,39.9741138 C47.9766906,34.9913882 43.8771518,30.9377134 38.8380509,30.9377134 Z M36.8734494,39.3323255 C36.791133,39.2183174 36.6594129,39.1532281 36.5166989,39.1532281 L34.0906306,39.1532281 C33.7338801,39.1532281 33.5252717,39.5548384 33.7338801,39.8425085 L37.7847024,45.3839961 C37.9603292,45.6228152 38.3171484,45.6228152 38.4927752,45.3839961 L44.7611262,36.80852 C44.9697346,36.52085 44.7611262,36.1192397 44.4043757,36.1192397 L41.9728104,36.1192397 C41.8300965,36.1192397 41.6983764,36.1843969 41.6160599,36.2983371 L38.1305965,41.0637134 C38.1303903,41.0637134 36.8734494,39.3323255 36.8734494,39.3323255 L36.8734494,39.3323255 Z" id="Shape"></path>
                </g>
            </g>
            <g id="Group-4" transform="translate(1171.000000, 0.000000)">
                <text id="Collaborate" font-family="Helvetica" font-size="60" font-weight="normal" fill="#FFFFFF">
                    <tspan x="73" y="58">Collaborate</tspan>
                </text>
                <g id="wenshuziliao" transform="translate(0.000000, 8.000000)" fill="#1296DB" fill-rule="nonzero">
                    <path d="M12.2710654,36.1363191 L31.6191918,36.1363191 L31.6191918,40.0857515 L12.2710654,40.0857515 L12.2710654,36.1363191 Z M12.2710654,22.3956678 L41.9954307,22.3956678 L41.9954307,26.3451002 L12.2710654,26.3451002 L12.2710654,22.3956678 Z M45.8884349,9.85597312 L44.5985598,9.85597312 L44.5985598,7.24062607 C44.5985598,3.24816131 41.4160349,0 37.5042469,0 L7.11156507,0 C3.19977701,0 0.0172520793,3.24816131 0.0172520793,7.24062607 L0.0172520793,9.85597312 L0,9.85597312 L0,54.741766 C0,58.7440221 3.19026418,62 7.11156507,62 L45.8884349,62 C49.8098164,62 53,58.7440221 53,54.741766 L53,17.1142071 C53,13.111951 49.8098164,9.85597312 45.8884349,9.85597312 Z M3.88687735,7.24062607 C3.88687735,5.42586188 5.33347226,3.9494324 7.11156507,3.9494324 L37.5042469,3.9494324 C39.2823397,3.9494324 40.7289346,5.42586188 40.7289346,7.24062607 L40.7289346,9.85597312 L3.88687735,9.85597312 L3.88687735,7.24062607 Z M49.0958706,54.741766 C49.0958706,56.5468212 47.6570149,58.0153518 45.8884349,58.0153518 L7.11156507,58.0153518 C5.34298509,58.0153518 3.90412943,56.5467389 3.90412943,54.741766 L3.90412943,13.8406213 L45.8884349,13.8406213 C47.6570149,13.8406213 49.0958706,15.3091519 49.0958706,17.1142071 L49.0958706,54.741766 Z" id="Shape"></path>
                </g>
            </g>
            <g id="Group-5" transform="translate(1763.000000, 0.000000)">
                <text id="Visualizations" font-family="Helvetica" font-size="60" font-weight="normal" fill="#FFFFFF">
                    <tspan x="70" y="58">Visualizations</tspan>
                </text>
                <g id="renyuanpeixun" transform="translate(0.000000, 10.000000)" fill="#1296DB" fill-rule="nonzero">
                    <path d="M11.1928781,14.72822 L35.9634392,14.72822 L35.9634392,17.9910672 L11.1928781,17.9910672 L11.1928781,14.72822 Z M11.1928781,27.2437539 L27.7711658,27.2437539 L27.7711658,30.506601 L11.1928781,30.506601 L11.1928781,27.2437539 Z M45.1089962,4.73880962 L26.6303912,4.73880962 L26.6303912,0 L23.3696767,0 L23.3696767,4.73880962 L4.89107176,4.73880962 C2.1941212,4.73880962 0,6.93436586 0,9.63308031 L0,35.6017407 C0,38.3004552 2.1941212,40.4960114 4.89107176,40.4960114 L23.3984118,40.4960114 L23.3984118,42.8176631 L14.6636369,48.2252204 L16.3791803,51 L25.1799846,45.5515211 L33.9808569,51 L35.6964003,48.2252204 L26.6591263,42.6303893 L26.6591263,40.4960114 L45.1089282,40.4960114 C47.8058788,40.4960114 50,38.3004552 50,35.6017407 L50,9.63308031 C50,6.93436586 47.8059467,4.73880962 45.1089962,4.73880962 Z M46.7393534,35.6017407 C46.7393534,36.5012669 46.0079344,37.2331643 45.1089962,37.2331643 L4.89107176,37.2331643 C3.99206559,37.2331643 3.2607145,36.5012669 3.2607145,35.6017407 L3.2607145,9.63308031 C3.2607145,8.73355414 3.99206559,8.00165675 4.89107176,8.00165675 L45.1089282,8.00165675 C46.0078665,8.00165675 46.7393534,8.73355414 46.7393534,9.63308031 L46.7393534,35.6017407 L46.7393534,35.6017407 Z" id="Shape"></path>
                </g>
            </g>
            <g id="Group-6" transform="translate(2440.000000, 0.000000)">
                <text id="Comments" font-family="Helvetica" font-size="60" font-weight="normal" fill="#FFFFFF">
                    <tspan x="74" y="58">Comments</tspan>
                </text>
                <g id="a-saomashenfen_huaban1" transform="translate(0.000000, 16.000000)" fill="#1296DB" fill-rule="nonzero">
                    <path d="M26.954916,28.8038658 C21.2400531,28.8038658 16.5907093,24.2083992 16.5907093,18.559761 C16.5907093,12.9111228 21.2400531,8.3156563 26.954916,8.3156563 C32.6697788,8.3156563 37.3191938,12.9111228 37.3191938,18.559761 C37.3191938,24.2083992 32.6697077,28.8038658 26.954916,28.8038658 Z M26.954916,11.6894043 C23.1222046,11.6894043 20.0040112,14.7714637 20.0040112,18.559761 C20.0040112,22.3480583 23.1222046,25.4301177 26.954916,25.4301177 C30.7876984,25.4301177 33.9058919,22.3480583 33.9058919,18.559761 C33.9058919,14.7714637 30.7876984,11.6894043 26.954916,11.6894043 Z M41.8733207,39.9973994 L38.4600188,39.9973994 C38.4600188,33.7515375 33.3190884,28.670181 27,28.670181 C20.6809116,28.670181 15.5399812,33.7515375 15.5399812,39.9973994 L12.1266793,39.9973994 C12.1266793,31.8912669 18.7988312,25.296433 27,25.296433 C35.2011688,25.296433 41.8733207,31.8912669 41.8733207,39.9973994 Z M3.41330187,14.5704446 L0,14.5704446 L0,5.02807942 C0,2.59392022 2.0036082,0.613530135 4.4663055,0.613530135 L15.4395732,0.613530135 L15.4395732,3.98727816 L4.4663055,3.98727816 C3.88568863,3.98727816 3.41330187,4.45419083 3.41330187,5.02807942 L3.41330187,14.5704446 L3.41330187,14.5704446 Z M54,15.2605869 L50.586627,15.2605869 L50.586627,4.41454929 C50.586627,3.84066069 50.1142403,3.37374802 49.5336234,3.37374802 L39.8793835,3.37374802 L39.8793835,0 L49.5336945,0 C51.9963918,0 54,1.98039009 54,4.41454929 L54,15.2605869 L54,15.2605869 Z M49.5336945,49.3864699 L38.5604268,49.3864699 L38.5604268,46.0127218 L49.5336234,46.0127218 C50.1142403,46.0127218 50.586627,45.5457389 50.586627,44.9718503 L50.586627,35.4295554 L53.9999289,35.4295554 L53.9999289,44.9718503 C53.9999289,47.4060798 51.9963918,49.3864699 49.5336945,49.3864699 Z M14.1205454,50 L4.4663055,50 C2.0036082,50 0,48.0196099 0,45.5853804 L0,34.7392725 L3.41330187,34.7392725 L3.41330187,45.5853101 C3.41330187,46.1591987 3.88568863,46.6261817 4.4663055,46.6261817 L14.1205454,46.6261817 L14.1205454,50 Z" id="Shape"></path>
                </g>
            </g>
        </g>
        <g id="elixirnote2" transform="translate(1278.000000, 876.000000)" fill="#288ED7" fill-rule="nonzero">
            <path d="M104.978767,0 L0,184 L60.7405829,184 C65.9279305,183.273637 69.942902,181.744263 72.785497,179.411879 C75.6280923,177.079495 79.8820163,171.824139 85.547269,163.645811 L140,68.8893071 L104.978767,0 Z" id="Path-5"></path>
            <path d="M153.139542,90 L122.902244,144.772122 C121.467865,148.671921 120.564643,151.408648 120.192576,152.982302 C119.490282,155.952655 119.100897,158.22952 119.024422,159.8129 C118.720695,166.101424 121.320518,170.443752 122.902244,173.247653 C125.556096,177.952095 132.524719,181.647497 144.693202,184 L205,184 L153.139542,90 Z" id="Path-6"></path>
        </g>
    </g>
</svg>
