<?xml version="1.0" encoding="UTF-8"?>
<svg width="2838px" height="1148px" viewBox="0 0 2838 1148" version="1.1" xmlns="http://www.w3.org/2000/svg" xmlns:xlink="http://www.w3.org/1999/xlink">
    <title>elixir-ecosystem</title>
    <g id="elixir-ecosystem" stroke="none" stroke-width="1" fill="none" fill-rule="evenodd">
        <g id="airflow" transform="translate(2257.628930, 552.625687)" fill-rule="nonzero">
            <path d="M2.54678638,157.374708 L78.1948804,79.8279412 C78.6768433,79.351729 78.7480618,78.5984804 78.3638924,78.0403685 C73.7638968,71.6177938 65.2749368,70.5039856 62.1296678,66.1882684 C52.8114526,53.4046579 50.4471796,46.1688031 46.4429413,46.617066 C46.1634399,46.6572267 45.9064259,46.7928136 45.7154726,47.0008399 L18.3890378,75.0156993 C2.66775009,91.1192383 0.40800343,126.614211 0,156.338455 C-0.00261859889,156.943466 0.362865847,157.489295 0.923260975,157.717267 C1.4836561,157.945239 2.12635885,157.809547 2.54678638,157.374497 L2.54678638,157.374708 Z" id="Path" fill="#017CEE"></path>
            <path d="M157.366729,155.461107 L79.8236766,79.8037051 C79.34709,79.3202234 78.5920994,79.2489423 78.0334549,79.6346844 C71.6112052,84.2376525 70.4974533,92.7243024 66.1819544,95.8697306 C53.3989908,105.188417 46.1635022,107.553021 46.6117426,111.557251 C46.6525026,111.835788 46.7880348,112.091756 46.9954971,112.282017 L75.0089388,139.609835 C91.1116626,155.332129 126.604839,157.59199 156.32779,158 C156.929641,158 157.471863,157.636448 157.699731,157.079373 C157.927599,156.522298 157.795823,155.882723 157.366308,155.461107 L157.366729,155.461107 Z" id="Path" fill="#00AD46"></path>
            <path d="M75.0091494,139.617632 C66.2064001,131.029191 62.1269282,114.039874 78.997161,79.0066525 C51.5716791,91.2642335 41.9609591,107.375781 46.687187,111.989497 L75.0091494,139.617632 Z" id="Path" fill="#04D659"></path>
            <path d="M155.450486,0.636068492 L79.8051317,78.1826241 C79.3220299,78.6582733 79.2506457,79.4123344 79.6359088,79.9701968 C84.238644,86.3927715 92.7221248,87.5065797 95.8701334,91.8225075 C105.188349,104.605907 107.555572,111.841762 111.557071,111.39371 C111.836586,111.35382 112.093574,111.218094 112.284118,111.009725 L139.610553,82.9948658 C155.332262,66.8915377 157.592009,31.3965653 158,1.67211036 C158.001015,1.06721689 157.634883,0.522217569 157.074516,0.294502018 C156.514149,0.0667864666 155.871662,0.201914493 155.450486,0.636068492 L155.450486,0.636068492 Z" id="Path" fill="#00C7D4"></path>
            <path d="M139.62404,82.9950767 C131.036033,91.7982715 114.047576,95.8777392 79.0133879,79.0066525 C91.270138,106.433733 107.38087,116.04494 111.994353,111.318472 L139.62404,82.9950767 Z" id="Path" fill="#11E1EE"></path>
            <path d="M0.628014112,2.54966902 L78.1706455,78.1988517 C78.6468336,78.6808391 79.400044,78.7520611 79.9581276,78.3678725 C86.3803772,73.7651152 87.4941291,65.2782544 91.809628,62.1328261 C104.592592,52.8141394 111.82808,50.4497466 111.37984,46.4453057 C111.339004,46.1660711 111.203533,45.9093252 110.996085,45.7180111 L82.9826437,18.3901933 C66.8801305,2.66768839 31.3867437,0.407827367 1.66379287,0 C1.05761186,-0.00369277815 0.510320399,0.362277574 0.282156002,0.923919987 C0.0539916049,1.4855624 0.190992284,2.12955112 0.628014112,2.54966902 Z" id="Path" fill="#E43921"></path>
            <path d="M82.996131,18.3927222 C91.7988803,26.9813746 95.8783523,43.9706914 79.0079086,79.0066525 C106.433601,66.7492822 116.044321,50.6352059 111.318304,46.0240186 L82.996131,18.3927222 Z" id="Path" fill="#FF7557"></path>
            <path d="M18.3890378,75.0184391 C26.9772555,66.2150334 43.9657126,62.135355 78.9999006,79.0066525 C66.7431505,51.5797827 50.6324186,41.9685762 46.018725,46.6948324 L18.3890378,75.0184391 Z" id="Path" fill="#0CB6FF"></path>
            <path d="M75.6291415,78.9931646 C75.6291415,80.8608137 77.1430937,82.3748425 79.0106483,82.3748425 C80.8782029,82.3748425 82.392155,80.8608137 82.392155,78.9931646 C82.392155,77.1255155 80.8782029,75.6114867 79.0106483,75.6114867 C77.1430937,75.6114867 75.6291415,77.1255155 75.6291415,78.9931646 L75.6291415,78.9931646 Z" id="Path" fill="#4A4848"></path>
        </g>
        <g id="presto" transform="translate(773.000000, 771.000195)" fill-rule="nonzero">
            <path d="M94.047619,9.4047619 C94.047619,14.577381 98.2797619,18.8095238 103.452381,18.8095238 C108.625,18.8095238 112.857143,14.577381 112.857143,9.4047619 C112.857143,4.23214286 108.625,8.35310657e-15 103.452381,8.35310657e-15 C98.2797619,8.35310657e-15 94.047619,4.23214286 94.047619,9.4047619 Z" id="Path" fill="#5B94FC"></path>
            <path d="M92.1666667,55.4880952 C92.1666667,61.225 96.775,65.8333333 102.511905,65.8333333 C108.24881,65.8333333 112.857143,61.225 112.857143,55.4880952 C112.857143,49.7511905 108.24881,45.1428571 102.511905,45.1428571 C96.775,45.1428571 92.1666667,49.7511905 92.1666667,55.4880952 Z" id="Path" fill="#34E3FD"></path>
            <path d="M116.619048,31.9761905 C116.619048,37.1488095 120.85119,41.3809524 126.02381,41.3809524 C131.196429,41.3809524 135.428571,37.1488095 135.428571,31.9761905 C135.428571,26.8035714 131.196429,22.5714286 126.02381,22.5714286 C120.85119,22.5714286 116.619048,26.8035714 116.619048,31.9761905 Z M139.190476,55.4880952 C139.190476,61.225 143.79881,65.8333333 149.535714,65.8333333 C155.272619,65.8333333 159.880952,61.225 159.880952,55.4880952 C159.880952,49.7511905 155.272619,45.1428571 149.535714,45.1428571 C143.79881,45.1428571 139.190476,49.7511905 139.190476,55.4880952 Z M159.880952,79.9404762 C159.880952,86.7119048 165.335714,92.1666667 172.107143,92.1666667 C178.878571,92.1666667 184.333333,86.7119048 184.333333,79.9404762 C184.333333,73.1690476 178.878571,67.7142857 172.107143,67.7142857 C165.335714,67.7142857 159.880952,73.1690476 159.880952,79.9404762 L159.880952,79.9404762 Z" id="Shape" fill="#5B94FC"></path>
            <path d="M114.738095,79 C114.738095,85.2071429 119.816667,90.2857143 126.02381,90.2857143 C132.230952,90.2857143 137.309524,85.2071429 137.309524,79 C137.309524,72.7928571 132.230952,67.7142857 126.02381,67.7142857 C119.816667,67.7142857 114.738095,72.7928571 114.738095,79 L114.738095,79 Z M137.309524,102.511905 C137.309524,109.283333 142.764286,114.738095 149.535714,114.738095 C156.307143,114.738095 161.761905,109.283333 161.761905,102.511905 C161.761905,95.7404762 156.307143,90.2857143 149.535714,90.2857143 C142.764286,90.2857143 137.309524,95.7404762 137.309524,102.511905 Z M69.5952381,31.9761905 C69.5952381,37.1488095 73.827381,41.3809524 79,41.3809524 C84.172619,41.3809524 88.4047619,37.1488095 88.4047619,31.9761905 C88.4047619,26.8035714 84.172619,22.5714286 79,22.5714286 C73.827381,22.5714286 69.5952381,26.8035714 69.5952381,31.9761905 Z M47.0238095,8.46428571 C47.0238095,13.1666667 50.7857143,16.9285714 55.4880952,16.9285714 C60.1904762,16.9285714 63.952381,13.1666667 63.952381,8.46428571 C63.952381,3.76190476 60.1904762,6.68248525e-15 55.4880952,6.68248525e-15 C50.7857143,6.68248525e-15 47.0238095,3.76190476 47.0238095,8.46428571 Z" id="Shape" fill="#34E3FD"></path>
            <path d="M47.0238095,102.511905 C47.0238095,107.214286 50.7857143,110.97619 55.4880952,110.97619 C60.1904762,110.97619 63.952381,107.214286 63.952381,102.511905 C63.952381,97.8095238 60.1904762,94.047619 55.4880952,94.047619 C50.7857143,94.047619 47.0238095,97.8095238 47.0238095,102.511905 Z M69.5952381,125.083333 C69.5952381,129.785714 73.3571429,133.547619 78.0595238,133.547619 C82.7619048,133.547619 86.5238095,129.785714 86.5238095,125.083333 C86.5238095,120.380952 82.7619048,116.619048 78.0595238,116.619048 C73.3571429,116.619048 69.5952381,120.380952 69.5952381,125.083333 Z M94.047619,149.535714 C94.047619,154.238095 97.8095238,158 102.511905,158 C107.214286,158 110.97619,154.238095 110.97619,149.535714 C110.97619,144.833333 107.214286,141.071429 102.511905,141.071429 C97.8095238,141.071429 94.047619,144.833333 94.047619,149.535714 Z M24.452381,125.083333 C24.452381,129.785714 28.2142857,133.547619 32.9166667,133.547619 C37.6190476,133.547619 41.3809524,129.785714 41.3809524,125.083333 C41.3809524,120.380952 37.6190476,116.619048 32.9166667,116.619048 C28.2142857,116.619048 24.452381,120.380952 24.452381,125.083333 Z M47.0238095,149.535714 C47.0238095,154.238095 50.7857143,158 55.4880952,158 C60.1904762,158 63.952381,154.238095 63.952381,149.535714 C63.952381,144.833333 60.1904762,141.071429 55.4880952,141.071429 C50.7857143,141.071429 47.0238095,144.833333 47.0238095,149.535714 Z M6.68248525e-15,149.535714 C6.68248525e-15,154.238095 3.76190476,158 8.46428571,158 C13.1666667,158 16.9285714,154.238095 16.9285714,149.535714 C16.9285714,144.833333 13.1666667,141.071429 8.46428571,141.071429 C3.76190476,141.071429 6.68248525e-15,144.833333 6.68248525e-15,149.535714 Z" id="Shape" fill="#5B94FC"></path>
            <path d="M1.88095238,9.4047619 C1.88095238,13.5428571 5.26666667,16.9285714 9.4047619,16.9285714 C13.5428571,16.9285714 16.9285714,13.5428571 16.9285714,9.4047619 C16.9285714,5.26666667 13.5428571,1.88095238 9.4047619,1.88095238 C5.26666667,1.88095238 1.88095238,5.26666667 1.88095238,9.4047619 Z M24.452381,32.9166667 C24.452381,37.6190476 28.2142857,41.3809524 32.9166667,41.3809524 C37.6190476,41.3809524 41.3809524,37.6190476 41.3809524,32.9166667 C41.3809524,28.2142857 37.6190476,24.452381 32.9166667,24.452381 C28.2142857,24.452381 24.452381,28.2142857 24.452381,32.9166667 Z M47.0238095,55.4880952 C47.0238095,60.1904762 50.7857143,63.952381 55.4880952,63.952381 C60.1904762,63.952381 63.952381,60.1904762 63.952381,55.4880952 C63.952381,50.7857143 60.1904762,47.0238095 55.4880952,47.0238095 C50.7857143,47.0238095 47.0238095,50.7857143 47.0238095,55.4880952 Z M67.7142857,79 C67.7142857,85.2071429 72.7928571,90.2857143 79,90.2857143 C85.2071429,90.2857143 90.2857143,85.2071429 90.2857143,79 C90.2857143,72.7928571 85.2071429,67.7142857 79,67.7142857 C72.7928571,67.7142857 67.7142857,72.7928571 67.7142857,79 Z M90.2857143,101.571429 C90.2857143,107.778571 95.3642857,112.857143 101.571429,112.857143 C107.778571,112.857143 112.857143,107.778571 112.857143,101.571429 C112.857143,95.3642857 107.778571,90.2857143 101.571429,90.2857143 C95.3642857,90.2857143 90.2857143,95.3642857 90.2857143,101.571429 L90.2857143,101.571429 Z M112.857143,125.083333 C112.857143,131.854762 118.311905,137.309524 125.083333,137.309524 C131.854762,137.309524 137.309524,131.854762 137.309524,125.083333 C137.309524,118.311905 131.854762,112.857143 125.083333,112.857143 C118.311905,112.857143 112.857143,118.311905 112.857143,125.083333 L112.857143,125.083333 Z" id="Shape" fill="#DDE4ED"></path>
        </g>
        <g id="yugabyte" transform="translate(318.000000, 771.000130)" fill-rule="nonzero">
            <path d="M156.55268,23.160236 C141.757968,8.28165904 121.624842,-0.0580421418 100.642836,0.0003041026 L100.642836,0.0003041026 C79.6608296,-0.0580421418 59.527704,8.28165904 44.7329919,23.160236 C29.853252,37.9559251 21.5134755,58.0911903 21.5736646,79.074592 C21.5598964,88.7755546 23.3403598,98.3951177 26.8250967,107.44814 C21.6904613,112.533517 16.8217465,117.880303 12.2383021,123.467566 C9.43499555,126.895649 6.85286312,130.498159 4.50769633,134.254166 C3.26849789,136.22636 2.20690856,138.304141 1.33544061,140.463787 C0.843210718,141.664779 0.470842784,142.910889 0.223753836,144.184908 C-0.107206394,145.748709 -0.0705840502,147.368327 0.330736066,148.915383 C0.430064881,149.300054 0.570410681,149.672631 0.749364045,150.027068 L0.860997677,150.264289 C0.903023088,150.352201 0.949602221,150.437322 1.00053972,150.520117 C1.23667276,150.930835 1.51242178,151.316902 1.82383775,151.673664 C2.51772915,152.469054 3.37639645,153.10397 4.34024588,153.534225 C5.81146088,154.152861 7.39610029,154.455202 8.99162397,154.422642 C11.4713325,154.344964 13.929226,153.93378 16.2989755,153.199324 C20.607336,151.889489 24.806435,150.243823 28.8577591,148.278141 C35.3336261,145.12263 41.6444614,141.638731 47.7657055,137.840396 C62.2678446,150.937347 81.1209045,158.175393 100.661441,158.148997 L100.661441,158.148997 C121.642983,158.205627 141.775643,149.86613 156.571286,134.989087 C171.449723,120.192515 179.78922,100.057994 179.731223,79.074592 C179.785965,58.0883994 171.43949,37.9528552 156.55268,23.160236 L156.55268,23.160236 Z M28.508904,111.508814 C31.8865191,119.021757 36.4226122,125.957461 41.9514539,132.063356 C35.9697517,135.72866 30.5508692,138.761374 25.4389791,141.310342 L25.4389791,141.310342 C21.804002,143.187182 18.0298549,144.781218 14.1500281,146.078028 C12.4185439,146.66457 10.6195679,147.028775 8.79626512,147.161805 C8.25312098,147.206923 7.70634875,147.153432 7.18222885,147.003657 C7.07524662,146.957143 7.01942981,146.924583 7.010127,146.924583 C6.99175397,146.902722 6.97463681,146.879 6.95896159,146.854812 C6.85035137,146.344554 6.85035137,145.81662 6.95896159,145.305896 C7.09296846,144.453759 7.31111918,143.617437 7.61015778,142.808093 C8.28623896,140.958696 9.1042344,139.164185 10.0567949,137.440376 C12.0662468,133.783444 14.3000823,130.253961 16.74551,126.872392 C20.303832,121.802365 24.0761185,116.97421 28.5042991,111.508814 L28.508904,111.508814 Z M73.1251456,120.72324 C81.2744007,114.704326 87.7956654,109.666859 93.6378255,104.866612 C100.070714,99.6477401 106.69896,93.9869847 113.359767,88.009934 L114.201671,87.2238471 C120.113602,81.6979823 126.225543,75.9767587 132.109566,70.2183238 C132.744017,69.5866635 132.784484,68.5731232 132.202594,67.8926232 C131.606749,67.2191003 130.592279,67.1200254 129.876893,67.6647045 C123.397491,72.6742637 116.950649,77.8977874 110.717771,82.9213009 L109.703766,83.7399475 C103.894165,88.3448349 97.6101222,93.1776408 89.367839,99.3965644 L88.6236148,99.9500812 C82.111653,104.778236 75.3857266,109.773841 68.6225891,114.471756 C61.0128965,119.820868 54.6916421,124.0769 48.849482,127.779415 C36.4242867,114.620136 29.5188628,97.1964516 29.5549965,79.097849 C29.5065831,60.2336257 37.0049211,42.1335347 50.379793,28.8302943 C63.6828009,15.4550037 81.783264,7.9565726 100.647487,8.00546297 C119.511245,7.95531673 137.611709,15.4520268 150.915182,28.8256429 C164.287495,42.1302322 171.784159,60.2299046 171.735344,79.0931976 C171.784624,97.9583511 164.288426,116.059745 150.915182,129.365543 C137.611243,142.739252 119.511245,150.237311 100.647487,150.190312 C83.8563936,150.20103 67.6053276,144.256074 54.7846701,133.412262 C61.0221993,129.305075 67.1853061,125.053694 73.1204942,120.72324 L73.1251456,120.72324 Z" id="Path_11" fill="#322965"></path>
            <path d="M199.996792,5.28491233 C199.996792,5.28491233 181.060937,2.26150147 174.739682,7.75480644 L163.14839,17.8297324 L162.073917,18.7600127 L161.529703,19.2251528 C161.529703,19.2251528 141.751944,17.9134577 137.472655,21.6299273 L133.067778,25.462682 L133.067778,25.462682 L131.435136,26.8581024 L129.672255,28.3930649 L129.207115,28.7837826 L138.370375,39.323858 C135.542323,41.7797979 137.570334,48.7429457 142.90084,54.8736787 C148.231346,61.0042257 154.840988,63.9811226 157.66904,61.5205313 L166.8323,72.0606067 L167.116036,71.8140824 L170.679009,68.7162491 L170.679009,68.7162491 L175.083886,64.8834944 C179.363175,61.1623734 180.814413,41.398383 180.814413,41.398383 L181.912143,40.4448457 L182.805212,39.6727131 L194.029044,29.9047703 C200.336344,24.4672821 199.996792,5.28491233 199.996792,5.28491233 Z M142.993868,35.3469099 L143.635762,34.7887417 L142.993868,35.3469099 Z M178.344518,43.589193 L177.721231,44.1287556 L178.344518,43.589193 Z" id="Path_12" fill="#ED5735"></path>
        </g>
        <g id="mongodb" transform="translate(1755.150904, 256.000000)" fill="#47A248" fill-rule="nonzero">
            <path d="M69.5316001,62.6707617 C61.2149986,26.0607422 41.5989283,14.0306777 39.4901528,9.42753901 C37.1740025,6.18329299 34.6659068,1.09634631e-15 34.6659068,1.09634631e-15 C34.6504771,0.123437466 34.6412193,0.202437543 34.6313443,0.320937505 L34.6313443,0.404874932 L34.6264068,0.404874932 C34.6135264,0.489947125 34.6052851,0.575657209 34.6017192,0.661625029 L34.6017192,0.760374971 L34.5862895,0.760374971 C34.5862895,0.824562534 34.5708598,0.878874932 34.5708598,0.933187486 L34.5708598,1.106 L34.5511098,1.106 C34.55,1.16083688 34.5433834,1.21542351 34.5313598,1.2689375 L34.5313598,1.40780467 L34.5159302,1.40780467 C34.5184788,1.45462785 34.5132652,1.50155014 34.5005005,1.54667184 L34.5005005,1.67998432 L34.4850708,1.67998432 C34.4846761,1.75102038 34.4795213,1.82195015 34.4696411,1.89229687 L34.4696411,1.90772657 C34.4498911,2.02128903 34.4301411,2.12991414 34.4103911,2.23853909 L34.4103911,2.29285149 L34.3949614,2.29285149 C34.38607,2.31855352 34.3794611,2.34498915 34.3752114,2.37185156 L34.3752114,2.48417964 L34.3554615,2.48417964 L34.3554615,2.62736713 L34.320899,2.62736713 L34.320899,2.74648443 L34.2863364,2.74648443 L34.2863364,2.8853516 L34.2616489,2.8853516 L34.2616489,3.00878907 L34.2369614,3.00878907 L34.2369614,3.12235153 L34.1974615,3.12235153 L34.1974615,3.21616412 L34.172774,3.21616412 L34.172774,3.33466408 L34.1480864,3.33466408 L34.1480864,3.42847652 L34.1135239,3.42847652 L34.1135239,3.5124141 L34.0937739,3.5124141 L34.0937739,3.61116404 L34.0690864,3.61116404 C34.0641489,3.61610155 34.0641489,3.63091406 34.0641489,3.63585156 L34.0641489,3.70003913 L34.044399,3.70003913 C34.040341,3.71279072 34.0386672,3.72618088 34.0394615,3.73953901 L34.0394615,3.77903905 L34.0240318,3.77903905 C34.0176088,3.80010689 34.0124563,3.8215413 34.0086021,3.84322661 C33.9888521,3.88766416 33.9641645,3.93703905 33.9444145,3.98209378 L33.9444145,3.99752348 C33.9289848,4.01295319 33.919727,4.03208602 33.909852,4.04196087 L33.909852,4.09627343 L33.8851646,4.09627343 L33.8851646,4.15058598 L33.8506021,4.15058598 L33.8506021,4.20489838 L33.8308521,4.20489838 L33.8308521,4.26908594 L33.791352,4.26908594 L33.791352,4.36289838 L33.7666645,4.36289838 L33.7666645,4.3875859 L33.741977,4.3875859 L33.741977,4.44189845 L33.7172896,4.44189845 L33.7172896,4.51596087 L33.6926021,4.51596087 L33.6926021,4.57027343 L33.653102,4.57027343 L33.653102,4.644336 L33.6284145,4.644336 L33.6284145,4.6986484 L33.593852,4.6986484 L33.593852,4.75296095 L33.5741021,4.75296095 L33.5741021,4.81714851 L33.5395396,4.81714851 L33.5395396,4.87146091 L33.5148521,4.87146091 L33.5148521,4.91096095 L33.4901645,4.91096095 L33.4901645,4.9652735 L33.4506645,4.9652735 L33.4506645,5.02452341 L33.425977,5.02452341 L33.425977,5.06402345 L33.3914146,5.06402345 L33.3914146,5.118336 L33.3667271,5.118336 L33.3667271,5.19239842 L33.3321645,5.19239842 L33.3321645,5.21708594 L33.3124145,5.21708594 L33.3124145,5.27139849 L33.2772348,5.27139849 L33.2772348,5.29608586 L33.2525474,5.29608586 L33.2525474,5.36027343 L33.2278599,5.36027343 L33.2278599,5.38496095 L33.2031724,5.38496095 L33.2031724,5.4392735 L33.169227,5.4392735 L33.169227,5.47753901 L33.149477,5.47753901 L33.1340473,5.50222654 L33.1340473,5.52691406 L33.1186176,5.52691406 C33.1136801,5.54234376 33.1031879,5.54234376 33.1031879,5.55160158 L33.1031879,5.55653909 L33.0982506,5.55653909 C33.0941868,5.57330981 33.0856554,5.58866629 33.073563,5.60097663 L33.073563,5.6207265 L33.0686255,5.6207265 C33.0389188,5.65787054 33.0124866,5.69751887 32.9896254,5.73922661 L32.9896254,5.74416412 C32.9674711,5.76320845 32.9475895,5.78474685 32.9303755,5.80835153 L32.9303755,5.82378123 L32.925438,5.82378123 C32.9205005,5.82871873 32.905688,5.83921093 32.905688,5.84353125 L32.905688,5.86328127 L32.8914927,5.86328127 L32.8717427,5.88303129 L32.8717427,5.88796879 L32.8668052,5.88796879 C32.8668052,5.8929063 32.8513755,5.90339849 32.8470552,5.91265632 L32.8470552,5.93734368 L32.8273051,5.93734368 L32.8118754,5.95277339 L32.8118754,5.96820309 L32.7964457,5.96820309 C32.7964457,5.98363279 32.781016,5.98363279 32.7810162,5.98795311 L32.7810162,6.00770313 L32.7563287,6.00770313 C32.7548137,6.01645335 32.7490226,6.02386595 32.740899,6.02745315 L32.740899,6.06695319 L32.7211489,6.06695319 L32.7211489,6.09164056 L32.6964614,6.09164056 L32.6964614,6.13114059 L32.6717739,6.13114059 L32.6717739,6.18545315 L32.6372114,6.18545315 L32.6372114,6.13114059 L32.602649,6.13114059 L32.602649,6.15582812 L32.5779614,6.15582812 L32.5779614,6.19532816 L32.5433989,6.19532816 L32.5433989,6.24964056 L32.5088364,6.24964056 L32.5088364,6.27432808 L32.4841489,6.27432808 L32.4841489,6.31382812 L32.4594615,6.31382812 L32.4594615,6.33851564 L32.434774,6.33851564 L32.434774,6.3928282 L32.3977427,6.3928282 L32.3977427,6.41751557 L32.3730552,6.41751557 L32.3730552,6.4570156 L32.3384926,6.4570156 L32.3384926,6.48170313 L32.3138051,6.48170313 L32.3138051,6.51626566 L32.2792427,6.51626566 L32.2792427,6.58045307 L32.263813,6.58045307 L32.263813,6.60514059 L32.224313,6.60514059 L32.224313,6.63970313 L32.1996254,6.63970313 L32.1996254,6.65513283 L32.1749379,6.65513283 L32.1749379,6.67982036 L32.1403755,6.67982036 L32.1403755,6.74400776 L32.115688,6.74400776 L32.115688,6.76869529 L32.0811255,6.76869529 L32.0811255,6.79338281 L32.056438,6.79338281 L32.056438,6.83288285 L32.0218754,6.83288285 L32.0218754,6.85757037 L31.9873131,6.85757037 L31.9873131,6.88225774 L31.9626255,6.88225774 L31.9626255,6.90694527 L31.937938,6.90694527 L31.937938,6.97113283 L31.9132505,6.97113283 L31.9132505,7.00569536 L31.8737504,7.00569536 L31.8737504,7.03038289 L31.8490629,7.03038289 L31.8490629,7.05507026 L31.8145005,7.05507026 L31.8145005,7.0945703 L31.789813,7.0945703 L31.789813,7.11925782 L31.7552505,7.11925782 L31.7552505,7.16369536 L31.730563,7.16369536 L31.730563,7.18838289 L31.6910629,7.18838289 L31.6910629,7.22788277 L31.6756334,7.22788277 L31.6756334,7.2525703 L31.6509458,7.2525703 L31.6509458,7.27725782 L31.6163833,7.27725782 L31.6163833,7.30194535 L31.5916958,7.30194535 L31.5916958,7.34144538 L31.5571333,7.34144538 L31.5571333,7.36613275 L31.5373832,7.36613275 C31.5340266,7.37056278 31.5322846,7.37600676 31.5324457,7.38156246 L31.5324457,7.39699216 L31.5170162,7.39699216 L31.4923287,7.42167968 C31.4849004,7.42920609 31.4766146,7.43583476 31.4676411,7.4414297 L31.4676411,7.48092974 L31.4429536,7.48092974 L31.4429536,7.51549212 L31.4182661,7.51549212 L31.4182661,7.54017964 L31.3935786,7.54017964 L31.3935786,7.56054685 L31.3738285,7.56054685 L31.3540787,7.58029687 L31.3540787,7.60004689 L31.338649,7.60004689 L31.3232193,7.61547659 L31.3232193,7.63522661 L31.3077896,7.63522661 C31.2807142,7.67336535 31.2492248,7.70816938 31.213977,7.73891406 C31.1985473,7.75434376 31.1596644,7.7833516 31.1349771,7.80310162 C31.0446403,7.86791917 30.9588557,7.93885643 30.8782271,8.01541402 C30.8277006,8.04960069 30.7798346,8.08756337 30.7350395,8.12897663 L30.7350395,8.13391414 L30.7301021,8.13391414 C30.623606,8.22009954 30.5166251,8.30568421 30.4091646,8.39066408 L30.4091646,8.39560158 C30.2511646,8.52891406 30.0981021,8.65235153 29.9201978,8.80556832 L29.9201978,8.80063081 L29.9047681,8.80063081 C29.5293637,9.11169331 29.1343638,9.45747263 28.6799594,9.84753521 L28.6799594,9.85247271 L28.6791879,9.85247271 C27.5682504,10.8253145 26.2445375,12.0797481 24.7628247,13.5909316 L24.6393872,13.7143691 C15.6861568,22.9794337 1.57169578,42.2842871 0.0851996282,73.4862012 C-0.0403255894,75.9954749 -0.02713882,78.5097669 0.124699667,81.0175859 L0.124699667,81.076836 C0.840791391,93.3688965 4.70268794,103.868336 9.52770561,112.392313 L9.52770561,112.39725 C11.3493098,115.615058 13.3870526,118.705619 15.6269067,121.647656 L15.6269067,121.652594 C22.8816372,131.233504 30.2895844,136.907926 32.1809555,138.285797 C35.0848228,145.02209 34.8132601,156.583246 34.8132603,156.583246 L39.0554986,158 C39.0554986,158 38.191436,146.799281 39.4062154,141.391484 C39.7816197,139.697613 40.670524,138.255555 41.7026157,137.030746 C43.5374041,135.723312 45.2905545,134.304942 46.9522583,132.78357 C47.0707583,132.660133 47.1349458,132.54657 47.2435708,132.428688 C57.258981,123.089869 75.9663969,100.095777 69.5511958,62.6366622 L69.5316001,62.6707617 Z" id="Path"></path>
        </g>
        <g id="minio" transform="translate(2631.962563, 615.403090)" fill="#DD113C" fill-rule="nonzero">
            <path d="M61.4609172,7.71107623 C61.4609172,7.71107623 76.9740472,32.6898447 82.1450904,41.5638809 C82.2438313,41.7013676 82.2438313,41.8865294 82.1450904,42.0240161 C82.0745672,42.1005272 81.9752555,42.1440518 81.8712004,42.1440518 C81.7671453,42.1440518 81.6678337,42.1005272 81.5973105,42.0240161 L54.7999123,14.0872355 L61.4609172,7.71107623 Z" id="Path"></path>
            <path d="M15.7760643,98.8397588 C20.3147434,89.2336497 26.4825658,80.486017 34.0061831,72.9845423 C36.8679773,70.1239291 39.9127538,67.4524305 43.1212425,64.9869542 L43.1212425,84.7070345 L15.7760643,98.8397588 Z M-5.68525212e-15,117.1137 L43.1212425,95.2024996 L43.1212425,145.379149 L52.8279042,158 L52.8279042,90.0752787 L58.7220171,87.0296217 C66.9887148,82.8650986 72.7964608,75.0335667 74.3811932,65.9137988 C75.9659256,56.7940309 73.1406143,47.4623418 66.7634277,40.7531664 L44.5673817,17.5492053 C42.7245849,15.5613613 42.832249,12.4586796 44.808405,10.6033546 C46.803622,8.75805871 49.9132281,8.86562373 51.7761666,10.8443779 L54.8875571,14.0872355 L61.4609172,7.68916506 C53.5947962,-2.52145439 43.9319568,-1.2286935 38.3884232,3.87661607 C32.7105576,9.22972763 32.436128,18.1682889 37.7749095,23.8596309 L60.2119788,47.2388818 C64.3382924,51.6652384 66.2419122,57.7200146 65.3908851,63.7112456 C64.539858,69.7024767 61.0254503,74.9876467 55.8297387,78.089852 L52.7840819,79.6674585 L52.7840819,47.9619513 C25.7295564,61.9002062 6.35579453,87.241312 -5.68525212e-15,117.004144 L-5.68525212e-15,117.1137 L-5.68525212e-15,117.1137 Z" id="Shape"></path>
            <polygon id="Path" points="52.8279042 90.0533674 52.8279042 100.307809 43.1212425 105.237829 43.1212425 95.0491211"></polygon>
        </g>
        <g id="hive" transform="translate(2105.982277, 203.600195)" fill-rule="nonzero">
            <path d="M105.056946,124.059259 L105.056946,158 L113.347069,158 L113.347069,142.395062 L115.102625,142.395062 L115.102625,158 L123.490279,158 L123.490279,124.059259 L115.102625,124.059259 L115.102625,136.640741 L113.347069,136.640741 L113.347069,124.059259 L105.056946,124.059259 L105.056946,124.059259 Z M133.926082,124.059259 L125.83102,124.059259 L125.83102,158 L133.926082,158 L133.926082,124.059259 L133.926082,124.059259 Z M135.193983,124.059259 L141.63102,158 L151.286576,158 L157.723613,124.059259 L149.140897,124.059259 L146.995218,138.591358 C146.800156,139.176543 146.214971,139.176543 146.11744,138.591358 L143.971761,124.059259 L135.193983,124.059259 Z M175.571761,124.059259 L159.479168,124.059259 L159.479168,158 L175.571761,158 L175.571761,149.124691 L166.598921,149.02716 L166.598921,145.223457 L170.890279,145.223457 L170.890279,136.348148 L166.598921,136.348148 L166.598921,132.934568 L175.571761,132.934568 L175.571761,124.059259 L175.571761,124.059259 Z" id="Shape" fill="#000000"></path>
            <path d="M88.5742299,21.0666667 C87.2087978,17.3604938 40.4915138,-0.780246914 39.9063286,1.17037037 C31.3236126,3.41358025 27.8125015,13.2641975 21.9606496,19.5061728 L8.89151383,18.7259259 C3.13719284,26.1382716 0.113736055,33.745679 2.1618842,41.5481481 C9.57422988,51.691358 18.1569459,60.2740741 23.4236126,72.8555556 C23.8137361,78.8049383 49.0742299,73.4407407 54.5359583,72.2703704 C47.1236126,77.537037 40.6865756,85.7296296 43.5149706,109.42963 C46.0507731,120.548148 47.8063286,132.934568 70.1408966,145.418519 C73.0668225,147.076543 79.2112669,149.02716 82.9174398,150.392593 C86.5260817,152.050617 90.7199089,152.733333 102.618674,149.124691 C109.543366,146.198765 116.955711,144.345679 123.685341,141.419753 L115.590279,141.809877 C104.471761,142.004938 95.7915138,142.882716 93.1581805,139.761728 L82.9174398,121.91358 L88.8668225,110.307407 C97.1569459,111.185185 99.8878101,117.914815 107.202625,120.450617 L115.785341,114.111111 C140.753242,128.838272 150.70139,104.748148 153.529785,86.0222222 C153.237193,78.4148148 136.949539,88.4604938 138.022378,84.8518519 C138.412501,76.6592593 131.682872,65.9308642 127.391514,57.5432099 L132.365588,38.1345679 C134.608798,36.0864198 121.832255,14.5320988 111.396452,11.8987654 C102.326082,9.46049383 88.5742299,21.0666667 88.5742299,21.0666667 Z" id="Path" fill="#FDEE21"></path>
            <path d="M129.634724,62.2246914 C129.732255,64.2728395 129.732255,66.808642 129.927316,68.3691358 C129.927316,69.5395062 128.952008,69.637037 128.269292,69.8320988 L133.145835,71.5876543 C134.121143,73.245679 134.90139,74.8061728 135.681637,76.4641975 C136.559415,80.462963 135.876699,80.5604938 135.291514,80.8530864 C133.535958,80.8530864 131.780403,80.8530864 130.122378,80.5604938 C130.902625,80.9506173 131.000156,81.2432099 131.097687,81.7308642 C131.195218,82.608642 130.610032,83.8765432 129.634724,85.1444444 C131.097687,85.9246914 133.73102,86.7049383 135.681637,87.4851852 L137.924847,82.5111111 C136.852008,75.2938272 133.828551,68.6617284 129.634724,62.2246914 L129.634724,62.2246914 Z M138.705094,86.6074074 C141.435958,87.7777778 145.142131,87.3876543 150.311267,84.754321 C151.091514,84.1691358 151.77423,84.5592593 150.408798,85.437037 C143.581637,91.4839506 140.363119,88.4604938 138.705094,86.6074074 L138.705094,86.6074074 Z" id="Shape" fill="#C8C037"></path>
            <path d="M150.798921,83.9740741 C151.579168,85.5345679 151.091514,86.7049383 150.798921,88.0703704 C149.921143,94.7024691 147.872995,99.8716049 143.87423,105.333333 C130.805094,126.4 117.540897,113.233333 107.007563,104.650617 L102.618674,115.574074 C102.423613,116.549383 101.448304,117.232099 108.275464,120.255556 L115.200156,115.379012 C141.728551,135.47037 160.454477,87.0950617 150.798921,83.9740741 L150.798921,83.9740741 Z M110.226082,102.797531 C108.470526,102.895062 103.106329,104.748148 102.911267,105.820988 L105.349539,102.212346 L110.226082,102.797531 Z M106.714971,80.462963 C107.007563,80.462963 108.568057,80.8530864 108.470526,80.7555556 C108.275464,80.6580247 108.470526,82.9987654 108.95818,84.1691358 L107.007563,88.362963 C110.713736,84.1691358 116.468057,84.3641975 121.832255,83.8765432 L119.296452,82.3160494 C119.784106,80.8530864 119.198921,79.682716 119.00386,78.4148148 L106.714971,80.462963 Z M115.785341,67.8814815 C111.884106,69.0518519 108.080403,71.1 105.5446,75.2938272 C107.495218,68.3691358 107.885341,68.6617284 108.470526,68.2716049 C111.20139,67.0037037 113.4446,67.7839506 115.785341,67.8814815 Z" id="Shape" fill="#C8C037"></path>
            <path d="M94.7186743,149.124691 C89.939662,154.391358 79.3087978,148.734568 70.53102,145.808642 C48.0989212,131.569136 43.7100324,118.109877 43.4174398,104.94321 C42.2470694,86.0222222 48.0989212,75.0987654 55.4137361,72.4654321 C50.5371928,81.8283951 48.293983,98.6037037 50.5371928,111.087654 C52.3902793,118.012346 52.3902793,129.716049 63.9964521,136.055556 C69.6532422,139.274074 68.1902793,141.712346 71.993983,144.735802 C76.1878101,148.051852 87.9890447,151.17284 94.7186743,149.124691 Z M101.838427,61.9320988 C93.7433657,50.5209877 82.4297854,46.2296296 69.6532422,45.7419753 C72.1890447,44.8641975 74.822378,44.4740741 77.3581805,43.2061728 C77.9433657,42.5234568 77.748304,41.3530864 77.5532422,40.182716 C65.2643533,36.9641975 57.4618842,32.9654321 47.6112669,29.2592593 L74.139662,35.6962963 C92.085341,36.3790123 90.5248472,40.8654321 101.838427,61.9320988 Z" id="Shape" fill="#FCF6A0"></path>
            <path d="M110.518674,56.3728395 C104.569292,47.8876543 98.8149706,37.5493827 90.9149706,30.917284 C71.993983,22.4320988 53.1705262,16.0925926 31.2260817,10.3382716 L38.248304,1.3654321 C61.5581805,6.72962963 83.4050941,15.6049383 103.008798,30.2345679 C106.422378,38.6222222 108.568057,47.0098765 110.518674,56.3728395 L110.518674,56.3728395 Z M122.514971,41.3530864 C122.514971,41.3530864 119.198921,33.8432099 117.540897,31.0148148 C113.737193,26.8209877 111.884106,19.0185185 104.081637,15.3123457 C106.519909,15.9950617 108.177934,15.2148148 113.152008,19.7012346 L121.052008,34.6234568 L122.514971,41.3530864 Z" id="Shape" fill="#FCF6A0"></path>
            <path d="M126.708798,54.3246914 C127.489045,47.7901235 128.952008,37.4518519 127.293983,33.2580247 C122.612501,27.0160494 117.93102,20.4814815 113.249539,14.5320988 C112.469292,13.8493827 111.884106,12.7765432 111.298921,12.0938272 C117.93102,13.8493827 124.855711,18.4333333 134.121143,36.5740741 L126.708798,54.3246914 Z" id="Path" fill="#FCF6A0"></path>
            <path d="M98.8149706,55.1049383 C96.1816373,53.0567901 93.8408966,45.7419753 89.8421311,44.1814815 C86.1359583,43.8888889 84.7705262,42.7185185 79.893983,43.6938272 C81.6495385,42.8160494 83.3075632,41.645679 85.1606496,41.0604938 C86.4285509,40.7679012 87.5989212,41.0604938 88.8668225,41.2555556 C89.1594151,41.1580247 89.3544768,40.962963 89.2569459,40.6703704 C84.3804027,37.6469136 74.3347237,37.6469136 67.5075632,35.891358 C75.4075632,36.1839506 84.0878101,35.6962963 90.0371928,37.6469136 C94.8162052,41.8407407 96.376699,49.8382716 98.8149706,55.1049383 L98.8149706,55.1049383 Z M113.249539,19.7012346 C114.322378,19.7987654 120.17423,29.0641975 120.466822,30.6246914 C120.954477,34.0382716 122.124847,37.7444444 122.514971,41.3530864 C121.539662,37.9395062 120.466822,34.5259259 119.198921,31.2098765 C118.808798,30.2345679 117.833489,28.1864198 115.102625,25.162963 C113.834724,23.017284 113.542131,21.3592593 113.249539,19.7012346 L113.249539,19.7012346 Z M133.145835,70.3197531 L130.610032,70.3197531 L133.340897,71.0024691 L133.145835,70.3197531 Z M115.980403,67.8814815 C113.4446,67.5888889 110.908798,67.491358 108.372995,68.0765432 C107.300156,69.4419753 107.300156,70.9049383 106.812501,72.1728395 C109.835958,68.7592593 111.10386,68.5641975 115.980403,67.8814815 Z M150.506329,85.3395062 C149.140897,86.4123457 148.945835,87.4851852 144.752008,88.7530864 C141.728551,89.4358025 139.972995,88.2654321 138.607563,86.6074074 C140.753242,87.1925926 141.143366,88.8506173 146.897687,86.9975309 L150.506329,85.3395062 L150.506329,85.3395062 Z M137.924847,86.0222222 C136.949539,88.8506173 135.779168,91.5814815 134.706329,94.2148148 C132.072995,97.3358025 133.243366,95.5802469 129.2446,100.261728 C130.512501,98.3111111 132.170526,96.4580247 132.950773,94.4098765 C133.535958,93.0444444 134.316205,91.6790123 134.608798,90.508642 C133.535958,90.0209877 131.48781,89.9234568 131.195218,90.1185185 C127.684106,92.1666667 127.098921,94.3123457 125.050773,96.4580247 C126.513736,94.117284 127.781637,91.4839506 129.537193,89.3382716 C129.732255,89.045679 131.000156,89.045679 131.780403,88.8506173 C130.512501,88.6555556 128.269292,88.1679012 128.07423,88.2654321 C125.83102,88.8506173 124.563119,90.8012346 122.807563,92.0691358 C124.075464,90.3135802 125.148304,88.4604938 126.708798,86.9 C126.90386,86.7049383 131.097687,87.0950617 133.243366,87.9728395 L133.243366,88.8506173 L134.511267,89.3382716 L135.486576,86.9975309 L137.924847,86.0222222 Z M110.323613,102.797531 C109.738427,102.602469 104.764353,101.919753 104.764353,102.114815 C102.813736,103.480247 102.618674,104.748148 102.618674,105.918519 C105.739662,102.797531 105.642131,102.797531 110.323613,102.797531 L110.323613,102.797531 Z M106.519909,80.3654321 C106.519909,80.3654321 110.128551,79.8777778 110.03102,80.1703704 C109.738427,81.4382716 110.518674,84.4617284 110.518674,83.9740741 L108.470526,85.6320988 C112.664353,83.4864198 117.150773,83.9740741 121.637193,83.5839506 C121.637193,83.5839506 117.833489,82.5111111 118.126082,82.5111111 C119.00386,82.4135802 117.93102,78.6098765 117.638427,78.5123457 C118.321143,78.3172839 119.10139,78.1222222 119.784106,77.9271605 C114.322378,76.5617284 111.20139,77.3419753 106.519909,80.3654321 L106.519909,80.3654321 Z" id="Shape" fill="#000000"></path>
            <path d="M137.437193,83.0962963 L136.656946,83.4864198 C136.559415,81.145679 134.023613,81.3407407 131.975464,81.3407407 L130.219909,80.9506173 C130.707563,81.4382716 132.365588,81.4382716 131.682872,82.4135802 C131.097687,82.7061728 130.902625,83.9740741 130.610032,85.0469136 L129.634724,85.0469136 C131.292748,85.7296296 132.853242,86.217284 134.608798,86.9975309 L135.681637,87.1925926 L138.21744,85.8271605 L137.437193,83.0962963 L137.437193,83.0962963 Z" id="Path" fill="#000000"></path>
            <path d="M113.737193,81.4382716 C113.347069,80.6580247 111.298921,80.7555556 110.908798,81.2432099 C110.518674,81.6333333 110.908798,84.3641975 111.298921,83.8765432 C111.981637,83.291358 112.859415,83.0962963 113.834724,83.0962963 C114.029785,82.608642 113.932255,82.0234568 113.737193,81.4382716 Z M133.145835,85.437037 C133.340897,85.3395062 133.73102,83.9740741 133.633489,83.5839506 C133.340897,82.608642 131.48781,82.8037037 131.48781,82.8037037 C131.000156,83.0962963 130.610032,84.5592593 130.805094,85.0469136 C130.902625,85.5345679 132.853242,85.6320988 133.145835,85.437037 L133.145835,85.437037 Z" id="Shape" fill="#FFFFFF"></path>
            <path d="M52.6828719,131.959259 L53.8532422,132.05679 C60.8754645,135.47037 72.4816373,140.639506 89.3544768,137.908642 L91.9878101,142.102469 C84.5754645,145.711111 76.5779336,144.833333 69.1655879,145.125926 L52.6828719,131.959259 Z M42.539662,104.553086 L46.0507731,119.377778 C55.5112669,125.32716 71.7013904,132.05679 85.1606496,131.471605 L82.1371928,124.644444 C54.048304,118.792593 51.7075632,111.185185 42.539662,104.553086 Z M51.3174398,74.2209877 C53.0729953,85.7296296 55.3162052,94.4098765 65.3618842,101.724691 C71.5063286,106.11358 77.5532422,110.502469 84.9655879,114.111111 C84.9655879,114.111111 84.2828719,117.524691 83.7952175,117.42716 C61.7532422,114.988889 45.6606496,96.7506173 43.7100324,88.362963 C45.5631188,82.0234568 48.293983,78.0246914 51.3174398,74.2209877 L51.3174398,74.2209877 Z M61.8507731,67.6864198 C64.776699,80.462963 71.7989212,93.337037 78.7236126,105.040741 C81.2594151,108.259259 81.9421311,109.722222 85.8433657,111.67284 C91.1100324,113.330864 94.9137361,112.940741 98.7174398,112.648148 C97.6446003,110.697531 96.7668225,108.649383 95.4989212,106.796296 C86.9162052,99.9691358 90.8174398,93.7271605 93.1581805,89.8259259 C88.3791682,88.6555556 82.039662,86.0222222 81.1618842,82.608642 C79.7964521,71.6851852 80.576699,68.2716049 81.9421311,62.6148148 C75.5050941,63.9802469 68.8729953,65.345679 61.8507731,67.6864198 L61.8507731,67.6864198 Z" id="Shape" fill="#000000"></path>
            <path d="M38.0532422,0 C35.9075632,1.3654321 33.8594151,3.41358025 31.6162052,5.65679012 C27.9100324,9.46049383 25.4717607,13.1666667 21.7655879,15.8975309 C20.985341,16.5802469 18.9371928,17.5555556 16.3038595,17.7506173 C15.0359583,17.8481481 14.2557114,18.0432099 12.0125015,17.7506173 C9.96435334,16.6777778 8.11126692,17.3604938 6.2581805,19.6037037 C4.21003235,22.5296296 1.57669902,28.0888889 0.503859513,31.6975309 C-1.73935036,40.5728395 3.91743976,47.9851852 9.37916815,53.6419753 C14.2557114,58.3234568 16.9865756,61.3469136 18.9371928,65.6382716 C20.4001558,68.4666667 21.5705262,72.2703704 22.7408966,75.0012346 C23.13102,75.8790123 23.13102,75.8790123 24.3013904,76.0740741 C26.8371928,76.6592593 30.348304,76.6592593 33.4692916,76.854321 C34.8347237,76.854321 36.6878101,76.854321 38.4433657,76.6592593 C40.8816373,76.1716049 43.7100324,75.7814815 46.0507731,74.9037037 C48.3915138,74.3185185 50.439662,73.5382716 52.2927484,72.8555556 C52.0976867,73.6358025 50.2446003,74.4160494 49.5618842,75.4888889 C43.222378,84.5592593 41.4668225,92.654321 42.6371928,105.333333 C43.222378,110.990123 44.5878101,115.671605 46.5384274,121.035802 C47.4162052,123.474074 49.3668225,127.375309 51.122378,129.911111 C56.5841064,137.616049 68.6779336,147.369136 85.5507731,151.17284 C88.476699,151.562963 91.7927484,151.367901 95.0112669,150.490123 C103.30139,147.954321 120.369292,142.004938 120.369292,142.004938 C120.369292,142.004938 105.252008,143.27284 98.4248472,142.590123 C96.8643533,142.297531 95.1087978,142.297531 93.9384274,141.12716 C93.7433657,140.932099 93.0606496,139.566667 93.548304,139.469136 C94.1334891,139.469136 95.8890447,138.78642 98.522378,138.493827 C92.8655879,137.908642 92.9631188,137.908642 92.5729953,136.835802 C91.7927484,134.885185 90.9149706,133.032099 89.939662,131.179012 C92.3779336,131.374074 97.9371928,131.666667 99.7902793,129.81358 C99.7902793,129.81358 96.5717607,130.203704 93.6458348,129.81358 C92.6705262,129.716049 91.0125015,129.130864 90.5248472,128.935802 C89.2569459,128.448148 88.1841064,128.253086 87.8915138,127.960494 C87.4038595,126.790123 87.1112669,126.4 86.6236126,124.937037 C85.8433657,122.888889 85.8433657,120.645679 85.648304,118.597531 C87.5013904,120.938272 89.939662,122.888889 93.0606496,123.864198 C93.0606496,123.766667 97.1569459,125.619753 100.180403,124.644444 L100.765588,124.449383 C100.765588,124.546914 98.8149706,124.644444 98.0347237,124.254321 C91.9878101,121.718519 91.1100324,119.475309 90.1347237,118.304938 L87.5013904,114.403704 C88.2816373,112.84321 88.7692916,112.745679 89.7446003,112.745679 C92.8655879,113.135802 94.3285509,113.330864 96.1816373,112.940741 C97.4495385,115.671605 97.839662,118.304938 100.765588,120.255556 C110.616205,123.181481 112.761884,119.377778 115.200156,116.061728 C122.319909,121.328395 133.926082,122.888889 141.923613,116.159259 C152.164353,104.358025 155.382872,85.7296296 154.505094,84.6567901 C153.237193,82.5111111 151.579168,80.2679012 150.116205,80.5604938 C144.947069,81.9259259 143.093983,84.5592593 138.022378,83.9740741 C138.607563,83.9740741 139.680403,83.9740741 139.680403,83.8765432 C140.070526,79.5851852 139.680403,77.537037 139.485341,77.1469136 C137.924847,73.7333333 135.876699,70.1246914 134.511267,67.491358 C134.121143,66.9061728 133.048304,62.7123457 131.292748,61.054321 C130.512501,60.3716049 128.659415,58.7135802 128.659415,58.7135802 L128.464353,60.5666667 C128.464353,60.5666667 129.2446,60.6641975 129.439662,61.8345679 C130.512501,66.1259259 135.876699,76.3666667 136.266822,76.854321 C138.21744,79.9753086 136.461884,83.7790123 137.924847,85.9246914 C138.022378,86.217284 140.850773,85.9246914 143.093983,86.0222222 C146.702625,85.2419753 146.507563,83.6814815 149.628551,83.3888889 C151.77423,83.1938272 151.969292,87.1925926 151.871761,87.4851852 C151.481637,91.8740741 150.116205,96.8481481 148.165588,101.52963 C143.971761,109.624691 139.290279,116.939506 132.56065,117.914815 C124.368057,119.377778 120.17423,115.769136 115.785341,113.525926 L114.127316,114.988889 C108.372995,120.74321 101.545835,120.158025 98.8149706,112.745679 C97.4495385,109.819753 95.5964521,108.064198 94.0359583,105.625926 L85.8433657,111.575309 C85.1606496,112.940741 84.2828719,115.183951 83.3075632,117.622222 C82.6248472,119.377778 82.039662,122.303704 82.039662,124.741975 C80.9668225,126.497531 85.648304,133.812346 88.6717607,138.201235 C89.5495385,139.469136 91.2075632,141.809877 91.2075632,141.907407 C91.7927484,143.467901 93.0606496,144.833333 93.1581805,144.930864 C98.7174398,152.148148 86.2334891,150.490123 83.6001558,150.002469 C78.5285509,149.222222 73.5544768,147.076543 68.8729953,144.248148 C68.5804027,144.053086 68.2878101,143.955556 68.0927484,143.760494 C62.5334891,140.249383 57.4618842,135.762963 53.0729953,131.374074 C50.439662,128.448148 48.0013904,122.401235 46.148304,118.207407 C43.4174398,107.966667 39.5162052,90.2160494 50.1470694,76.7567901 C50.8297854,75.9765432 51.5125015,74.708642 52.1952175,74.4160494 C55.3162052,72.2703704 58.8273163,70.8074074 62.4359583,70.0271605 L62.0458348,67.6864198 C60.1927484,68.0765432 54.048304,70.4172839 52.2927484,71.2950617 C48.293983,72.4654321 44.9779336,73.6358025 39.9063286,74.9037037 C38.248304,75.0987654 36.6878101,75.0987654 35.0297854,74.9037037 C31.4211435,74.4160494 25.1791682,74.8061728 24.7890447,74.5135802 C22.3507731,71.1 21.668057,64.8580247 19.4248472,61.5419753 C18.0594151,59.7864198 16.5964521,58.3234568 15.0359583,56.8604938 C9.67176075,51.4962963 4.99027927,46.3271605 3.72237803,40.7679012 C3.42978544,39.1098765 2.55200766,37.4518519 3.03966198,32.6728395 C4.30756322,28.1864198 6.45324223,24.4802469 10.0618842,20.8716049 C13.768057,20.9691358 17.4742299,20.9691358 20.4001558,21.554321 C21.7655879,21.7493827 24.4964521,22.1395062 27.3248472,23.2123457 C34.5421311,25.845679 44.0026249,30.3320988 44.0026249,30.3320988 C36.8828719,26.4308642 28.885341,21.3592593 23.9112669,20.2864198 C23.13102,20.1888889 22.7408966,19.7987654 22.448304,19.2135802 C30.0557114,14.7271605 31.4211435,9.55802469 36.3952175,4.87654321 C38.6384274,3.90123457 39.5162052,3.41358025 41.4668225,3.21851852 C59.3149706,6.04691358 70.6285509,13.1666667 79.5038595,17.945679 C83.1125015,19.8962963 86.4285509,21.3592593 89.5495385,23.2123457 C92.2804027,24.0901235 100.570526,30.3320988 103.008798,33.745679 C105.447069,38.9148148 107.300156,44.5716049 108.95818,50.0333333 C110.128551,55.5925926 111.20139,57.8358025 111.20139,57.8358025 C111.20139,57.8358025 110.226082,53.2518519 110.323613,52.3740741 C111.396452,52.7641975 113.834724,53.5444444 114.810032,53.4469136 C114.810032,53.4469136 110.226082,51.1061728 109.640897,49.0580247 C107.690279,42.4259259 105.837193,31.9901235 105.252008,31.5024691 C103.789045,29.6493827 97.7421311,25.0654321 94.0359583,22.9197531 C92.6705262,22.1395062 91.8902793,21.554321 91.7927484,21.2617284 C92.9631188,20.091358 94.4260817,18.4333333 95.7915138,17.4580247 C97.0594151,16.4827161 98.2297854,15.4098765 99.985341,14.7271605 C107.690279,11.2160494 112.176699,16.0925926 113.152008,15.117284 C113.152008,15.117284 111.493983,13.1666667 112.27423,13.5567901 C113.054477,13.9469136 115.492748,14.4345679 115.785341,14.7271605 C118.613736,16.9703704 126.026082,24.9679012 130.414971,33.5506173 C131.48781,35.5987654 131.877934,36.9641975 131.390279,39.5 C130.902625,42.0358025 130.512501,43.4012346 129.927316,45.0592593 C129.439662,46.1320988 126.708798,53.837037 126.708798,54.9098765 C126.123613,59.1037037 128.561884,64.3703704 128.561884,64.3703704 C128.561884,62.9074074 128.464353,62.1271605 128.561884,61.1518519 L128.756946,59.2987654 C128.756946,59.2987654 128.659415,58.8111111 128.659415,58.6160494 C128.756946,57.3481481 129.049539,56.2753086 129.147069,55.5925926 C130.024847,50.1308642 131.585341,46.1320988 133.340897,41.2555556 C133.828551,40.0851852 134.511267,39.4024691 134.511267,38.4271605 C134.511267,36.7691358 133.048304,34.6234568 131.975464,32.3802469 C130.805094,29.9419753 129.439662,27.5037037 127.976699,25.162963 C124.172995,19.6037037 120.856946,15.3123457 114.907563,12.5814815 C113.249539,11.8012346 106.61744,11.1185185 104.37423,11.508642 C101.643366,12.0938272 99.2050941,12.6790123 97.3520077,13.8493827 C94.3285509,15.8 91.9878101,18.7259259 89.2569459,20.4814815 C83.2100324,17.4580247 80.2841064,15.117284 79.6989212,14.8246914 C76.0902793,12.8740741 71.7013904,10.6308642 67.1174398,8.48518519 C64.6791682,6.04691358 50.8297854,0.975308641 38.0532422,0 Z M115.882872,113.525926 C112.176699,110.6 108.95818,107.576543 106.910032,104.455556 C106.227316,108.064198 103.789045,110.697531 101.838427,113.233333 C101.448304,113.818519 101.155711,114.696296 103.008798,117.232099 C103.496452,117.914815 105.349539,118.012346 106.519909,118.012346 C105.252008,117.037037 103.398921,116.061728 103.106329,115.183951 C105.349539,116.646914 107.300156,117.134568 109.153242,116.841975 C109.543366,116.841975 110.128551,116.354321 110.518674,115.671605 C111.298921,113.916049 111.981637,113.525926 112.664353,113.038272 L114.127316,114.891358 L115.882872,113.525926 L115.882872,113.525926 Z" id="Shape" fill="#000000"></path>
        </g>
        <g id="elasticsearch" transform="translate(2443.458409, 362.000195)" fill-rule="nonzero">
            <path d="M66.3474077,44.3260664 L8.05816163,44.3260664 L8.05816163,44.4197791 L112.922577,44.4197791 C124.449228,44.4197791 134.851328,39.1718728 141.786062,30.9251627 C127.354319,12.0889273 104.582154,5.61328766e-15 79.0923232,5.61328766e-15 C64.6605807,5.61328766e-15 51.0722516,3.93592986 39.3581748,10.683238 C50.9785389,19.3985111 60.2560878,31.0188752 66.3474077,44.3260664 Z" id="Path" fill="#EFBF1B"></path>
            <path d="M141.973487,126.793167 C135.038754,118.640169 124.824079,113.485976 113.297427,113.485976 L7.96444911,113.485976 L7.96444911,113.579688 L67.6593841,113.579688 C62.0366273,127.355442 52.9465038,139.256944 41.6072775,148.534493 C27.925236,141.224909 16.6797222,129.885683 9.27642573,116.109929 C22.583617,141.037484 48.8231489,157.999467 79.0923232,157.999467 C104.769579,158.09318 127.541745,145.816827 141.973487,126.793167 Z" id="Path" fill="#40BEB0"></path>
            <path d="M69.3462113,101.209623 L103.926166,101.209623 C116.202518,101.209623 126.136055,91.2760861 126.229768,78.9997336 C126.229768,66.8170938 116.296231,56.7898441 104.019878,56.7898441 L69.1587861,56.7898441 C70.8456131,63.4434397 71.8764518,70.8467362 71.8764518,78.9997336 C71.8764518,87.152731 70.9393258,94.5560276 69.3462113,101.209623 Z" id="Path" fill="#0AA5DE"></path>
            <path d="M71.8764518,78.9997336 C71.8764518,70.7530235 70.8456131,63.4434397 69.1587861,56.7898441 L3.18510568,56.7898441 C-1.06170189,71.2919212 -1.06170189,86.7075461 3.18510568,101.209623 L69.3462113,101.209623 C70.9393258,94.5560276 71.8764518,87.152731 71.8764518,78.9997336 L71.8764518,78.9997336 Z" id="Path" fill="#231F20"></path>
            <path d="M39.3581748,10.683238 C25.8635584,18.5550975 14.8991826,30.2691743 7.96444911,44.3260664 L66.3474077,44.3260664 C60.2560878,31.0188752 50.9785389,19.3985111 39.3581748,10.683238 Z" id="Path" fill="#D7A229"></path>
            <path d="M41.7009901,148.534493 C53.0402164,139.350657 62.1303399,127.355442 67.7530968,113.579688 L8.05816163,113.579688 C8.43301216,114.423102 8.9015752,115.266515 9.37013825,116.109929 C16.6797221,129.885683 27.9252358,141.224909 41.7009901,148.534493 Z" id="Path" fill="#009B8F"></path>
        </g>
        <g id="duckdb" transform="translate(712.000000, 495.000195)" fill="#FFEF00" fill-rule="nonzero">
            <path d="M79,0 C35.2767296,0 0,35.4487179 0,79 C0,122.551282 35.2767296,158 79,158 C122.72327,158 158,122.551282 158,79 C158,35.4487179 122.72327,0 79,0 Z M62.6037736,111.916667 C44.7169811,111.916667 29.8113208,97.2307692 29.8113208,79 C29.8113208,60.7692308 44.7169811,46.0833333 62.6037736,46.0833333 C80.490566,46.0833333 95.3962264,60.7692308 95.3962264,79 C95.3962264,97.2307692 80.490566,111.916667 62.6037736,111.916667 Z M121.232704,90.6474359 L105.830189,90.6474359 L105.830189,67.3525641 L121.232704,67.3525641 C127.691824,67.3525641 133.157233,72.4166667 133.157233,79 C133.157233,85.5833333 127.691824,90.6474359 121.232704,90.6474359 Z" id="Shape"></path>
        </g>
        <g id="druid" transform="translate(85.396000, 455.534409)" fill="#2AEEF8" fill-rule="nonzero">
            <path d="M23.4180044,48.1964018 L6.93048406,48.1964018 C3.10658104,48.1964018 0,44.8514391 0,40.7303754 C0,36.6060461 3.10658104,33.2643489 6.93048406,33.2643489 L23.4180044,33.2643489 C27.2462614,33.2643489 30.343046,36.6060461 30.343046,40.7303754 C30.343046,44.8514391 27.2462614,48.1964018 23.4180044,48.1964018 Z M114.409045,124.732153 L33.2123338,124.732153 C29.3786343,124.732153 26.2818498,121.381747 26.2818498,117.258507 C26.2818498,113.134177 29.3786343,109.791392 33.2123338,109.791392 L114.409045,109.791392 C123.391686,109.91026 132.242759,107.625336 140.045414,103.173307 C150.079213,97.248598 156.675528,92.1108747 156.675528,75.7822754 C157.244657,68.334598 154.930745,60.9529142 150.21201,55.1628063 C146.328921,51.2718704 141.106421,49.0108508 135.61195,48.8418827 L44.3455192,48.8418827 C40.5216162,48.8418827 37.4150351,45.5001855 37.4150351,41.3758563 C37.4150351,37.2515271 40.5216162,33.9032989 44.3455192,33.9032989 L135.479153,33.9032989 C144.565957,34.060043 153.261989,37.8382289 159.906198,44.5118268 C167.333038,52.9183179 171.186331,64.2561413 170.580036,75.8279924 C170.580036,102.215427 155.662133,111.031194 146.746224,116.316954 C136.913195,121.962213 125.746545,124.868143 114.409045,124.732153 Z" id="Shape"></path>
            <path d="M129.766701,157.954283 L98.8151835,157.954283 C94.6658188,157.954283 91.3099711,154.731232 91.3099711,150.750585 C91.3099711,146.776469 94.6658188,143.553418 98.8151835,143.553418 L129.766701,143.553418 C155.014475,143.553418 197.865483,127.704848 198.212715,68.4218336 C199.239171,50.9796981 190.944796,34.2472651 176.211938,24.0088273 C166.654674,17.5949623 155.369395,14.246704 143.860609,14.410428 L50.1657325,14.410428 C46.0174563,14.410428 42.6605201,11.1873774 42.6605201,7.2056418 C42.6605201,3.23152568 46.0163678,0.00847506012 50.1657325,0.00847506012 L143.861697,0.00847506012 C158.485244,-0.216355232 172.827723,4.03689764 184.964573,12.1975061 C203.743387,25.1789656 214.382393,46.4210571 213.21552,68.6047017 C212.868289,129.966753 169.716855,157.954283 129.766701,157.954283 L129.766701,157.954283 Z M75.5082062,158 L59.4637056,158 C55.3165179,158 51.9584932,154.779126 51.9584932,150.798479 C51.9584932,146.824363 55.3165179,143.601313 59.4637056,143.601313 L75.5071177,143.601313 C79.6564824,143.601313 83.0145074,146.824363 83.0145074,150.798479 C83.0155956,154.779126 79.6564824,158 75.5082062,158 Z" id="Shape"></path>
        </g>
        <g id="mysql" transform="translate(772.710222, 213.537628)" fill="#4A94C6" fill-rule="nonzero">
            <path d="M8.75435148,0.08967911 C15.8109458,-0.633621805 28.0541369,3.12401466 33.0466774,7.55202758 C35.357712,9.58079844 37.5981807,11.7154182 39.7680834,13.9206039 C59.5971134,9.98655261 77.3444481,19.9010676 92.6219747,43.4171681 C106.805729,65.2573274 116.526188,83.3927748 121.554011,97.4001145 C128.66353,101.104826 135.526068,105.285859 142.106342,109.925569 C153.114629,117.65254 156.113682,121.657157 157.383869,123.985833 C158.812829,126.596773 157.913113,129.895731 155.372739,131.359975 C154.596514,131.818653 153.71444,132.047992 152.814724,132.047992 L134.767484,132.047992 C137.44899,135.22346 140.18342,138.328361 142.988417,141.39798 C145.123036,143.426751 145.246527,146.86684 143.27068,149.054385 C141.294834,151.241929 137.960593,151.383061 135.825973,149.336648 C135.649558,149.177875 135.490785,149.00146 135.349653,148.807404 C129.84551,142.721091 124.500139,136.493647 119.27826,130.142712 C117.408262,127.849319 117.690526,124.444512 119.895712,122.503949 C120.83071,121.69244 122.030331,121.233762 123.265235,121.21612 L139.495402,121.21612 C131.786073,115.464996 123.618065,110.419531 115.061945,106.13265 C113.791758,105.515198 112.821476,104.386143 112.362797,103.010107 C107.899501,89.6202193 98.3025331,71.5906208 83.8894393,49.3976318 C70.4113442,28.6159616 55.8394769,20.677293 39.3799707,25.0523814 C37.5276147,25.546343 35.5694098,24.964174 34.2639399,23.5352137 C31.7059244,20.7831419 29.0244186,18.172202 26.2194224,15.702394 C23.4849921,13.2855104 15.4581161,10.9744758 11.2594425,10.762778 C12.4590635,13.5677742 15.6874554,19.5129549 24.5258397,31.3680333 C24.861028,31.8090705 25.1256503,32.3206736 25.3020651,32.8675596 C28.4246081,42.1116981 29.9417759,49.044802 29.9417759,54.0373425 C29.9417759,55.4133784 30.6827183,59.5414861 37.5276147,68.1858141 C38.6213868,69.56185 38.991858,71.414206 38.4978964,73.1254301 L32.4821498,94.295213 C29.0420601,106.397272 35.8869566,122.539232 40.226762,127.690545 C41.2323267,124.885549 42.7494945,118.217068 43.384588,102.851334 C43.5257199,99.8699225 45.9778864,97.5588878 48.8887315,97.6823782 C50.7410876,97.7705857 52.4346702,98.8643578 53.299103,100.55794 C55.8571184,105.585764 59.5794719,114.547639 64.6955028,127.919885 C70.7641739,143.761939 75.0157719,147.09618 76.5682227,147.784198 C79.1438796,149.177875 80.1318028,152.459191 78.7734084,155.105414 C77.5561459,157.469373 74.8569986,158.580787 72.3871906,157.698713 C66.1421046,154.911358 60.6026781,146.725709 54.9221197,131.889219 C53.881272,129.137147 52.8757073,126.579132 51.9407086,124.17989 C50.0883526,134.323744 47.2480734,137.887324 43.7197762,139.316285 C41.9556277,140.039586 38.3920475,140.621755 34.158091,136.634779 C26.2370639,129.17243 17.7162262,107.808591 22.4088614,91.2608774 L27.6660242,72.7549589 C22.0736732,65.2573274 19.4450918,59.2592223 19.4450918,54.0373425 C19.4450918,51.5675345 18.7747154,46.64556 15.6698139,37.2426481 C-0.71912636,15.1555079 -1.91874739,8.38117741 1.64483273,3.65325923 C3.17964199,1.64212986 5.57888405,0.424867339 8.75435148,0.08967911 Z M45.4839248,38.7598159 C47.5303371,38.2834957 53.9341965,38.1952883 55.9100429,41.2825483 C59.7206038,45.6752783 57.8506063,52.3614014 55.4690057,54.0373425 L55.1338175,54.3725307 C53.7754231,51.620459 51.6584448,49.4329147 50.3000504,46.680843 C48.5888263,44.105186 46.9834511,41.4766047 45.4839248,38.7598159 L45.4839248,38.7598159 Z" id="Shape"></path>
        </g>
        <g id="postgresql" transform="translate(957.750961, 441.366948)" fill-rule="nonzero">
            <path d="M153.060245,94.7661077 C152.026726,91.9661696 149.516865,89.9772233 146.554838,89.6108792 C144.849137,89.3153224 143.10531,89.3153224 141.39961,89.6108792 C138.78182,90.2162841 136.107743,90.5454012 133.42128,90.5928274 C140.587171,78.6048104 146.040738,65.673245 149.623426,52.1741007 C155.024142,31.3076996 152.201041,21.8564474 148.764222,17.5604236 C139.882033,6.30825701 126.275387,-0.177577624 111.941161,0.008097984 C105.376136,-0.0965890069 98.8343858,0.814287569 92.5476822,2.70845577 C88.5646346,2.12673165 84.544108,1.83955118 80.5188157,1.84925102 C73.5658333,1.63134208 66.686841,3.32985872 60.6343629,6.75899246 C56.0813293,5.17169197 51.3996655,3.9807424 46.6415998,3.19942992 C35.4504394,0.524644437 23.6546285,2.42434431 13.8690758,8.47740196 C3.41736909,17.1338881 -1.67236375,30.6753792 0.490030363,44.0730274 C1.95237063,56.5658509 4.58240095,68.894118 8.34561666,80.8960881 C10.5485334,88.4218333 13.4241433,95.7340984 16.9376642,102.744437 C19.4949245,109.126256 24.4208215,114.272059 30.6849402,117.105431 C35.3499163,118.600029 40.4581562,117.475279 44.0639856,114.159586 C44.8619816,115.129151 45.8161065,115.958825 46.8870869,116.614457 C48.5314726,117.599984 50.3089691,118.344052 52.165059,118.823841 C58.3343147,120.536428 64.8980248,120.147787 70.8220764,117.719149 C70.7581163,118.618132 70.7581163,119.520524 70.8220764,120.419507 C70.7587645,121.646126 70.7587645,122.875194 70.8220764,124.101813 C70.715877,130.407847 71.5431213,136.694904 73.2769471,142.75883 C73.2345355,143.084772 73.2345355,143.414836 73.2769471,143.740778 C74.3042668,147.436269 76.246098,150.813367 78.9231498,153.560261 C82.2605688,156.612844 86.6801973,158.20391 91.1975034,157.979029 C93.0551784,157.97035 94.9066916,157.764626 96.7209625,157.365311 C103.46818,156.360274 109.550919,152.745893 113.65957,147.300341 C119.103979,137.796275 121.742681,126.94355 121.26967,116.000739 C121.330167,115.593831 121.330167,115.180213 121.26967,114.773304 L121.26967,113.914099 L122.619849,113.914099 C128.703355,114.171459 134.77158,113.125213 140.417661,110.845511 C144.099967,109.249845 155.515116,103.235412 152.692015,95.1343383 L153.060245,94.7661077 Z" id="Path" fill="#000000"></path>
            <path d="M142.749788,96.2390301 C124.951976,99.9213362 123.72454,93.9069029 123.72454,93.9069029 C142.504301,65.9213767 150.482631,30.0802643 143.608993,21.8564474 C125.074719,-1.71031152 93.0386564,9.58209378 92.5476822,9.58209378 C88.501576,8.80392296 84.3934073,8.39310609 80.2733287,8.35465842 C73.5485961,8.00645117 66.9113293,10.0019693 61.4935677,14.0008611 C61.4935677,14.0008611 4.41782351,-9.44315428 7.1181813,43.8275403 C7.1181813,55.1199456 23.320328,129.748015 41.9773455,106.917718 C48.8509835,98.6939008 55.3563909,91.4520322 55.3563909,91.4520322 C58.6598976,93.717439 62.6678635,94.7194305 66.6487962,94.2751335 C66.5260071,95.3353675 66.5260071,96.4062314 66.6487962,97.4664654 C61.8617983,102.867181 63.2119772,103.849129 53.6379814,105.813026 C44.0639856,107.776922 49.5874447,111.336485 53.6379814,112.318433 C61.7572307,114.931775 70.635065,112.005561 75.6090743,105.076565 L75.6090743,106.181256 C78.2109706,111.599775 79.2725432,117.629507 78.6776627,123.610839 C78.0232043,129.277504 78.3974399,135.015783 79.7823545,140.549447 C81.255277,144.599983 82.7281994,153.683005 95.3707836,150.982647 C104.677413,150.11257 111.855229,142.406974 112.063904,133.062091 C112.677622,126.065709 113.905057,127.170401 114.027801,120.787737 L114.887006,117.841892 C116.114441,108.39064 114.887006,105.567539 121.6379,106.794974 L123.233566,106.794974 C128.261875,107.031042 133.282845,106.194214 137.962791,104.340103 C145.818377,100.657797 150.237144,94.5206206 142.749788,96.1162866 L142.749788,96.2390301 Z" id="Path" fill="#0A5C82"></path>
            <path d="M68.8581798,51.4376395 C68.8581798,49.9647171 67.0170268,49.1055123 65.0531302,48.7372817 C63.7531367,48.4421959 62.3893761,48.6621573 61.2480806,49.3509994 C60.9640102,49.5713406 60.7506628,49.8700269 60.6343629,50.2102041 C60.7068741,50.8797187 60.9615981,51.5165286 61.3708241,52.0513572 C61.9638353,53.3694307 63.1488222,54.3265355 64.5621561,54.6289714 C66.297605,54.7337666 67.8954632,53.6851721 68.4899492,52.0513572 L68.8581798,51.4376395 Z M114.396032,47.6325899 C112.554879,47.6325899 110.713726,48.7372817 110.836469,49.8419735 C111.436751,51.2721969 112.845082,52.1948962 114.396032,52.1741007 C115.360472,51.9625186 116.250565,51.4962794 116.973646,50.8239218 C117.493061,50.2843794 117.835609,49.5992827 117.955594,48.8600253 C117.955594,47.7553334 115.868954,47.3871028 114.027801,47.6325899 L114.396032,47.6325899 Z" id="Shape" fill="#FFFFFF"></path>
            <path d="M148.764222,95.8707995 C148.764222,93.7841594 145.94112,93.1704417 142.381558,93.9069029 C131.580127,95.993543 127.652334,94.5206206 126.424898,93.9069029 C134.966147,80.6654994 141.38536,66.1705022 145.450146,50.9466654 C147.046851,44.9698154 147.993373,38.8379977 148.273248,32.6578785 C148.650483,28.3550713 147.61641,24.0464341 145.327403,20.3835249 C137.113073,10.0545435 124.519621,4.18972272 111.327443,4.54960881 C104.612133,4.41922071 97.9252937,5.45754974 91.565734,7.61819721 C87.9693465,6.52673707 84.2655377,5.82712873 80.5188157,5.5315571 C73.7824403,5.26901266 67.1318974,7.11400198 61.4935677,10.8095291 C56.4854761,8.94963713 51.3047175,7.59277178 46.0278822,6.75899246 C35.9557284,4.28236362 25.3120187,5.91646013 16.44669,11.3005033 C7.10396969,19.2230171 2.70440599,31.5324347 4.90879765,43.5820532 C6.35526831,55.6650504 8.94447594,67.5836252 12.6416404,79.1776786 C18.6560737,98.9393879 24.915994,110.10905 32.1578626,112.441177 C33.0528135,112.57759 33.9632695,112.57759 34.8582204,112.441177 C38.4024295,112.25102 41.6618891,110.44021 43.695755,107.531435 C47.6235481,102.744437 51.6740848,98.2029267 55.9701086,93.7841594 C58.5645803,95.4240197 61.5072937,96.43295 64.5621561,96.7300042 L62.9664901,98.5711573 C60.87985,101.271515 60.5116194,101.885233 53.6379814,103.235412 C51.6740848,103.235412 46.5188563,104.708334 46.5188563,108.267897 C46.5188563,111.827459 52.5332896,113.914099 53.2697508,114.036843 C55.5577545,114.609419 57.9075734,114.897993 60.2661323,114.896048 C65.4562753,115.038875 70.5051618,113.194934 74.3816389,109.740819 C73.8527133,120.52089 74.6774351,131.324746 76.8365097,141.899625 C78.4868216,149.053254 84.8380378,154.134227 92.1794516,154.173979 C93.8676905,153.938892 95.5181405,153.485019 97.0891931,152.8238 C106.674755,152.053803 114.248384,144.37571 114.887006,134.7805 C115.868954,129.011554 117.587364,115.141535 118.446568,107.776922 C120.489701,108.307576 122.595986,108.555374 124.706489,108.513384 C129.546016,108.578913 134.348377,107.6602 138.821995,105.813026 C142.872532,103.971873 150.114401,99.430362 148.764222,95.5025689 L148.764222,95.8707995 Z M111.941161,8.72288903 C123.584259,8.60360813 134.632778,13.8561827 141.890584,22.9611392 C147.414043,29.9575207 141.276866,61.8708401 123.847284,89.4881356 L123.233566,88.8744179 C126.72622,82.1074647 127.683998,74.3146359 125.933924,66.903325 C125.776735,64.4509706 125.776735,61.9910673 125.933924,59.5387129 C125.933924,56.9610986 125.933924,54.8744585 126.670385,52.7878184 C127.185997,49.9947438 127.432612,47.1586652 127.406846,44.3185144 C127.469198,43.9117448 127.469198,43.4978487 127.406846,43.0910791 C125.561217,35.5669093 121.894027,28.611894 116.728159,22.8383957 C111.790729,17.3132154 105.720238,12.9173431 98.9303461,9.95032439 C102.970191,9.12998833 107.082409,8.71876653 111.2047,8.72288903 L111.941161,8.72288903 Z M121.6379,67.6397862 C122.826977,73.2483782 122.401371,79.0791742 120.410465,84.4556506 C119.928224,83.6759957 119.517409,82.8543657 119.18303,82.0007799 L117.219133,78.1957303 C113.29134,71.3220923 104.944779,55.2426891 108.995316,48.6145382 C110.345495,46.6506416 113.782314,44.686745 122.497105,45.7914369 C122.48159,47.8923076 122.276182,49.9874746 121.883387,52.0513572 C121.424294,54.4387949 121.177842,56.8622446 121.146926,59.2932258 C120.898805,62.0698806 120.898805,64.8631314 121.146926,67.6397862 L121.6379,67.6397862 Z M40.0134489,105.322052 C36.4538864,109.495332 33.9990156,108.758871 33.2625544,108.39064 C27.9845824,106.672231 21.9701491,96.1162866 16.5694336,78.0729868 C13.101066,66.7392928 10.6770047,55.1120153 9.32756494,43.3365661 C7.423503,32.9526856 11.1038849,22.3308239 19.0243043,15.35104 C31.2986579,7.12722306 49.8329318,12.0369645 57.443031,14.4918352 C49.1580685,24.5648503 44.7981771,37.2957331 45.1686774,50.3329477 L45.1686774,52.5423313 C45.7573464,58.5833723 45.7573464,64.6673337 45.1686774,70.7083746 C44.126967,77.7132502 46.3419651,84.8102848 51.1831107,89.9791098 L52.2878025,91.4520322 C50.0784188,93.7841594 45.4141645,98.8166443 40.0134489,104.953821 L40.0134489,105.322052 Z M53.5152378,87.278752 C49.5849133,83.1044981 47.7767263,77.3635043 48.6054964,71.6903229 C49.3097835,65.3681273 49.3097835,58.9872704 48.6054964,52.6650749 L48.6054964,51.314896 C53.530624,47.6209082 59.6639474,45.9123395 65.7895914,46.5278981 C68.589014,47.109087 70.6808403,49.4499403 70.9448199,52.2968443 C74.0561624,62.0201657 73.3090505,72.5676282 68.8581798,81.7552929 C68.8581798,82.9827282 67.8762315,84.08742 67.5080009,85.1921119 L67.5080009,86.0513166 C66.3917554,88.0720779 65.407742,90.1631064 64.5621561,92.3112369 C60.2684541,92.2474511 56.1879746,90.4289766 53.2697508,87.278752 L53.5152378,87.278752 Z M74.1361519,103.726386 C69.6160935,109.895378 61.6220042,112.427667 54.3744426,109.986306 C53.3145836,109.797392 52.3090294,109.378411 51.4285977,108.758871 C52.4501814,108.307524 53.5213221,107.977942 54.6199297,107.776922 C62.5982595,106.181256 63.8256949,105.076565 66.8942833,101.639746 L69.1036669,98.8166443 C70.5765893,97.2209784 71.3130505,97.4664654 72.4177424,97.9574396 C73.5839034,98.5567105 74.43417,99.6307315 74.7498696,100.903284 C75.1707216,101.797265 75.1707216,102.832406 74.7498696,103.726386 L74.1361519,103.726386 Z M114.396032,103.726386 C114.396032,107.899666 111.695674,127.415888 110.590982,134.289526 C110.281849,142.110017 104.047565,148.397586 96.2299883,148.773263 C93.0726754,149.803468 89.6326525,149.510271 86.695225,147.960604 C83.7577975,146.410938 81.5737109,143.737085 80.6415593,140.549447 C78.7187565,127.797672 78.1837435,114.875051 79.0458933,102.007976 C79.1033192,101.765848 79.1033192,101.513644 79.0458933,101.271515 C79.1036965,100.823311 79.1036965,100.36954 79.0458933,99.9213362 C78.3442232,97.3367674 76.55182,95.1858836 74.1361519,94.0296464 C72.7049348,93.5339501 71.1486017,93.5339501 69.7173846,94.0296464 C70.2164332,92.0719337 70.8312318,90.1455649 71.5585376,88.2607003 L71.5585376,87.4014955 C71.5585376,86.4195472 72.4177424,85.4375989 72.9087165,84.3329071 C77.6699432,74.2358969 78.5013206,62.7278821 75.2408437,52.0513572 C74.8010094,48.8697854 73.0549061,46.0155392 70.4225783,44.1752392 C67.7902506,42.3349393 64.5099625,41.6751597 61.3708241,42.3546179 C57.6412007,42.8094128 54.0239334,43.932013 50.6921365,45.6686933 L49.4647012,45.6686933 C49.8938453,35.4440395 53.6913801,25.6481261 60.2661323,17.8059107 C65.6486481,12.6402933 72.9508191,9.96876733 80.3960722,10.4412985 C93.2739091,10.3252711 105.508761,16.0589473 113.65957,26.0297276 C117.49812,30.5294064 120.492058,35.6856332 122.497105,41.249926 C116.453609,39.7128743 110.052979,41.5954126 105.803984,46.1596675 C99.6668073,54.997202 109.240803,72.1812971 113.782314,80.405114 L115.623467,83.7191894 C116.631656,86.4857896 118.037512,89.0907581 119.796747,91.4520322 L121.024183,92.9249546 C118.446568,93.6614158 114.027801,95.3798253 114.396032,103.726386 L114.396032,103.726386 Z M136.980842,102.13072 C133.533695,103.481114 129.879942,104.228473 126.179411,104.340103 C123.691501,104.691913 121.154905,104.395977 118.814799,103.480899 C118.814799,98.3256702 120.533208,97.7119525 122.497105,97.2209784 L123.479053,97.2209784 C129.525947,99.7461103 136.2803,100.007569 142.504301,97.9574396 C140.653726,99.6415339 138.538888,101.009958 136.244381,102.007976 L136.980842,102.13072 Z" id="Shape" fill="#FFFFFF"></path>
        </g>
        <g id="spark" transform="translate(1774.333333, 455.666862)" fill-rule="nonzero">
            <path d="M44.4034481,83.9034483 L56.1172411,74.3689654 C52.1909744,67.395784 44.7779624,63.1150306 36.775862,63.2000001 C29.0251499,63.2477924 21.7131808,66.8036128 16.8896549,72.8706897 C11.713793,79 12.2586204,87.4448275 12.2586207,88.9431035 C13.0285934,91.6333832 14.1749917,94.2013155 15.6637929,96.5706896 C17.7068963,99.2948275 30.6465514,112.77931 33.0982758,115.367241 C33.0982758,115.367241 35.9586206,122.994827 32.4172411,125.855172 C29.6490972,128.230289 26.1215748,129.534989 22.4741379,129.532758 C22.4741379,129.532758 13.8931034,127.081034 13.8931034,119.044828 L0,126.672414 C0,126.672414 2.17931045,142.336207 20.1586204,142.336207 C38.1379305,142.336207 41.67931,133.482759 41.6793103,133.482759 C41.6793106,133.482759 48.489655,126.672414 48.489655,117.001724 C48.489655,117.001724 50.5327584,108.965517 38.6827585,97.387931 C38.6827585,97.387931 26.8327585,88.2620688 26.8327585,81.8603448 C26.8327585,81.8603448 28.0586205,75.0500001 34.8689653,76.2758622 C41.67931,77.5017242 44.4034481,83.9034483 44.4034481,83.9034483 L44.4034481,83.9034483 Z M86.7637928,83.3586206 C86.7637928,83.3586206 61.7017237,81.5879308 55.027586,107.331035 C50.5327584,125.174138 47.9448273,158 47.9448273,158 L60.339655,158 L62.6551721,136.887931 C62.6551721,136.887931 80.6344824,149.827586 101.337931,133.755172 C110.736207,123.675862 111.00862,118.091379 112.506896,112.643104 C113.868965,102.7 109.374138,83.9034483 86.7637928,83.2224139 L86.7637928,83.3586206 Z M81.5879308,129.260345 C73.0122818,129.260345 66.0603446,122.308408 66.0603446,113.732759 C66.0603446,104.743103 76.4120689,96.0258619 84.5844826,96.0258619 C93.1068456,96.1750606 99.9157298,103.166326 99.8396548,111.689655 C99.8396548,120.67931 89.7603446,129.124138 81.5879308,129.124138 L81.5879308,129.260345 Z M172.846551,140.293103 L161.132758,140.293103 L163.856896,116.593103 C163.856896,116.593103 165.355172,95.4810346 149.418965,95.4810346 C133.482758,95.4810346 130.622414,112.506897 130.622414,112.506897 C130.622414,112.506897 129.941379,126.672414 141.518965,129.260345 C148.033709,130.897125 154.896221,128.484523 158.953448,123.131034 L156.365517,138.386207 C156.365517,138.386207 140.42931,148.32931 124.356896,134.027586 C124.356896,134.027586 117.682758,128.034483 117.682758,114.55 C117.682758,114.55 117.001724,102.018966 129.668965,91.3948277 C142.336206,80.7706898 153.777586,83.2224139 153.777586,83.2224139 C153.777586,83.2224139 169.305172,83.0862069 176.660344,102.7 C176.962154,106.462348 176.962154,110.242824 176.660344,114.005172 C176.660344,115.503448 172.710344,140.156896 172.710344,140.156896 L172.846551,140.293103 Z M211.393103,84.9931033 L209.894827,96.9793103 L201.722413,96.9793103 C199.69139,97.4672706 198.048689,98.9559681 197.363793,100.92931 L191.915517,140.156896 L179.793103,140.156896 L184.424137,101.065517 C184.424137,101.065517 184.151724,95.3448276 190.00862,89.6241379 C190.00862,89.6241379 194.094827,85.1293103 198.589655,84.9931033 L211.393103,84.9931033 Z M219.701724,75.1862068 L210.984482,140.156896 L224.605172,140.156896 L228.827586,110.327586 L249.667241,140.156896 L265.603448,140.156896 L239.860345,104.334483 L255.524137,87.1724138 L253.20862,73.687931 L230.598275,98.4775861 L234.275862,64.8344829 L219.701724,75.1862068 L219.701724,75.1862068 Z" id="Shape" fill="#414042"></path>
            <path d="M257.294827,74.2327587 L277.589655,79.9534484 L265.467241,55.9810344 L283.855172,33.3706898 L256.341379,40.0448275 L242.856896,17.7068966 L237.40862,45.6293105 L209.894827,55.0275863 L230.189655,63.7448275 L216.432758,73.0068967 L200.087931,66.060345 C200.087931,66.060345 191.098275,61.9741381 191.098275,55.0275863 C191.098275,48.0810346 200.224138,45.4931035 200.224138,45.4931035 L227.465517,37.048276 L231.960344,10.6241379 C231.960344,10.6241379 234.139655,0 241.35862,0 C248.577586,0 251.574137,8.44482747 255.251724,13.8931034 L262.743103,26.5603448 L289.712069,19.4775864 C289.712069,19.4775864 311.913793,14.8465518 298.701724,33.6431035 L279.496551,56.1172414 L290.801724,78.3189656 C290.801724,78.3189656 299.655172,96.2982759 278.815517,93.9827585 L259.201724,87.7172415 L257.022413,74.2327587 L257.294827,74.2327587 Z" id="Path" fill="#E06A1A"></path>
        </g>
        <g id="trino" transform="translate(2229.587654, 787.000203)" fill-rule="nonzero">
            <path d="M36.0430977,140.130318 C38.3717248,138.586337 32.2717343,139.168494 31.7655109,138.130736 C29.3505165,137.929231 26.960362,137.496969 24.6277627,136.839867 C20.2489312,135.726176 9.871354,128.714983 8.78297399,122.134081 C7.69459397,115.553178 8.78297399,102.77104 13.414917,95.2789354 C16.3733175,90.6880084 20.178675,86.7022615 24.6277627,83.5345553 C24.6277627,83.5345553 15.5916772,62.045377 14.807031,45.8209209 C14.0223848,29.5964647 15.1866985,0.539248237 25.918632,0.00771387606 C36.6505655,-0.523820485 34.7522283,26.5338138 33.0563803,44.1250729 C31.9683125,55.8126556 31.7905988,67.5671458 32.5248458,79.2822797 C37.0373957,77.8390379 41.7346493,77.0547415 46.4712973,76.9536527 C50.6366361,76.858945 54.7988323,77.2496818 58.8737678,78.1179663 C58.8737678,78.1179663 62.2148414,53.1611584 73.4023759,37.6201037 C84.5899105,22.0790489 96.1824236,6.08239317 103.775773,10.6130916 C111.369122,15.1437901 101.725569,31.3429351 95.01811,39.7715525 C88.3106515,48.20017 76.667516,60.8557523 72.794908,67.6138332 C70.2604031,72.112999 68.0198961,76.7715626 66.0874495,81.5602846 C72.9963768,85.1099101 78.6503484,90.6932072 82.2865945,97.5569403 C87.5260054,108.390118 88.0322287,121.830347 85.1973783,127.500047 C82.206984,132.820062 77.0019722,136.5313 70.9978154,137.624513 C67.6567417,137.877625 53.507801,141.370565 53.507801,141.370565 L36.0430977,140.130318 Z" id="Path" fill="#FFFFFF"></path>
            <path d="M60.7467938,78.3204555 C60.7467938,78.3204555 69.1754114,56.2997428 76.7434495,43.8972724 C84.3114877,31.4948019 94.4612643,22.1549825 97.6504711,24.0533197 C100.839678,25.9516569 91.1201907,37.5947924 82.6662619,48.9088829 C75.724132,58.9308686 69.4339721,69.3891049 63.8347559,80.2187929 L60.7467938,78.3204555 Z M26.9310786,82.1171301 L29.3356392,80.2187929 C29.3356392,80.2187929 29.0065941,58.1980801 29.3356392,44.7831631 C29.6646843,31.3682461 30.3733969,14.6375668 25.8933209,14.8147449 C21.4132448,14.991923 18.2999716,27.8499944 20.046442,46.149966 C21.3378,58.3095129 23.6406543,70.3402334 26.9310786,82.1171301 L26.9310786,82.1171301 Z" id="Shape" fill="#DD00A1"></path>
            <path d="M14.4526747,124.462708 C14.4523637,126.21722 15.3882061,127.838589 16.9076063,128.715935 C18.4270065,129.593281 20.2990746,129.593281 21.8184748,128.715935 C23.337875,127.838589 24.2737174,126.21722 24.2734064,124.462708 C24.2737174,122.708196 23.337875,121.086826 21.8184748,120.20948 C20.2990746,119.332135 18.4270065,119.332135 16.9076063,120.20948 C15.3882061,121.086826 14.4523637,122.708196 14.4526747,124.462708 L14.4526747,124.462708 Z" id="Path" fill="#F9D8D2"></path>
            <path d="M72.4658627,124.462708 C72.4658627,126.217012 73.4017731,127.838057 74.9210456,128.715209 C76.4403181,129.592362 78.3121391,129.592362 79.8314116,128.715209 C81.3506842,127.838057 82.2865945,126.217012 82.2865945,124.462708 C82.2865945,122.708403 81.3506842,121.087358 79.8314116,120.210206 C78.3121391,119.333053 76.4403181,119.333053 74.9210456,120.210206 C73.4017731,121.087358 72.4658627,122.708403 72.4658627,124.462708 L72.4658627,124.462708 Z" id="Path" fill="#F9D8D2"></path>
            <path d="M56.5198295,124.032418 C56.3386078,123.874108 56.068272,123.874108 55.8870504,124.032418 C55.8870504,124.032418 54.444314,126.563534 52.3181762,126.715401 C50.864116,126.666598 49.4929005,126.026697 48.5215015,124.94362 L48.5215015,121.501302 C49.8883044,120.767278 52.0903757,118.489273 52.0903757,117.704627 C51.7024574,115.958601 50.0741717,114.77538 48.2937011,114.94571 C45.7625847,114.94571 43.9908032,116.590936 43.9908032,117.957739 C43.9908032,119.324541 46.7750313,121.071012 47.5596774,121.602546 L47.5596774,125.272665 C46.7733124,126.314369 45.5717673,126.961355 44.269226,127.044446 C42.2443328,127.044446 40.725663,124.310841 40.725663,124.285529 C40.6027508,124.059766 40.3240292,123.970575 40.0928839,124.08304 C39.8844482,124.195062 39.796468,124.448005 39.8903947,124.665197 C39.8903947,124.817064 41.6874873,127.930337 44.269226,127.930337 C45.7339678,127.880615 47.1109277,127.219674 48.0659006,126.107933 C49.1356509,127.196186 50.5677894,127.853709 52.0903757,127.955648 L52.4447321,127.955648 C54.2894052,127.604539 55.8785666,126.442871 56.772941,124.791753 C56.9433077,124.615228 56.9433077,124.335498 56.772941,124.158974 C56.6997099,124.097451 56.6129864,124.054089 56.5198295,124.032418 L56.5198295,124.032418 Z" id="Path" fill="#10110E"></path>
            <path d="M24.6277627,83.5345553 C24.6277627,83.5345553 17.717815,65.8167405 16.2497674,56.4262986 C14.7817199,47.0358567 13.718651,31.6719802 15.4904325,21.3703364 C16.202116,16.5964964 17.2080415,11.8711827 18.502461,7.22139561 C18.502461,7.22139561 15.1866985,31.2416903 16.4269455,41.7458235 C17.6671925,52.2499567 24.6277627,83.5345553 24.6277627,83.5345553 Z M58.8737678,78.0926551 C58.8737678,78.0926551 63.9360006,51.2881324 71.3015493,40.7333769 C78.667098,30.1786214 87.905673,17.4724171 92.4363713,14.2325881 L97.0430032,10.992759 C97.0430032,10.992759 78.4646086,30.3811108 71.3015493,46.4283888 C64.13849,62.4756668 58.8737678,78.0926551 58.8737678,78.0926551 Z" id="Shape" fill="#E5E5E5"></path>
            <path d="M29.3609503,108.466052 C27.8048639,108.466052 26.4019998,109.403416 25.8065114,110.841052 C25.2110229,112.278689 25.5401813,113.93348 26.6405006,115.033799 C27.7408198,116.134118 29.3956109,116.463276 30.8332472,115.867788 C32.2708836,115.272299 33.2082473,113.869435 33.2082473,112.313349 C33.2084295,110.208159 31.5165806,108.493752 29.4115727,108.466052 L29.3609503,108.466052 Z M30.3733969,112.034926 C29.7862802,112.034926 29.310328,111.558974 29.310328,110.971857 C29.310328,110.38474 29.7862802,109.908788 30.3733969,109.908788 C30.9605136,109.908788 31.4364658,110.38474 31.4364658,110.971857 C31.4432593,111.253823 31.3377225,111.526931 31.1430882,111.73106 C30.948454,111.935189 30.6806779,112.053604 30.398708,112.060237 L30.3733969,112.034926 Z M67.2011406,108.466052 C65.0764045,108.45212 63.3426626,110.163248 63.3286994,112.287984 C63.3147362,114.412719 65.0258394,116.146486 67.1505751,116.16048 C69.2753108,116.174474 71.0091021,114.463396 71.0231265,112.33866 C71.0298615,111.318287 70.6309676,110.337032 69.9142015,109.610773 C69.1974353,108.884513 68.2215141,108.472743 67.2011406,108.466052 L67.2011406,108.466052 Z M68.3401431,112.034926 C68.0581771,112.04172 67.7850688,111.936183 67.5809402,111.741548 C67.3768115,111.546914 67.2583965,111.279138 67.2517623,110.997168 C67.2511332,110.415299 67.7082812,109.935852 68.2895207,109.908788 C68.5714867,109.901995 68.844595,110.007532 69.0487236,110.202166 C69.2528522,110.3968 69.3712672,110.664576 69.3779008,110.946546 C69.3846962,111.2218 69.2818268,111.488471 69.0919389,111.687853 C68.902051,111.887235 68.6407118,112.002983 68.3654542,112.009615 L68.3401431,112.034926 Z" id="Shape" fill="#10110E"></path>
            <path d="M13.3136723,113.781396 C13.3136723,127.98403 29.2920661,139.497539 49.0024137,139.497539 C68.7127613,139.497539 84.6911551,127.98403 84.6911551,113.781396 C84.6911551,99.5787629 68.7127613,88.0652536 49.0024137,88.0652536 C29.2920661,88.0652536 13.3136723,99.5787629 13.3136723,113.781396 Z" id="Path" fill="#8ACCCE" opacity="0.2"></path>
            <path d="M92.2085707,99.4805886 L92.2085707,82.4714865 C94.9408775,81.8475981 96.9196491,79.4751443 97.0430032,76.6752299 C96.6787238,73.2660699 93.8020783,70.6804275 90.3735114,70.6804275 C86.9449444,70.6804275 84.068299,73.2660699 83.7040196,76.6752299 C83.8502925,79.4833966 85.8462611,81.8516703 88.5890743,82.4714865 L88.5890743,99.050299 L88.0828511,99.050299 C83.0206182,81.4843512 68.0617203,70.4993059 48.5215015,70.4993059 C28.9812828,70.4993059 13.9464514,81.3831065 8.98546324,99.050299 L7.2896153,99.050299 C3.48620206,98.876912 0.244356317,101.781065 0,105.580579 L0,118.590518 C0.21781151,122.406526 3.47196831,125.333007 7.2896153,125.146109 L9.59293117,125.146109 C11.5259052,130.131728 14.6447956,134.571151 18.6796391,138.080114 L15.4144989,141.04152 C15.0148326,141.380366 14.7662584,141.86419 14.7235305,142.38642 C14.6808027,142.908649 14.8474262,143.426444 15.1866985,143.825748 C22.6028697,152.760589 34.7269173,158 48.420257,158 C62.1135967,158 74.2629556,152.937767 81.6791265,143.825748 C82.3884225,142.985843 82.2866682,141.730873 81.451326,141.016209 L78.1608747,138.00418 C82.1856859,134.516653 85.3038498,130.10432 87.2475826,125.146109 L89.778699,125.146109 C93.6010971,125.332448 96.8520055,122.387375 97.0430032,118.565206 L97.0430032,105.580579 C96.9517195,102.704112 94.9881395,100.226506 92.2085707,99.4805886 L92.2085707,99.4805886 Z M48.5215015,89.3561231 C66.5936727,89.3561231 81.2741479,101.25237 81.2741479,115.856912 C81.2741479,131.676389 64.7965801,138.63696 48.5215015,138.63696 C32.246423,138.63696 15.7688552,131.625767 15.7688552,115.730356 C15.7688552,101.25237 30.3733969,89.2295673 48.5215015,89.2295673 L48.5215015,89.3561231 Z" id="Shape" fill="#FFFFFF"></path>
            <path d="M93.4235066,114.312931 L88.5890743,114.312931 L88.5890743,111.781815 C88.5890834,108.55882 88.2583052,105.344335 87.6019389,102.188883 L89.6774543,102.188883 C91.5568367,102.058445 93.1872347,103.473721 93.3222621,105.352779 L93.4235066,114.312931 Z M89.778699,121.956902 L87.2475826,121.956902 C87.7282452,120.144223 88.0834426,118.300579 88.3106515,116.439069 L93.3728843,116.439069 L93.3728843,118.590518 C93.3595582,119.490083 92.9893751,120.3475 92.3437932,120.974094 C91.6982112,121.600688 90.8301289,121.945118 89.930566,121.931591 L89.778699,121.931591 L89.778699,121.956902 Z M48.5215015,154.658926 C36.3974539,154.658926 25.5895869,150.305406 18.806195,142.56019 L22.0966463,139.497539 C29.8751925,144.689107 39.0717209,147.341952 48.420257,147.090888 C57.771788,147.365526 66.9753422,144.710654 74.7438676,139.497539 L78.1608747,142.56019 C71.4534163,150.305406 60.7467938,154.658926 48.5215015,154.658926 Z M7.2896153,102.315439 L9.44106419,102.315439 C8.80541968,105.47362 8.48324791,108.686859 8.47924002,111.90837 C8.42861263,112.751316 8.42861263,113.596541 8.47924002,114.439487 L3.77136342,114.439487 L3.77136342,105.580579 C3.74306558,103.814848 5.14447755,102.356928 6.90994777,102.315439 L7.2896153,102.315439 Z" id="Shape" fill="#515151"></path>
            <path d="M48.5215015,87.0528071 C44.4191569,87.0758483 40.3395119,87.6635216 36.3974539,88.7992774 L36.3974539,75.5615387 C40.3426356,74.4546876 44.4241199,73.9093536 48.5215015,73.9416242 C52.6272057,73.9093302 56.7170483,74.4546425 60.6708604,75.5615387 L60.6708604,88.875211 C56.7381153,87.6499439 52.640659,87.0353254 48.5215015,87.0528071 L48.5215015,87.0528071 Z" id="Path" fill="#000000"></path>
            <path d="M3.64480757,116.439069 L8.70704042,116.439069 C8.95508039,118.282451 9.31858855,120.108445 9.79542059,121.90628 L7.26430416,121.90628 C5.38492177,122.036719 3.75452374,120.621443 3.61949644,118.742385 L3.61949644,116.439069 L3.64480757,116.439069 Z" id="Path" fill="#515151"></path>
            <path d="M87.3488273,76.6752299 C87.3488273,78.1849586 88.7086906,79.4088355 90.386167,79.4088355 C92.0636433,79.4088355 93.4235066,78.1849586 93.4235066,76.6752299 C93.4235066,75.1655011 92.0636433,73.9416242 90.386167,73.9416242 C88.7086906,73.9416242 87.3488273,75.1655011 87.3488273,76.6752299 L87.3488273,76.6752299 Z" id="Path" fill="#515151"></path>
        </g>
        <g id="pinot" transform="translate(478.700000, 495.203842)" fill="#722F37" fill-rule="nonzero">
            <path d="M48.7458871,6.09282169 C47.2951166,4.64205123 47.1983986,2.99784472 48.552451,1.3052792 C50.5351706,-1.2577486 53.8235836,0.193021855 53.8235836,3.5781529 C53.8235836,6.96328396 50.9704018,8.36569539 48.7458871,6.09282169 Z" id="Path" transform="translate(50.709066, 3.601658) scale(-1, 1) rotate(-180.000000) translate(-50.709066, -3.601658) "></path>
            <path d="M24.1311485,15.3196482 C22.2451469,13.4336466 22.777096,10.1935926 25.1466878,9.27477136 C27.9998697,8.21087303 30.5628974,12.8049795 28.3867418,15.1745712 C27.3712025,16.2868285 25.1466878,16.3835466 24.1311485,15.3196482 Z" id="Path" transform="translate(26.096005, 12.591562) scale(-1, 1) rotate(-180.000000) translate(-26.096005, -12.591562) "></path>
            <path d="M48.60081,157.25898 C47.5369117,156.533595 47.5369117,156.436877 47.5369117,142.412763 C47.5369117,126.744442 47.4401937,126.115775 44.6353708,126.115775 C41.975625,126.115775 41.7338299,126.889519 41.7338299,135.110551 C41.7338299,142.509481 41.7338299,142.606199 40.4764955,143.815174 C39.5576742,144.782354 38.977366,144.97579 37.9618267,144.733995 C35.3987989,144.105328 35.447158,144.4922 35.447158,128.29193 L35.447158,113.203918 L38.1552628,114.606329 C40.4281365,115.718586 41.5403938,115.960382 44.4419347,115.960382 C51.2605558,115.960382 56.3382524,111.946583 57.9824589,105.22468 C58.7078441,102.371498 58.7078441,101.839549 57.9824589,99.0347263 C56.6767655,94.0053887 53.0014804,90.0883085 48.3106559,88.8309741 C45.215679,88.0088709 40.7666496,88.492461 37.9134677,89.9432315 L35.447158,91.2489249 L35.447158,84.2368677 C35.447158,77.4182466 35.3987989,77.1764515 34.2381826,76.0641942 C33.6095154,75.387168 32.7390531,74.8552188 32.303822,74.8552188 C31.8685909,74.8552188 30.9981286,75.387168 30.3694614,76.0641942 L29.160486,77.2248105 L29.160486,112.962123 L29.160486,148.699435 L27.9515106,149.231384 C26.6458172,149.811692 25.5335599,149.618256 24.2278665,148.45764 C23.5508403,147.92569 23.3574042,146.95851 23.3574042,144.637277 L23.3574042,141.590659 L17.7961175,141.590659 L12.1864718,141.590659 L11.3160095,139.559581 C10.4455472,137.431784 2.94989991,110.882685 1.01553931,103.145243 C0.19343606,99.7117525 6.87222936e-15,97.3905198 6.87222936e-15,92.0226691 C6.87222936e-15,84.1401497 0.918821284,79.9329154 3.96543923,73.6462434 C8.31775057,64.6031076 14.4593455,58.7516668 25.5819189,53.1903801 C31.6267958,50.1437622 32.9808482,49.0315048 34.6734137,45.5980145 C36.4626973,41.9227294 37.2364415,37.9572902 37.9134677,28.7690773 C38.3970579,22.3373283 38.3486989,20.9832759 37.8167497,20.4996858 C37.4298776,20.1611727 32.7874121,18.5169662 27.4679205,16.8727596 C22.1484288,15.1801941 17.6993995,13.7294237 17.6026814,13.6327056 C17.5059634,13.5359876 27.7097156,13.4392696 40.3314185,13.4876286 C53.8719427,13.4876286 62.7700014,13.6810647 62.0446162,13.9228597 C61.36759,14.1646548 56.6284065,15.7121433 51.4539919,17.3079908 L42.072343,20.3062497 L42.3624971,27.1732298 C42.7010102,35.2008263 43.2813184,39.1662655 44.7320888,43.3251408 C46.3762953,48.0159653 48.1172199,49.660172 55.080918,53.1903801 C68.1378521,59.7672062 75.5851404,67.6013666 78.9702714,78.4821449 C80.5177599,83.3180464 80.807914,92.2161052 79.6956566,99.2765214 C78.1481682,109.286837 69.5886225,139.849735 67.992775,140.961992 C67.4608259,141.397223 65.0912341,141.590659 60.4971277,141.590659 L53.8235836,141.590659 L53.8235836,148.844512 C53.8235836,155.469697 53.7268656,156.195082 52.8564033,157.065544 C51.695787,158.226161 50.0999395,158.322879 48.60081,157.25898 Z" id="Path" transform="translate(40.183298, 85.737383) scale(-1, 1) rotate(-180.000000) translate(-40.183298, -85.737383) "></path>
            <path d="M36.2692612,19.776121 C35.1570039,18.5671456 35.2053629,15.6656047 36.3176202,14.6984244 C37.2364415,13.8279622 39.1708021,13.6345261 40.0896234,14.2631933 C41.0568037,14.8918605 41.8305479,16.8745801 41.5403938,17.9868375 C40.9117266,20.5498653 37.8651087,21.5654046 36.2692612,19.776121 Z" id="Path" transform="translate(38.530506, 17.286108) scale(-1, 1) rotate(-180.000000) translate(-38.530506, -17.286108) "></path>
            <path d="M40.7666496,75.5639317 C38.1069038,73.7262892 37.1397235,72.0337236 37.1397235,69.1321827 C37.1397235,65.0216665 39.8478283,62.1201256 44.0067036,61.7816125 C48.407374,61.4430994 51.889223,64.7798714 51.889223,69.3739778 C51.889223,74.9836236 45.264038,78.6105497 40.7666496,75.5639317 Z" id="Path" transform="translate(44.514473, 69.214444) scale(-1, 1) rotate(-180.000000) translate(-44.514473, -69.214444) "></path>
        </g>
        <g id="dagster_logo_primary" transform="translate(1950.000000, 745.000000)" fill-rule="nonzero">
            <path d="M42.259785,116.096361 C42.2619025,116.772282 42.4101275,117.440808 42.695637,118.05959 C42.9807936,118.678708 43.3972352,119.234973 43.9181401,119.693766 C44.4393979,120.152558 45.0541786,120.504131 45.7243672,120.726301 C46.3942029,120.948807 47.1053299,121.037204 47.8129276,120.985779 C74.7062308,119.152289 100.106344,101.026119 108.215661,72.7147532 C108.641632,71.0862918 109.924484,70.2698763 111.633659,70.2698763 C112.509598,70.3034875 113.336481,70.6648077 113.935028,71.2751866 C114.533574,71.8855655 114.855434,72.6962671 114.831083,73.5311687 C114.831083,79.8440197 106.310971,96.3417291 94.127231,105.915872 C93.5060978,106.413318 93.0113087,107.03815 92.6788613,107.743312 C92.3464138,108.448475 92.1854839,109.216154 92.2077176,109.988875 C92.2200697,110.617404 92.362648,111.237194 92.6269825,111.812953 C92.8909641,112.388713 93.2721141,112.909014 93.7478456,113.344278 C94.2239301,113.779543 94.7850675,114.120696 95.3998482,114.348916 C96.0146289,114.577136 96.6703479,114.687045 97.3299491,114.673264 C98.3971688,114.673264 100.106344,114.062213 102.241489,112.228387 C110.761602,104.894093 127,84.3230449 127,61.7131433 C127,28.5644575 100.091168,0 62.5376667,0 C29.0285185,0 0,26.0718864 0,56.2170439 C0,76.1767043 16.6492984,91.2469471 38.6310966,91.2469471 C55.4959219,91.2469471 71.0778953,79.8440197 75.3478332,64.1576841 C75.7738035,62.5295587 77.0520674,61.7131433 78.7608896,61.7131433 C79.6375344,61.7467545 80.4647709,62.1077385 81.0643762,62.7177813 C81.6636286,63.3281603 81.9865472,64.1388618 81.9636077,64.9744356 C81.9636077,72.103366 67.8751772,96.9672331 39.272699,96.9672331 C32.4415748,96.9672331 23.9064282,95.1337434 17.9273152,91.8724511 C17.1269004,91.5027281 16.25502,91.294675 15.3662701,91.2610638 C14.6857763,91.2361915 14.0072236,91.345764 13.3732795,91.5827227 C12.7393354,91.8196815 12.1637638,92.1793211 11.6826679,92.6384498 C11.2016073,93.0979145 10.8254335,93.646785 10.5778978,94.2514501 C10.3303268,94.855779 10.2167229,95.502458 10.2441798,96.1508176 C10.2718132,96.9813498 10.521537,97.7913791 10.9697411,98.503936 C11.4179098,99.216829 12.0497011,99.8087218 12.805225,100.22382 C20.7038865,104.521345 30.0960559,106.742035 39.6986693,106.742035 C63.6052394,106.742035 85.376664,91.2610638 91.7817473,68.4505034 C92.2077176,66.8223781 93.4905694,66.0056265 95.1948037,66.0056265 C96.0714485,66.0392377 96.898685,66.4002217 97.4979374,67.0106007 C98.0975427,67.6209796 98.4204613,68.4316812 98.3971688,69.267255 C98.3971688,78.6356979 80.896035,108.780889 47.1713253,111.225766 C45.8665926,111.317861 44.6433837,111.866059 43.7370939,112.765158 C42.8304512,113.663921 42.3042525,114.850395 42.259785,116.096361 Z" id="Path" fill="#4F43DD"></path>
            <path d="M76.3503988,38.5862059 C80.9425149,38.5540344 85.4501329,39.7378156 89.3500693,42 C89.7440414,39.9879658 89.9616238,37.9493408 90,35.9044784 C90,26.4601624 82.2800484,18 72.8803462,18 C65.5705621,18 61.0006268,23.6478776 61.0006268,30.6249649 C60.9657713,34.3940576 62.3856904,38.0491382 65.0005525,40.9225818 C68.5434846,39.346833 72.4254651,38.547797 76.3503988,38.5862059 Z" id="Path" fill="#FFFFFF"></path>
            <path d="M98.0565038,72.9949957 C99.4055574,68.4654238 100,65.3220325 100,63.2802937 C99.9588659,62.3988287 99.574098,61.5666914 98.9257806,60.955814 C98.2770992,60.3452941 97.4143747,60.0028596 96.5159764,60 C95.6787332,60.0153702 94.8713396,60.3049025 94.2212021,60.8228436 C93.5710646,61.3411422 93.1160411,62.0574665 92.9282074,62.8588633 C92.5612765,64.3469163 91.77536,68.3789216 91,70.9382441 C91.3203365,69.9802854 91.6133716,69.0069565 91.8787413,68.0182573 C92.318112,66.2817784 93.6416842,65.4181858 95.3991668,65.4181858 C96.3030254,65.4528582 97.1562854,65.8356842 97.7747533,66.4837361 C98.3928571,67.1321455 98.7262983,67.9935934 98.7026371,68.8818499 C98.661139,70.2776815 98.4332632,71.6624323 98.0251982,73 L98.0565038,72.9949957 Z" id="Path" fill="#352D8E"></path>
            <path d="M116,69.1042467 C115.957508,68.271103 115.574351,67.484978 114.928615,66.9075617 C114.282878,66.3298072 113.423954,66.005074 112.528712,66 C111.694847,66.0155601 110.890037,66.2898921 110.242484,66.7800363 C109.594932,67.2701805 109.141681,67.9480611 108.954643,68.7054337 C108.583108,70.147114 107.783746,74.0205726 107,76.4378056 L107.035955,76.4378056 C107.417659,75.361112 107.773577,74.2705495 108.06739,73.1603678 C108.50575,71.5167441 109.826278,70.699837 111.585166,70.699837 C112.486219,70.7323103 113.337153,71.0949291 113.953109,71.7085396 C114.569065,72.3221501 114.90065,73.1373658 114.87559,73.9772748 C114.850531,74.9974784 114.69981,76.0115932 114.426698,77 C115.520237,73.4245518 116,70.8392017 116,69.1042467 Z" id="Path" fill="#352D8E"></path>
            <path d="M76.6580196,38.1079929 C78.9243318,38.1036038 81.1808543,38.39565 83.366052,38.9760286 C84.513543,37.464816 85.0865892,35.6176659 84.9893916,33.745869 C84.8925437,31.874106 84.1306963,30.0917462 82.8328637,28.6988039 C81.5350311,27.3058278 79.7798804,26.3873509 77.8631998,26.0978707 C75.9461696,25.8083904 73.9847361,26.1655984 72.3086021,27.1093972 L75.7842901,32.6350805 L69.2748485,29.9154043 C68.3930775,31.289811 67.9511431,32.8850923 68.0042871,34.5011377 C68.0570815,36.1173519 68.6028565,37.6822469 69.5727346,39 C71.8827508,38.3986886 74.26584,38.0985394 76.6580196,38.1079929 Z" id="Path" fill="#163B36"></path>
            <path d="M25.5,74 C28.5375637,74 31,71.7613148 31,69 C31,66.2386852 28.5375637,64 25.5,64 C22.4624363,64 20,66.2386852 20,69 C20,71.7613148 22.4624363,74 25.5,74 Z" id="Path" fill="#352D8E"></path>
            <path d="M25.5,54 C28.5375637,54 31,51.761588 31,48.999824 C31,46.238412 28.5375637,44 25.5,44 C22.4624363,44 20,46.238412 20,48.999824 C20,51.761588 22.4624363,54 25.5,54 Z" id="Path" fill="#352D8E"></path>
            <path d="M14.5,64 C17.5375637,64 20,61.761588 20,59.000176 C20,56.238412 17.5375637,54 14.5,54 C11.4624363,54 9,56.238412 9,59.000176 C9,61.761588 11.4624363,64 14.5,64 Z" id="Path" fill="#352D8E"></path>
            <path d="M37.6179615,91 L38.6196869,91 C55.4751269,91 71.0484289,79.7553861 75.3159905,64.2863772 C75.7417238,62.6808088 77.0189237,61.8753729 78.7271476,61.8753729 C79.6033045,61.9085184 80.4300807,62.2645012 81.0289995,62.8664236 C81.6282712,63.468346 81.9510101,64.2678157 81.9280833,65.0918131 C81.851543,66.7354988 81.4561437,68.3520053 80.7609322,69.8617832 C80.8815625,69.6864435 80.9873786,69.5021545 81.0762641,69.3109049 C82.3439404,66.5876699 82.9985891,63.6473318 83,60.6748426 C83,56.055353 79.5835522,53.0417633 74.6796833,53.0417633 C66.1293931,53.0417633 64.4162311,60.0580046 60.8096671,67.5591647 C57.0680113,75.3476964 50.195611,83.7719589 32.8643515,83.7719589 C14.8568215,83.7719589 -3.64656247,71.9197879 0.86657003,47.819357 C0.921668452,47.5180643 0.966746092,47.2495857 1.00181001,47 C0.340511138,50.1136891 0.00497536526,53.280411 0,56.4554193 C0.0500905004,75.8561485 16.1741962,90.5482267 37.6179615,91 Z" id="Path" fill="#352D8E"></path>
        </g>
        <g id="delta-lake-logo-a1c0d80d23c17de5f5d7224cb40f15dc" transform="translate(459.000000, 214.000000)" fill="#00ADD4" fill-rule="nonzero">
            <path d="M117.846714,99.6648552 L63.2140315,1.64371021 C61.9922458,-0.547903403 58.9738608,-0.547903403 57.7520751,1.64371021 L11.3233965,84.9439576 C10.507506,86.4093359 11.9802088,88.1010173 13.4438917,87.3808048 C14.0449447,87.0839431 14.7386567,86.7853605 15.5004278,86.4876385 L15.4848479,86.5203361 C15.4848479,86.5203361 16.7533732,86.004055 18.8968282,85.2915871 C21.2592206,84.5300723 23.8479304,83.8089996 26.1914631,83.1997877 C32.7489267,81.6113627 41.3416065,80.3180783 49.0896962,81.6681535 C56.220333,82.9098099 61.186195,84.9155622 64.8031729,86.8868961 C66.4611937,87.7921087 68.0273753,85.5204719 66.6866911,84.1531871 C61.5010713,78.8647468 53.5217446,72.48093 41.3850658,69.805733 C40.8537122,69.6887094 40.5872154,69.0597066 40.8619122,68.5675186 L59.140319,35.7724777 C59.7413718,34.6951709 61.2247347,34.6951709 61.8257875,35.7724777 L96.7344207,98.405129 C97.4699522,99.7242274 96.8533191,101.409025 95.4724554,101.894329 C92.7369672,102.853752 89.4693055,103.571383 85.811328,103.571383 C83.4841951,103.571383 81.1431225,103.283126 78.7963099,102.710914 C78.7946697,102.710914 72.0313886,101.590584 62.9893541,95.9295608 C53.9473194,90.2693981 36.5135026,83.0483453 16.9509909,94.7386722 C8.61578802,100.359253 3.06199279,108.04668 0.135446908,112.873049 C-0.322927748,113.62854 0.468363027,114.529451 1.22111425,114.107821 C7.94257589,110.339829 26.0651846,101.440863 42.3952941,104.640085 C52.101521,106.54086 63.1935316,114.230008 74.7242373,118.639049 C93.7988547,126.056289 112.499557,113.629401 112.539737,113.602726 C114.516733,112.231999 115.67784,111.189972 115.875458,111.009274 L116.114075,110.790715 C119.161979,107.999354 119.889311,103.328731 117.846714,99.6648552" id="Glpyh"></path>
        </g>
        <g id="elixirnote" transform="translate(1257.000000, 412.000000)" fill-rule="nonzero">
            <rect id="Rectangle" fill="#288ED7" x="0" y="0" width="324" height="324"></rect>
            <g id="Group" transform="translate(48.000000, 60.000000)" fill="#FFFFFF">
                <path d="M117.489395,0 L0,205 L67.9792165,205 C73.7847554,204.190737 78.2782027,202.486815 81.4595583,199.888235 C84.6409139,197.289655 89.4017905,191.434503 95.7421877,182.322779 L156.684211,76.7516735 L117.489395,0 Z" id="Path-5"></path>
                <path d="M170.982282,102.5 L137.154988,162.22492 C135.550309,166.477361 134.539848,169.461558 134.123608,171.177511 C133.337931,174.416459 132.902316,176.899211 132.816761,178.625768 C132.476973,185.482936 134.890381,190.399946 136.659901,193.457391 C139.628837,198.587235 147.919914,202.434771 161.53313,205 L229,205 L170.982282,102.5 Z" id="Path-6"></path>
            </g>
        </g>
    </g>
</svg>