<?xml version="1.0" encoding="UTF-8"?>
<svg width="1150px" height="1150px" viewBox="0 0 1150 1150" version="1.1" xmlns="http://www.w3.org/2000/svg" xmlns:xlink="http://www.w3.org/1999/xlink">
    <title>exilir-note-2</title>
    <g id="exilir-note-2" stroke="none" stroke-width="1" fill="none" fill-rule="evenodd">
        <g id="elixir-note" transform="translate(175.000000, 189.000000)" fill="#288ED7" fill-rule="nonzero">
            <path d="M396.872064,0 C431.164224,0 444.023784,21.4362898 461.169863,42.8725775 L465.456383,47.1598367 L786.945386,664.524963 C799.804946,690.24851 808.377982,715.972056 786.945386,741.695603 C756.939742,780.280924 705.501503,775.993662 679.782383,728.83383 L649.776739,668.812224 L585.478942,548.769001 C581.192422,540.194489 572.619382,527.332716 564.046343,514.470942 L495.462022,647.375928 C482.602462,677.386736 465.456383,703.110283 452.596823,733.121091 C426.877703,780.280924 371.152944,784.568185 345.433824,741.695603 C328.287745,715.972056 336.860783,690.24851 349.720343,664.524963 L439.737263,497.321908 C452.596823,467.311104 469.742902,441.587557 482.602462,411.576751 C495.462022,390.140461 495.462022,372.99143 482.602462,351.55514 C452.596823,300.108047 431.164222,248.660953 401.158583,197.213859 C388.299023,205.788375 384.012504,218.650149 379.725982,231.511922 L251.130383,475.885622 L126.821305,720.259318 C113.961745,741.695603 101.102185,763.131889 71.0965433,771.706412 C28.2313442,780.280924 -10.3473357,741.695603 2.51222426,698.823022 C6.79874356,685.961248 11.0852649,677.386736 15.3717842,668.812224 C122.534783,463.023844 225.411263,261.522726 332.574264,55.734351 C345.433824,21.4362877 362.579903,0 396.872064,0 L396.872064,0 Z" id="Shape"></path>
        </g>
    </g>
</svg>