<svg width="18px" height="18px" viewBox="0 0 18 18" version="1.1" xmlns="http://www.w3.org/2000/svg"
     xmlns:xlink="http://www.w3.org/1999/xlink">
    <title>cloud</title>
    <g id="cloud" stroke="none" stroke-width="1" fill-rule="evenodd">
        <g transform="translate(1.333333, 3.666645)" class="jp-icon3" fill="#616161" fill-rule="nonzero" id="Shape">
            <path d="M1.45454545,6.18182007 C1.45454545,7.5876358 2.59418427,8.72727461 3.99999999,8.72727461 L12.7272727,8.72727461 C13.4121026,8.72614432 14.0382045,8.34030431 14.3470544,7.72907198 C14.6559044,7.11783965 14.595104,6.38491438 14.1897584,5.83292872 C13.7844128,5.28094305 13.1032914,5.0035448 12.4276364,5.11527461 C12.2365983,5.14693305 12.0408227,5.10109785 11.8836924,4.98792585 C11.7265621,4.87475385 11.6210531,4.7035908 11.5905455,4.51236553 C11.3112727,2.76145644 9.79309092,1.45454672 8,1.45454672 C6.69772291,1.45378496 5.49458383,2.14989379 4.84618182,3.27927461 C4.70784192,3.51928436 4.44516391,3.6598587 4.16872727,3.64182008 C3.46585071,3.59512671 2.77505062,3.84179311 2.2607162,4.32312027 C1.74638177,4.80444744 1.45454545,5.47739426 1.45454545,6.18182007 Z M16,6.90909281 C16,8.71657017 14.5347501,10.1818201 12.7272727,10.1818201 L4,10.1818201 C1.79090908,10.1818201 0,8.39091098 0,6.18182007 C0,4.03345644 1.69381819,2.28072916 3.81854545,2.18582007 C4.76969892,0.815726644 6.33211274,-0.00101128912 8,9.39781869e-07 C10.2858182,9.39781869e-07 12.252,1.51636552 12.8810909,3.64000189 C14.6268259,3.72214221 16,5.16142649 16,6.90909281 L16,6.90909281 Z"></path>
        </g>
    </g>
</svg>
