<svg width="18px" height="18px" viewBox="0 0 18 18" version="1.1" xmlns="http://www.w3.org/2000/svg">
    <g id="Group" fill="#616161" class="jp-icon3">
        <path d="M9,6.8127322e-16 C4.02954545,6.8127322e-16 6.8127322e-16,4.02954545 6.8127322e-16,9.00040908 C6.8127322e-16,13.9704545 4.02954545,18 9,18 C13.9704545,18 18,13.9704545 18,9.00040908 C18,4.02954545 13.9704545,6.8127322e-16 9,6.8127322e-16 Z M8.78850001,11.4547491 C8.44936363,11.4547491 8.17486364,11.17984 8.17486364,10.8411127 L8.17486364,9.82697637 C8.17486364,8.67579455 9.00450001,8.17588546 9.61036363,7.81138546 C10.2190909,7.44443092 10.5664091,7.20961274 10.6257273,6.63729455 C10.674,6.17706727 10.5565909,5.78924909 10.2767727,5.48529456 C9.93927272,5.1187491 9.37431818,4.88393092 8.80118182,4.90970365 C7.76577272,4.93056728 6.95454545,5.7172491 6.95454545,6.70070364 C6.95454545,7.03943092 6.68004546,7.31434001 6.34090908,7.31434001 C6.00177273,7.31434001 5.72727272,7.03943092 5.72727272,6.70070364 C5.72727272,5.04265819 7.06663637,3.71679456 8.77622728,3.68243092 C9.71099999,3.66484 10.6028182,4.02688545 11.1800454,4.65443092 C11.7008182,5.22061273 11.9315455,5.95002182 11.8464545,6.76411274 C11.7208636,7.97297638 10.8670909,8.48720365 10.2436364,8.86234 C9.62018181,9.23788546 9.40213637,9.40684001 9.40213637,9.82697637 L9.40213637,10.8411127 C9.40213637,11.17984 9.12763636,11.4547491 8.78850001,11.4547491 Z M7.77272727,13.2954545 C7.77272727,12.7305682 8.23056819,12.2727273 8.79545454,12.2727273 C9.36034089,12.2727273 9.81818183,12.7305682 9.81818183,13.2954545 C9.81818183,13.8603409 9.36034089,14.3181818 8.79545454,14.3181818 C8.23056819,14.3181818 7.77272727,13.8603409 7.77272727,13.2954545 Z" id="Shape"/>
    </g>
</svg>

