<svg xmlns="http://www.w3.org/2000/svg" width="16" viewBox="0 0 24 24">
  <g class="jp-icon3" transform="translate(2.000000, 2.000000)" fill="#616161" fill-rule="nonzero">
    <path d="M0,5 L5,5 L5,0 L0,0 L0,5 Z M7.5,20 L12.5,20 L12.5,15 L7.5,15 L7.5,20 Z M0,20 L5,20 L5,15 L0,15 L0,20 Z M0,12.5 L5,12.5 L5,7.49999998 L0,7.49999998 L0,12.5 Z M7.5,12.5 L12.5,12.5 L12.5,7.49999998 L7.5,7.49999998 L7.5,12.5 Z M15,0 L15,5 L20,5 L20,0 L15,0 Z M7.49999997,5 L12.5,5 L12.5,0 L7.49999997,0 L7.49999997,5 Z M15,12.5 L20,12.5 L20,7.49999998 L15,7.49999998 L15,12.5 Z M15,20 L20,20 L20,15 L15,15 L15,20 Z" id="Shape"></path>
  </g>
</svg>