<svg width="22px" height="14px" viewBox="0 0 22 14" version="1.1" xmlns="http://www.w3.org/2000/svg" xmlns:xlink="http://www.w3.org/1999/xlink">
    <title>Path 13</title>
    <defs>
        <linearGradient x1="1.02817535e-14%" y1="62.0964305%" x2="100%" y2="62.0964305%" id="linearGradient-1">
            <stop stop-color="#FF000C" offset="0%"/>
            <stop stop-color="#FEF200" offset="100%"/>
        </linearGradient>
        <path d="M15.7281555,-0.00599665079 L20.6864264,4.29854054 C21.1418236,5.0297481 21.4311717,5.54470065 21.5544707,5.84339819 C21.8303368,6.51169675 21.8326082,7.03189674 21.8811416,7.3981474 C22.125994,9.24589346 21.4525906,10.5908518 21.0177306,11.2365929 C20.6293232,11.8133548 19.8005836,13.0453538 18.4588861,13.2735623 C18.1096936,13.3329563 17.2293439,13.4175969 16.5250177,13.2735623 C16.1819178,13.2033985 15.690325,13.0015252 15.0502393,12.6679424 L12.9402683,10.517461 L12.9412683,10.513461 L11.1442683,8.68646095 L12.9402683,10.517461 L11.5874852,13.992461 L8.38026373,13.992461 L10.603644,8.13651192 L10.6042683,8.13546095 L7.87367408,5.35216721 L4.11947737,13.992461 L0.933268317,13.992461 L5.83565779,2.59900024 C6.25674757,2.07196057 6.61190512,1.75427802 6.90113044,1.6459526 C7.19035576,1.53762717 7.68340019,1.53762717 8.38026373,1.6459526 L11.8097073,4.96095129 L14.2022683,7.27746095 L14.2032683,7.27546095 L11.8102683,4.96146095 L12.0524137,4.32419875 L13.2782685,1.09669296 C13.6505325,0.616393019 13.9850043,0.309475606 14.2816838,0.175940725 C14.5783633,0.0424058445 15.0605205,-0.0182399475 15.7281555,-0.00599665079 Z M15.495626,3.95963827 L14.2032683,7.27546095 L16.8702982,9.85418274 C17.3883527,9.92400389 17.7450138,9.92400389 17.9402816,9.85418274 C18.2910999,9.72874195 18.56996,9.32258444 18.7020874,9.13578411 C18.8474907,8.93021441 19.008416,8.6319752 19.0181792,8.16942576 C19.0225231,7.96362986 18.9710518,7.58576791 18.8637654,7.0358399 L15.495626,3.95963827 Z" id="path-2"/>
    </defs>
    <g id="elixir" class="jp-icon-selectable" stroke="none" stroke-width="1" fill="none" fill-rule="evenodd">
        <mask id="mask-3" fill="white">
            <use xlink:href="#path-2" />
        </mask>
        <use id="Path-13" fill="url(#linearGradient-1)" xlink:href="#path-2"/>
    </g>
</svg>
