<svg width="189px" height="36px" viewBox="0 0 189 36" version="1.1" xmlns="http://www.w3.org/2000/svg">
    <title>elixirnote</title>
    <g id="guinsoolab-elixir" stroke="none" stroke-width="1" fill="none" fill-rule="evenodd">
        <g id="elixirnote" transform="translate(0.640625, 0.570312)" fill-rule="nonzero">
            <path d="M11.203125,35.3203125 C12.484375,35.3203125 13.6328125,35.1953125 14.6484375,34.9453125 C16.5390625,34.5078125 18.125,33.6640625 19.40625,32.4140625 C20.171875,31.6953125 20.8632812,30.7695312 21.4804688,29.6367188 C22.0976562,28.5039062 22.4609375,27.4765625 22.5703125,26.5546875 L22.5703125,26.5546875 L18.421875,26.5546875 C18.109375,27.6640625 17.578125,28.640625 16.828125,29.484375 C15.515625,30.9375 13.7578125,31.6640625 11.5546875,31.6640625 C9.1953125,31.6640625 7.453125,30.8945312 6.328125,29.3554688 C5.203125,27.8164062 4.6015625,25.7734375 4.5234375,23.2265625 L4.5234375,23.2265625 L22.921875,23.2265625 C22.921875,20.6953125 22.796875,18.8515625 22.546875,17.6953125 C22.265625,16.0078125 21.703125,14.53125 20.859375,13.265625 C19.984375,11.9375 18.7109375,10.8554688 17.0390625,10.0195312 C15.3671875,9.18359375 13.640625,8.765625 11.859375,8.765625 C8.328125,8.765625 5.46875,10.0234375 3.28125,12.5390625 C1.09375,15.0546875 0,18.328125 0,22.359375 C0,26.453125 1.0859375,29.6367188 3.2578125,31.9101562 C5.4296875,34.1835938 8.078125,35.3203125 11.203125,35.3203125 Z M18.5859375,19.875 L4.640625,19.875 C4.71875,17.71875 5.4140625,15.9414062 6.7265625,14.5429688 C8.0390625,13.1445312 9.6640625,12.4453125 11.6015625,12.4453125 C14.3046875,12.4453125 16.234375,13.4609375 17.390625,15.4921875 C18.015625,16.5859375 18.4140625,18.046875 18.5859375,19.875 L18.5859375,19.875 Z M32.4375,34.4296875 L32.4375,0 L28.21875,0 L28.21875,34.4296875 L32.4375,34.4296875 Z M43.0546875,4.78125 L43.0546875,0 L38.765625,0 L38.765625,4.78125 L43.0546875,4.78125 Z M43.0546875,34.4296875 L43.0546875,9.4453125 L38.765625,9.4453125 L38.765625,34.4296875 L43.0546875,34.4296875 Z M51.9375,34.4296875 L57.984375,25.0078125 L64.21875,34.4296875 L69.609375,34.4296875 L60.7734375,21.5625 L69.234375,9.4453125 L64.1015625,9.328125 L58.265625,18.1640625 L52.5,9.328125 L47.0390625,9.328125 L55.4296875,21.5625 L46.59375,34.4296875 L51.9375,34.4296875 Z M77.71875,4.78125 L77.71875,0 L73.4296875,0 L73.4296875,4.78125 L77.71875,4.78125 Z M77.71875,34.4296875 L77.71875,9.4453125 L73.4296875,9.4453125 L73.4296875,34.4296875 L77.71875,34.4296875 Z M88.4296875,34.4296875 L88.4296875,19.9921875 C88.4296875,18.2109375 89,16.6367188 90.140625,15.2695312 C91.28125,13.9023438 92.9140625,13.21875 95.0390625,13.21875 C95.2890625,13.21875 95.5195312,13.2265625 95.7304688,13.2421875 C95.9414062,13.2578125 96.171875,13.2890625 96.421875,13.3359375 L96.421875,13.3359375 L96.421875,8.8828125 C95.96875,8.8359375 95.6484375,8.8046875 95.4609375,8.7890625 C95.2734375,8.7734375 95.140625,8.765625 95.0625,8.765625 C93.390625,8.765625 91.9140625,9.37109375 90.6328125,10.5820312 C89.3515625,11.7929688 88.546875,12.8203125 88.21875,13.6640625 L88.21875,13.6640625 L88.21875,9.328125 L84.2109375,9.328125 L84.2109375,34.4296875 L88.4296875,34.4296875 Z" id="elixir" fill="#000000"></path>
            <path d="M104.296875,34.4296875 L104.296875,21.28125 C104.296875,19.640625 104.402344,18.3789062 104.613281,17.4960938 C104.824219,16.6132812 105.28125,15.7578125 105.984375,14.9296875 C106.859375,13.8984375 107.875,13.2109375 109.03125,12.8671875 C109.671875,12.6640625 110.492188,12.5625 111.492188,12.5625 C113.460938,12.5625 114.820312,13.34375 115.570312,14.90625 C116.023438,15.84375 116.25,17.078125 116.25,18.609375 L116.25,18.609375 L116.25,34.4296875 L120.539062,34.4296875 L120.539062,18.328125 C120.539062,15.796875 120.195312,13.8515625 119.507812,12.4921875 C118.257812,10.0078125 115.851562,8.765625 112.289062,8.765625 C110.664062,8.765625 109.1875,9.0859375 107.859375,9.7265625 C106.53125,10.3671875 105.273438,11.421875 104.085938,12.890625 L104.085938,12.890625 L104.085938,9.328125 L100.078125,9.328125 L100.078125,34.4296875 L104.296875,34.4296875 Z M136.335938,35.34375 C140.476562,35.34375 143.53125,34.0234375 145.5,31.3828125 C147.46875,28.7421875 148.453125,25.3984375 148.453125,21.3515625 C148.453125,17.1640625 147.335938,13.9921875 145.101562,11.8359375 C142.867188,9.6796875 140.132812,8.6015625 136.898438,8.6015625 C133.289062,8.6015625 130.414062,9.8515625 128.273438,12.3515625 C126.132812,14.8515625 125.0625,18.2109375 125.0625,22.4296875 C125.0625,26.3671875 126.078125,29.5039062 128.109375,31.8398438 C130.140625,34.1757812 132.882812,35.34375 136.335938,35.34375 Z M136.734375,31.7109375 C134.1875,31.7109375 132.328125,30.8203125 131.15625,29.0390625 C129.984375,27.2578125 129.398438,25.03125 129.398438,22.359375 C129.398438,19.578125 129.984375,17.203125 131.15625,15.234375 C132.328125,13.265625 134.203125,12.28125 136.78125,12.28125 C139.6875,12.28125 141.734375,13.4375 142.921875,15.75 C143.671875,17.21875 144.046875,19.125 144.046875,21.46875 C144.046875,24.0625 143.527344,26.4179688 142.488281,28.5351562 C141.449219,30.6523438 139.53125,31.7109375 136.734375,31.7109375 Z M159.375,34.828125 C159.984375,34.828125 160.550781,34.796875 161.074219,34.734375 C161.597656,34.671875 162.101562,34.5703125 162.585938,34.4296875 L162.585938,34.4296875 L162.585938,31.1015625 C162.273438,31.1328125 162,31.1523438 161.765625,31.1601562 C161.53125,31.1679688 161.3125,31.171875 161.109375,31.171875 C160.34375,31.171875 159.796875,31.0859375 159.46875,30.9140625 C158.875,30.6171875 158.578125,30.03125 158.578125,29.15625 L158.578125,29.15625 L158.578125,12.7734375 L162.585938,12.7734375 L162.585938,9.328125 L158.578125,9.328125 L158.578125,2.3203125 L154.3125,2.3203125 L154.3125,9.328125 L150.914062,9.328125 L150.914062,12.7734375 L154.3125,12.7734375 L154.3125,29.390625 C154.3125,31 154.664062,32.3085938 155.367188,33.3164062 C156.070312,34.3242188 157.40625,34.828125 159.375,34.828125 Z M176.601562,35.3203125 C177.882812,35.3203125 179.03125,35.1953125 180.046875,34.9453125 C181.9375,34.5078125 183.523438,33.6640625 184.804688,32.4140625 C185.570312,31.6953125 186.261719,30.7695312 186.878906,29.6367188 C187.496094,28.5039062 187.859375,27.4765625 187.96875,26.5546875 L187.96875,26.5546875 L183.820312,26.5546875 C183.507812,27.6640625 182.976562,28.640625 182.226562,29.484375 C180.914062,30.9375 179.15625,31.6640625 176.953125,31.6640625 C174.59375,31.6640625 172.851562,30.8945312 171.726562,29.3554688 C170.601562,27.8164062 170,25.7734375 169.921875,23.2265625 L169.921875,23.2265625 L188.320312,23.2265625 C188.320312,20.6953125 188.195312,18.8515625 187.945312,17.6953125 C187.664062,16.0078125 187.101562,14.53125 186.257812,13.265625 C185.382812,11.9375 184.109375,10.8554688 182.4375,10.0195312 C180.765625,9.18359375 179.039062,8.765625 177.257812,8.765625 C173.726562,8.765625 170.867188,10.0234375 168.679688,12.5390625 C166.492188,15.0546875 165.398438,18.328125 165.398438,22.359375 C165.398438,26.453125 166.484375,29.6367188 168.65625,31.9101562 C170.828125,34.1835938 173.476562,35.3203125 176.601562,35.3203125 Z M183.984375,19.875 L170.039062,19.875 C170.117188,17.71875 170.8125,15.9414062 172.125,14.5429688 C173.4375,13.1445312 175.0625,12.4453125 177,12.4453125 C179.703125,12.4453125 181.632812,13.4609375 182.789062,15.4921875 C183.414062,16.5859375 183.8125,18.046875 183.984375,19.875 L183.984375,19.875 Z" id="note" fill="#288ED7"></path>
        </g>
    </g>
</svg>
