<?xml version="1.0" encoding="UTF-8"?>
<svg width="166px" height="28px" viewBox="0 0 166 28" version="1.1" xmlns="http://www.w3.org/2000/svg" xmlns:xlink="http://www.w3.org/1999/xlink">
    <title>Group</title>
    <g id="Page-1" stroke="none" stroke-width="1" fill="none" fill-rule="evenodd">
        <g id="Group" fill-rule="nonzero">
            <g id="ElixirNotebook" transform="translate(2.109375, 2.882812)">
                <path d="M2.61328125,18.1171875 L2.61328125,2.578125 L0,2.578125 L0,18.1171875 L2.61328125,18.1171875 Z M12.6445312,18.1171875 C14.0898438,18.1171875 15.3730469,17.9101562 16.4941406,17.4960938 C17.6152344,17.0820312 18.5566406,16.5175781 19.3183594,15.8027344 C20.0800781,15.0878906 20.6582031,14.25 21.0527344,13.2890625 C21.4472656,12.328125 21.6445312,11.3007812 21.6445312,10.2070312 C21.6445312,9.05859375 21.4238281,8 20.9824219,7.03125 C20.5410156,6.0625 19.8828125,5.203125 19.0078125,4.453125 C18.2421875,3.796875 17.2851562,3.3203125 16.1367188,3.0234375 C14.9882812,2.7265625 13.6171875,2.578125 12.0234375,2.578125 L12.0234375,2.578125 L6.84375,2.578125 L6.84375,18.1171875 L12.6445312,18.1171875 Z M12.234375,16.9804688 L9.45703125,16.9804688 L9.45703125,3.7265625 L12.2460938,3.7265625 C13.1679688,3.7265625 14.0175781,3.88671875 14.7949219,4.20703125 C15.5722656,4.52734375 16.2421875,4.9765625 16.8046875,5.5546875 C17.3671875,6.1328125 17.8046875,6.82226562 18.1171875,7.62304688 C18.4296875,8.42382812 18.5859375,9.3046875 18.5859375,10.265625 C18.5859375,11.359375 18.4199219,12.3222656 18.0878906,13.1542969 C17.7558594,13.9863281 17.3027344,14.6875 16.7285156,15.2578125 C16.1542969,15.828125 15.4804688,16.2578125 14.7070312,16.546875 C13.9335938,16.8359375 13.109375,16.9804688 12.234375,16.9804688 L12.234375,16.9804688 Z M33.375,18.4804688 C34.1875,18.4804688 34.9140625,18.4472656 35.5546875,18.3808594 C36.1953125,18.3144531 36.7832031,18.21875 37.3183594,18.09375 C37.8535156,17.96875 38.3515625,17.8125 38.8125,17.625 C39.2734375,17.4375 39.7304688,17.2226562 40.1835938,16.9804688 L40.1835938,16.9804688 L40.1835938,10.1484375 L34.6289062,10.1484375 L34.6289062,11.0742188 L37.5703125,11.0742188 L37.5703125,16.5234375 C37.1328125,16.8671875 36.640625,17.1308594 36.09375,17.3144531 C35.546875,17.4980469 34.9335938,17.5898438 34.2539062,17.5898438 C33.3164062,17.5898438 32.4375,17.4238281 31.6171875,17.0917969 C30.796875,16.7597656 30.0839844,16.2851562 29.4785156,15.6679688 C28.8730469,15.0507812 28.3964844,14.3027344 28.0488281,13.4238281 C27.7011719,12.5449219 27.5273438,11.5585938 27.5273438,10.4648438 C27.5273438,9.37890625 27.6875,8.39648438 28.0078125,7.51757812 C28.328125,6.63867188 28.7753906,5.88867188 29.3496094,5.26757812 C29.9238281,4.64648438 30.6074219,4.16992188 31.4003906,3.83789062 C32.1933594,3.50585938 33.0585938,3.33984375 33.9960938,3.33984375 C35.0351562,3.33984375 35.9550781,3.63085938 36.7558594,4.21289062 C37.5566406,4.79492188 38.2851562,5.71484375 38.9414062,6.97265625 L38.9414062,6.97265625 L40.0664062,6.22265625 C39.7460938,5.69921875 39.3632812,5.19726562 38.9179688,4.71679688 C38.4726562,4.23632812 37.9628906,3.8125 37.3886719,3.4453125 C36.8144531,3.078125 36.1777344,2.78320312 35.4785156,2.56054688 C34.7792969,2.33789062 34.0195312,2.2265625 33.1992188,2.2265625 C32.3398438,2.2265625 31.5273438,2.328125 30.7617188,2.53125 C29.9960938,2.734375 29.2890625,3.01953125 28.640625,3.38671875 C27.9921875,3.75390625 27.4101562,4.19140625 26.8945312,4.69921875 C26.3789062,5.20703125 25.9414062,5.76757812 25.5820312,6.38085938 C25.2226562,6.99414062 24.9472656,7.64648438 24.7558594,8.33789062 C24.5644531,9.02929688 24.46875,9.73828125 24.46875,10.4648438 C24.46875,11.1914062 24.5703125,11.8964844 24.7734375,12.5800781 C24.9765625,13.2636719 25.2636719,13.9023438 25.6347656,14.4960938 C26.0058594,15.0898438 26.4570312,15.6308594 26.9882812,16.1191406 C27.5195312,16.6074219 28.1152344,17.0273438 28.7753906,17.3789062 C29.4355469,17.7304688 30.1523438,18.0019531 30.9257812,18.1933594 C31.6992188,18.3847656 32.515625,18.4804688 33.375,18.4804688 Z" id="IDG" fill="#020202"></path>
                <path d="M63.9023438,18.3515625 L63.9023438,2.2265625 L61.4648438,2.2265625 L61.4648438,12.328125 L52.40625,2.2265625 L49.9101562,2.2265625 L49.9101562,18.1171875 L52.3828125,18.1171875 L52.3828125,7.1953125 L62.2265625,18.3515625 L63.9023438,18.3515625 Z M73.5,18.3398438 C74.453125,18.3398438 75.3359375,18.1699219 76.1484375,17.8300781 C76.9609375,17.4902344 77.6621094,17.0292969 78.2519531,16.4472656 C78.8417969,15.8652344 79.3027344,15.1835938 79.6347656,14.4023438 C79.9667969,13.6210938 80.1328125,12.7890625 80.1328125,11.90625 C80.1328125,11.0625 79.9648438,10.2753906 79.6289062,9.54492188 C79.2929688,8.81445312 78.8300781,8.1796875 78.2402344,7.640625 C77.6503906,7.1015625 76.9492188,6.67773438 76.1367188,6.36914062 C75.3242188,6.06054688 74.4414062,5.90625 73.4882812,5.90625 C72.5351562,5.90625 71.6542969,6.06445312 70.8457031,6.38085938 C70.0371094,6.69726562 69.3398438,7.13671875 68.7539062,7.69921875 C68.1679688,8.26171875 67.7089844,8.93164062 67.3769531,9.70898438 C67.0449219,10.4863281 66.8789062,11.3359375 66.8789062,12.2578125 C66.8789062,13.1171875 67.0449219,13.9160156 67.3769531,14.6542969 C67.7089844,15.3925781 68.1699219,16.0351562 68.7597656,16.5820312 C69.3496094,17.1289062 70.0488281,17.5585938 70.8574219,17.8710938 C71.6660156,18.1835938 72.546875,18.3398438 73.5,18.3398438 Z M73.921875,16.875 C73.4296875,16.875 72.9902344,16.7246094 72.6035156,16.4238281 C72.2167969,16.1230469 71.8886719,15.7167969 71.6191406,15.2050781 C71.3496094,14.6933594 71.1425781,14.09375 70.9980469,13.40625 C70.8535156,12.71875 70.78125,11.9882812 70.78125,11.2148438 C70.78125,10.6992188 70.8417969,10.2089844 70.9628906,9.74414062 C71.0839844,9.27929688 71.2460938,8.86914062 71.4492188,8.51367188 C71.6523438,8.15820312 71.8867188,7.875 72.1523438,7.6640625 C72.4179688,7.453125 72.6953125,7.34765625 72.984375,7.34765625 C73.578125,7.34765625 74.0800781,7.49609375 74.4902344,7.79296875 C74.9003906,8.08984375 75.234375,8.4921875 75.4921875,9 C75.75,9.5078125 75.9355469,10.0996094 76.0488281,10.7753906 C76.1621094,11.4511719 76.21875,12.171875 76.21875,12.9375 C76.21875,13.453125 76.1621094,13.9492188 76.0488281,14.4257812 C75.9355469,14.9023438 75.7753906,15.3222656 75.5683594,15.6855469 C75.3613281,16.0488281 75.1171875,16.3378906 74.8359375,16.5527344 C74.5546875,16.7675781 74.25,16.875 73.921875,16.875 Z M86.5078125,18.3867188 C87.0390625,18.3867188 87.5078125,18.3300781 87.9140625,18.2167969 C88.3203125,18.1035156 88.6796875,17.9492188 88.9921875,17.7539062 C89.3046875,17.5585938 89.5820312,17.3261719 89.8242188,17.0566406 C90.0664062,16.7871094 90.2890625,16.4960938 90.4921875,16.1835938 L90.4921875,16.1835938 L89.25,15.1992188 C89.203125,15.2617188 89.1269531,15.3515625 89.0214844,15.46875 C88.9160156,15.5859375 88.7949219,15.7011719 88.6582031,15.8144531 C88.5214844,15.9277344 88.3769531,16.0273438 88.2246094,16.1132812 C88.0722656,16.1992188 87.9335938,16.2421875 87.8085938,16.2421875 C87.6054688,16.2421875 87.4414062,16.1523438 87.3164062,15.9726562 C87.1914062,15.7929688 87.1289062,15.5820312 87.1289062,15.3398438 L87.1289062,15.3398438 L87.1289062,7.6171875 L90.0703125,7.6171875 L90.0703125,6.1171875 L87.1289062,6.1171875 L87.1289062,2.34375 L86.0390625,2.34375 L83.4960938,3.6796875 L83.4960938,6.1171875 L81.5625,6.76171875 L81.5625,7.6171875 L83.4960938,7.6171875 L83.4960938,15.4453125 C83.4960938,15.8828125 83.5585938,16.28125 83.6835938,16.640625 C83.8085938,17 83.9960938,17.3085938 84.2460938,17.5664062 C84.4960938,17.8242188 84.8085938,18.0253906 85.1835938,18.1699219 C85.5585938,18.3144531 86,18.3867188 86.5078125,18.3867188 Z M97.8984375,18.3867188 C98.5625,18.3867188 99.21875,18.2636719 99.8671875,18.0175781 C100.515625,17.7714844 101.115234,17.4335938 101.666016,17.0039062 C102.216797,16.5742188 102.697266,16.0742188 103.107422,15.5039062 C103.517578,14.9335938 103.816406,14.3242188 104.003906,13.6757812 L104.003906,13.6757812 L102.152344,13.3828125 C102.042969,13.75 101.867188,14.0917969 101.625,14.4082031 C101.382812,14.7246094 101.097656,15.0019531 100.769531,15.2402344 C100.441406,15.4785156 100.083984,15.6660156 99.6972656,15.8027344 C99.3105469,15.9394531 98.9179688,16.0078125 98.5195312,16.0078125 C98.0585938,16.0078125 97.6386719,15.8730469 97.2597656,15.6035156 C96.8808594,15.3339844 96.5507812,14.9707031 96.2695312,14.5136719 C95.9882812,14.0566406 95.7636719,13.5273438 95.5957031,12.9257812 C95.4277344,12.3242188 95.328125,11.6914062 95.296875,11.0273438 L95.296875,11.0273438 L103.605469,11.0273438 C103.605469,10.3164062 103.46875,9.6484375 103.195312,9.0234375 C102.921875,8.3984375 102.537109,7.85546875 102.041016,7.39453125 C101.544922,6.93359375 100.949219,6.5703125 100.253906,6.3046875 C99.5585938,6.0390625 98.7929688,5.90625 97.9570312,5.90625 C97.0195312,5.90625 96.1699219,6.07226562 95.4082031,6.40429688 C94.6464844,6.73632812 93.9921875,7.19921875 93.4453125,7.79296875 C92.8984375,8.38671875 92.4765625,9.08789062 92.1796875,9.89648438 C91.8828125,10.7050781 91.734375,11.5820312 91.734375,12.5273438 C91.734375,13.3164062 91.8964844,14.0644531 92.2207031,14.7714844 C92.5449219,15.4785156 92.984375,16.0996094 93.5390625,16.6347656 C94.09375,17.1699219 94.7460938,17.5957031 95.4960938,17.9121094 C96.2460938,18.2285156 97.046875,18.3867188 97.8984375,18.3867188 Z M99.4335938,9.78515625 L95.3320312,9.78515625 C95.3710938,9.42578125 95.4511719,9.09960938 95.5722656,8.80664062 C95.6933594,8.51367188 95.8417969,8.26367188 96.0175781,8.05664062 C96.1933594,7.84960938 96.390625,7.68945312 96.609375,7.57617188 C96.828125,7.46289062 97.0507812,7.40625 97.2773438,7.40625 C97.5664062,7.40625 97.8359375,7.46289062 98.0859375,7.57617188 C98.3359375,7.68945312 98.5546875,7.8515625 98.7421875,8.0625 C98.9296875,8.2734375 99.0839844,8.52539062 99.2050781,8.81835938 C99.3261719,9.11132812 99.4023438,9.43359375 99.4335938,9.78515625 L99.4335938,9.78515625 Z M112.054688,18.3398438 C112.695312,18.3398438 113.310547,18.2539062 113.900391,18.0820312 C114.490234,17.9101562 115.042969,17.6699219 115.558594,17.3613281 C116.074219,17.0527344 116.542969,16.6796875 116.964844,16.2421875 C117.386719,15.8046875 117.748047,15.3242188 118.048828,14.8007812 C118.349609,14.2773438 118.582031,13.7167969 118.746094,13.1191406 C118.910156,12.5214844 118.992188,11.9023438 118.992188,11.2617188 C118.992188,10.5351562 118.863281,9.84765625 118.605469,9.19921875 C118.347656,8.55078125 117.988281,7.98242188 117.527344,7.49414062 C117.066406,7.00585938 116.519531,6.61914062 115.886719,6.33398438 C115.253906,6.04882813 114.5625,5.90625 113.8125,5.90625 C113.296875,5.90625 112.761719,6.00390625 112.207031,6.19921875 C111.652344,6.39453125 111.140625,6.64453125 110.671875,6.94921875 L110.671875,6.94921875 L110.671875,0 L109.582031,0 L107.015625,1.3359375 L107.015625,16.7460938 C107.703125,17.3007812 108.478516,17.7050781 109.341797,17.9589844 C110.205078,18.2128906 111.109375,18.3398438 112.054688,18.3398438 Z M112.523438,16.7929688 C112.320312,16.7929688 112.132812,16.7695312 111.960938,16.7226562 C111.789062,16.6757812 111.628906,16.6132812 111.480469,16.5351562 C111.332031,16.4570312 111.191406,16.3671875 111.058594,16.265625 C110.925781,16.1640625 110.796875,16.0585938 110.671875,15.9492188 L110.671875,15.9492188 L110.671875,9.3046875 C110.9375,9 111.253906,8.74804688 111.621094,8.54882812 C111.988281,8.34960938 112.339844,8.25 112.675781,8.25 C113.027344,8.25 113.359375,8.34765625 113.671875,8.54296875 C113.984375,8.73828125 114.255859,9.00585938 114.486328,9.34570312 C114.716797,9.68554688 114.898438,10.0800781 115.03125,10.5292969 C115.164062,10.9785156 115.230469,11.4570312 115.230469,11.9648438 C115.230469,12.6445312 115.166016,13.2792969 115.037109,13.8691406 C114.908203,14.4589844 114.724609,14.9707031 114.486328,15.4042969 C114.248047,15.8378906 113.962891,16.1777344 113.630859,16.4238281 C113.298828,16.6699219 112.929688,16.7929688 112.523438,16.7929688 Z M127.441406,18.3398438 C128.394531,18.3398438 129.277344,18.1699219 130.089844,17.8300781 C130.902344,17.4902344 131.603516,17.0292969 132.193359,16.4472656 C132.783203,15.8652344 133.244141,15.1835938 133.576172,14.4023438 C133.908203,13.6210938 134.074219,12.7890625 134.074219,11.90625 C134.074219,11.0625 133.90625,10.2753906 133.570312,9.54492188 C133.234375,8.81445312 132.771484,8.1796875 132.181641,7.640625 C131.591797,7.1015625 130.890625,6.67773438 130.078125,6.36914062 C129.265625,6.06054688 128.382812,5.90625 127.429688,5.90625 C126.476562,5.90625 125.595703,6.06445312 124.787109,6.38085938 C123.978516,6.69726562 123.28125,7.13671875 122.695312,7.69921875 C122.109375,8.26171875 121.650391,8.93164062 121.318359,9.70898438 C120.986328,10.4863281 120.820312,11.3359375 120.820312,12.2578125 C120.820312,13.1171875 120.986328,13.9160156 121.318359,14.6542969 C121.650391,15.3925781 122.111328,16.0351562 122.701172,16.5820312 C123.291016,17.1289062 123.990234,17.5585938 124.798828,17.8710938 C125.607422,18.1835938 126.488281,18.3398438 127.441406,18.3398438 Z M127.863281,16.875 C127.371094,16.875 126.931641,16.7246094 126.544922,16.4238281 C126.158203,16.1230469 125.830078,15.7167969 125.560547,15.2050781 C125.291016,14.6933594 125.083984,14.09375 124.939453,13.40625 C124.794922,12.71875 124.722656,11.9882812 124.722656,11.2148438 C124.722656,10.6992188 124.783203,10.2089844 124.904297,9.74414062 C125.025391,9.27929688 125.1875,8.86914062 125.390625,8.51367188 C125.59375,8.15820312 125.828125,7.875 126.09375,7.6640625 C126.359375,7.453125 126.636719,7.34765625 126.925781,7.34765625 C127.519531,7.34765625 128.021484,7.49609375 128.431641,7.79296875 C128.841797,8.08984375 129.175781,8.4921875 129.433594,9 C129.691406,9.5078125 129.876953,10.0996094 129.990234,10.7753906 C130.103516,11.4511719 130.160156,12.171875 130.160156,12.9375 C130.160156,13.453125 130.103516,13.9492188 129.990234,14.4257812 C129.876953,14.9023438 129.716797,15.3222656 129.509766,15.6855469 C129.302734,16.0488281 129.058594,16.3378906 128.777344,16.5527344 C128.496094,16.7675781 128.191406,16.875 127.863281,16.875 Z M142.605469,18.3398438 C143.558594,18.3398438 144.441406,18.1699219 145.253906,17.8300781 C146.066406,17.4902344 146.767578,17.0292969 147.357422,16.4472656 C147.947266,15.8652344 148.408203,15.1835938 148.740234,14.4023438 C149.072266,13.6210938 149.238281,12.7890625 149.238281,11.90625 C149.238281,11.0625 149.070312,10.2753906 148.734375,9.54492188 C148.398438,8.81445312 147.935547,8.1796875 147.345703,7.640625 C146.755859,7.1015625 146.054688,6.67773438 145.242188,6.36914062 C144.429688,6.06054688 143.546875,5.90625 142.59375,5.90625 C141.640625,5.90625 140.759766,6.06445312 139.951172,6.38085938 C139.142578,6.69726562 138.445312,7.13671875 137.859375,7.69921875 C137.273438,8.26171875 136.814453,8.93164062 136.482422,9.70898438 C136.150391,10.4863281 135.984375,11.3359375 135.984375,12.2578125 C135.984375,13.1171875 136.150391,13.9160156 136.482422,14.6542969 C136.814453,15.3925781 137.275391,16.0351562 137.865234,16.5820312 C138.455078,17.1289062 139.154297,17.5585938 139.962891,17.8710938 C140.771484,18.1835938 141.652344,18.3398438 142.605469,18.3398438 Z M143.027344,16.875 C142.535156,16.875 142.095703,16.7246094 141.708984,16.4238281 C141.322266,16.1230469 140.994141,15.7167969 140.724609,15.2050781 C140.455078,14.6933594 140.248047,14.09375 140.103516,13.40625 C139.958984,12.71875 139.886719,11.9882812 139.886719,11.2148438 C139.886719,10.6992188 139.947266,10.2089844 140.068359,9.74414062 C140.189453,9.27929688 140.351562,8.86914062 140.554688,8.51367188 C140.757812,8.15820312 140.992188,7.875 141.257812,7.6640625 C141.523438,7.453125 141.800781,7.34765625 142.089844,7.34765625 C142.683594,7.34765625 143.185547,7.49609375 143.595703,7.79296875 C144.005859,8.08984375 144.339844,8.4921875 144.597656,9 C144.855469,9.5078125 145.041016,10.0996094 145.154297,10.7753906 C145.267578,11.4511719 145.324219,12.171875 145.324219,12.9375 C145.324219,13.453125 145.267578,13.9492188 145.154297,14.4257812 C145.041016,14.9023438 144.880859,15.3222656 144.673828,15.6855469 C144.466797,16.0488281 144.222656,16.3378906 143.941406,16.5527344 C143.660156,16.7675781 143.355469,16.875 143.027344,16.875 Z M155.308594,18.1171875 L155.308594,13.3007812 L159.46875,18.1171875 L163.769531,18.1171875 L157.394531,10.7109375 L162.644531,6.1171875 L160.019531,6.1171875 L155.308594,10.2304688 L155.308594,0 L154.21875,0 L151.652344,1.3359375 L151.652344,18.1171875 L155.308594,18.1171875 Z" id="Notebook" fill="#1976D2"></path>
            </g>
        </g>
    </g>
</svg>