<svg width="105px" height="30px" viewBox="0 0 105 30" version="1.1" xmlns="http://www.w3.org/2000/svg">
    <title>Artboard</title>
    <g id="Artboard" stroke="none" stroke-width="1" fill="none" fill-rule="evenodd">
        <path d="M17.924,22 L17.924,20.056 L8.006,20.056 L8.006,16.51 L15.98,16.51 L15.98,14.53 L8.006,14.53 L8.006,10.984 L17.924,10.984 L17.924,9.04 L6.044,9.04 L6.044,22 L17.924,22 Z M24.008,22 L24.008,20.056 L22.118,20.056 C21.998,20.056 21.893,20.011 21.803,19.921 C21.713,19.831 21.668,19.726 21.668,19.606 L21.668,19.606 L21.668,8.14 L19.724,8.14 L19.724,19.66 C19.724,20.092 19.832,20.482 20.048,20.83 C20.264,21.178 20.546,21.46 20.894,21.676 C21.242,21.892 21.632,22 22.064,22 L22.064,22 L24.008,22 Z M27.5318669,10.084 L27.5318669,8.14 L25.5878669,8.14 L25.5878669,10.084 L27.5318669,10.084 Z M27.5318669,22 L27.5318669,11.56 L25.5878669,11.56 L25.5878669,22 L27.5318669,22 Z M31.2877871,22 L34.3657871,18.202 L37.4617871,22 L39.7297871,22 L39.7297871,21.658 L35.6437871,16.69 L39.7117871,11.902 L39.7117871,11.56 L37.4617871,11.56 L34.3657871,15.178 L31.2877871,11.56 L29.0197871,11.56 L29.0197871,11.902 L33.1057871,16.69 L29.0197871,21.658 L29.0197871,22 L31.2877871,22 Z M43.5277871,10.084 L43.5277871,8.14 L41.5837871,8.14 L41.5837871,10.084 L43.5277871,10.084 Z M43.5277871,22 L43.5277871,11.56 L41.5837871,11.56 L41.5837871,22 L43.5277871,22 Z M47.6077073,22 L47.6077073,13.954 C47.6077073,13.834 47.6527073,13.729 47.7427073,13.639 C47.8327073,13.549 47.9377073,13.504 48.0577073,13.504 L48.0577073,13.504 L53.8357073,13.504 L53.8357073,11.56 L48.0037073,11.56 C47.5837073,11.56 47.1967073,11.668 46.8427073,11.884 C46.4887073,12.1 46.2037073,12.382 45.9877073,12.73 C45.7717073,13.078 45.6637073,13.468 45.6637073,13.9 L45.6637073,13.9 L45.6637073,22 L47.6077073,22 Z M56.9876541,22 L56.9876541,11.65 L65.6816541,22 L68.0036541,22 L68.0036541,9.04 L66.0416541,9.04 L66.0416541,19.372 L57.3656541,9.04 L55.0436541,9.04 L55.0436541,22 L56.9876541,22 Z M78.2096541,22 C78.6416541,22 79.0346541,21.892 79.3886541,21.676 C79.7426541,21.46 80.0246541,21.178 80.2346541,20.83 C80.4446541,20.482 80.5496541,20.092 80.5496541,19.66 L80.5496541,19.66 L80.5496541,13.9 C80.5496541,13.48 80.4446541,13.09 80.2346541,12.73 C80.0246541,12.37 79.7426541,12.085 79.3886541,11.875 C79.0346541,11.665 78.6416541,11.56 78.2096541,11.56 L78.2096541,11.56 L72.2696541,11.56 C71.8376541,11.56 71.4476541,11.668 71.0996541,11.884 C70.7516541,12.1 70.4696541,12.382 70.2536541,12.73 C70.0376541,13.078 69.9296541,13.468 69.9296541,13.9 L69.9296541,13.9 L69.9296541,19.66 C69.9296541,20.092 70.0376541,20.482 70.2536541,20.83 C70.4696541,21.178 70.7516541,21.46 71.0996541,21.676 C71.4476541,21.892 71.8376541,22 72.2696541,22 L72.2696541,22 L78.2096541,22 Z M78.1556541,20.056 L72.3236541,20.056 C72.2036541,20.056 72.0986541,20.011 72.0086541,19.921 C71.9186541,19.831 71.8736541,19.726 71.8736541,19.606 L71.8736541,19.606 L71.8736541,13.954 C71.8736541,13.834 71.9186541,13.729 72.0086541,13.639 C72.0986541,13.549 72.2036541,13.504 72.3236541,13.504 L72.3236541,13.504 L78.1556541,13.504 C78.2756541,13.504 78.3776541,13.549 78.4616541,13.639 C78.5456541,13.729 78.5876541,13.834 78.5876541,13.954 L78.5876541,13.954 L78.5876541,19.606 C78.5876541,19.726 78.5456541,19.831 78.4616541,19.921 C78.3776541,20.011 78.2756541,20.056 78.1556541,20.056 L78.1556541,20.056 Z M88.2716541,22 L88.2716541,20.056 L84.4376541,20.056 C84.3176541,20.056 84.2126541,20.011 84.1226541,19.921 C84.0326541,19.831 83.9876541,19.726 83.9876541,19.606 L83.9876541,19.606 L83.9876541,13.504 L88.2716541,13.504 L88.2716541,11.56 L83.9876541,11.56 L83.9876541,8.266 L82.0436541,8.266 L82.0436541,19.66 C82.0436541,20.092 82.1486541,20.482 82.3586541,20.83 C82.5686541,21.178 82.8506541,21.46 83.2046541,21.676 C83.5586541,21.892 83.9516541,22 84.3836541,22 L84.3836541,22 L88.2716541,22 Z M100.276927,22 L100.276927,20.056 L92.0509268,20.056 C91.9309268,20.056 91.8259268,20.011 91.7359268,19.921 C91.6459268,19.831 91.6009268,19.726 91.6009268,19.606 L91.6009268,19.606 L91.6009268,17.752 L100.276927,17.752 L100.276927,13.9 C100.276927,13.48 100.171927,13.09 99.9619268,12.73 C99.7519268,12.37 99.4699268,12.085 99.1159268,11.875 C98.7619268,11.665 98.3689268,11.56 97.9369268,11.56 L97.9369268,11.56 L91.9969268,11.56 C91.5649268,11.56 91.1749268,11.668 90.8269268,11.884 C90.4789268,12.1 90.1969268,12.382 89.9809268,12.73 C89.7649268,13.078 89.6569268,13.468 89.6569268,13.9 L89.6569268,13.9 L89.6569268,19.66 C89.6569268,20.092 89.7649268,20.482 89.9809268,20.83 C90.1969268,21.178 90.4789268,21.46 90.8269268,21.676 C91.1749268,21.892 91.5649268,22 91.9969268,22 L91.9969268,22 L100.276927,22 Z M98.3149268,15.934 L91.6009268,15.934 L91.6009268,13.954 C91.6009268,13.834 91.6459268,13.729 91.7359268,13.639 C91.8259268,13.549 91.9309268,13.504 92.0509268,13.504 L92.0509268,13.504 L97.8829268,13.504 C98.0029268,13.504 98.1049268,13.549 98.1889268,13.639 C98.2729268,13.729 98.3149268,13.834 98.3149268,13.954 L98.3149268,13.954 L98.3149268,15.934 Z" id="ElixirNote" fill="#020202" fill-rule="nonzero"></path>
    </g>
</svg>