<svg width="1150px" height="1150px" viewBox="0 0 1150 1150" version="1.1" xmlns="http://www.w3.org/2000/svg">
    <title>exilir-note-1</title>
    <g id="exilir-note-1" stroke="none" stroke-width="1" fill="none" fill-rule="evenodd">
        <rect fill="#288ED7" x="0" y="0" width="1150" height="1150"></rect>
        <g id="elixir-note" transform="translate(175.000000, 189.000000)" fill="#FFFFFF" fill-rule="nonzero">
            <path d="M396.872064,0 C431.164224,0 444.023784,21.4346963 461.169863,42.8693905 L465.456383,47.156331 L786.945386,664.475565 C799.804946,690.197199 808.377982,715.918834 786.945386,741.640469 C756.939742,780.222921 705.501503,775.935978 679.782383,728.779652 L649.776739,668.762507 L585.478942,548.728208 C581.192422,540.154334 572.619382,527.293516 564.046343,514.432699 L495.462022,647.327805 C482.602462,677.336382 465.456383,703.058017 452.596823,733.066594 C426.877703,780.222921 371.152944,784.509864 345.433824,741.640469 C328.287745,715.918834 336.860783,690.197199 349.720343,664.475565 L439.737263,497.284939 C452.596823,467.276366 469.742902,441.554731 482.602462,411.546156 C495.462022,390.111459 495.462022,372.963704 482.602462,351.529007 C452.596823,300.085738 431.164222,248.642468 401.158583,197.199199 C388.299023,205.773078 384.012504,218.633895 379.725982,231.494713 L251.130383,475.850247 L126.821305,720.205777 C113.961745,741.640469 101.102185,763.075161 71.0965433,771.649046 C28.2313442,780.222921 -10.3473357,741.640469 2.51222426,698.771074 C6.79874356,685.910257 11.0852649,677.336382 15.3717842,668.762507 C122.534783,462.989425 225.411263,261.503286 332.574264,55.7302079 C345.433824,21.4346942 362.579903,0 396.872064,0 L396.872064,0 Z" id="Shape"></path>
        </g>
    </g>
</svg>