<svg width="182px" height="176px" viewBox="0 0 182 176" version="1.1" xmlns="http://www.w3.org/2000/svg" xmlns:xlink="http://www.w3.org/1999/xlink">
    <title>exilir-note-architecture</title>
    <g id="Page-1" stroke="none" stroke-width="1" fill="none" fill-rule="evenodd">
        <g id="exilir-note-architecture" fill="#288ED7" fill-rule="nonzero">
            <path d="M90.2883946,0 C98.089861,0 101.015411,4.88127563 104.916144,9.76255077 L105.891327,10.7388062 L179.030075,151.31954 C181.955625,157.17707 183.905991,163.034601 179.030075,168.892131 C172.203791,177.678427 160.501592,176.702171 154.650492,165.963366 L147.824208,152.295796 L133.196459,124.960652 C132.221276,123.008143 130.270909,120.079377 128.320543,117.150612 L112.71761,147.414518 C109.79206,154.248305 105.891327,160.105835 102.965777,166.939622 C97.1146774,177.678427 84.4372948,178.654683 78.586195,168.892131 C74.685462,163.034601 76.6358281,157.17707 79.561378,151.31954 L100.040227,113.245591 C102.965777,106.411806 106.86651,100.554275 109.79206,93.720489 C112.71761,88.8392134 112.71761,84.934193 109.79206,80.0529174 C102.965777,68.3378564 98.0898605,56.6227953 91.2635776,44.9077341 C88.3380277,46.8602444 87.3628447,49.7890098 86.3876609,52.717775 L57.1321621,108.364316 L28.8518469,164.010857 C25.926297,168.892131 23.0007471,173.773406 16.1744636,175.725918 C6.42263081,177.678427 -2.35401887,168.892131 0.571531019,159.12958 C1.54671416,156.200814 2.52189776,154.248305 3.49708091,152.295796 C27.8766631,105.43555 51.2810623,59.5515605 75.6606451,12.6913161 C78.586195,4.88127515 82.4869279,0 90.2883946,0 L90.2883946,0 Z" id="Shape"></path>
        </g>
    </g>
</svg>