<svg width="157px" height="156px" viewBox="0 0 157 156" version="1.1" xmlns="http://www.w3.org/2000/svg"
     xmlns:xlink="http://www.w3.org/1999/xlink">
    <title>notebook</title>
    <defs>
        <linearGradient x1="50%" y1="0%" x2="50%" y2="100%" id="linearGradient-1">
            <stop stop-color="#68C5F8" offset="0%"></stop>
            <stop stop-color="#3793EF" offset="100%"></stop>
        </linearGradient>
    </defs>
    <g id="Page-1" stroke="none" stroke-width="1" fill="none" fill-rule="evenodd">
        <g id="notebook" transform="translate(0.000000, 0.000000)" fill="url(#linearGradient-1)" fill-rule="nonzero">
            <path d="M145.5,25.860685 L132.5,30.660685 L132.5,128.260685 L145.5,133.060685 C151.3,135.160685 156.3,129.560685 156.3,120.360685 L156.3,38.560685 C156.3,29.360685 151.3,23.660685 145.5,25.860685 M50,52.360685 L13.8,56.960685 C12.4,57.160685 11.2,54.960685 11.2,52.160685 C11.2,49.360685 12.3,46.860685 13.8,46.560685 L50,39.560685 C52.2,39.160685 54,41.660685 54,45.260685 C53.9,48.960685 52.1,52.060685 50,52.360685 M11.3,77.560685 C11.3,74.760685 12.4,72.360685 13.9,72.360685 L32.2,71.760685 C34,71.660685 35.5,74.260685 35.5,77.560685 C35.5,80.860685 34,83.460685 32.2,83.360685 L13.9,82.760685 C12.4,82.760685 11.3,80.460685 11.3,77.560685 M37.7,113.260685 L13.8,108.660685 C12.4,108.360685 11.2,105.860685 11.2,103.060685 C11.2,100.260685 12.3,98.060685 13.8,98.260685 L37.7,101.360685 C39.6,101.560685 41.2,104.560685 41.2,107.860685 C41.2,111.160685 39.6,113.560685 37.7,113.260685 M60.1,0.66068496 L7.6,20.160685 C3.3,21.760685 0,30.060685 0,38.860685 L0,116.460685 C0,125.260685 3.3,133.560685 7.6,135.160685 L60.1,154.660685 C68.3,157.760685 75.5,149.660685 75.5,136.460685 L75.5,18.860685 C75.5,5.66068496 68.3,-2.43931504 60.1,0.66068496 L60.1,25.5948618 M109,25.860685 L88.2,33.560685 L88.2,125.460685 L109,133.160685 C114.8,135.260685 119.8,129.660685 119.8,120.460685 L119.8,38.560685 C119.8,29.360685 114.7,23.660685 109,25.860685"
                  id="Shape"></path>
        </g>
    </g>
</svg>